<?xml version="1.0" encoding="iso-8859-1"?>
<!-- Generator: Adobe Illustrator 19.0.0, SVG Export Plug-In . SVG Version: 6.00 Build 0)  -->
<svg version="1.1" id="Capa_1" xmlns="http://www.w3.org/2000/svg" xmlns:xlink="http://www.w3.org/1999/xlink" x="0px" y="0px"
	 viewBox="0 0 512.001 512.001" style="enable-background:new 0 0 512.001 512.001;" xml:space="preserve">
<path style="fill:#A5CDFF;" d="M143.774,392.274l12.996,51.985c1.784,7.137,8.197,12.144,15.553,12.144h167.352
	c7.357,0,13.769-5.007,15.553-12.144l12.996-51.985H143.774z"/>
<polygon style="fill:#8CB4EB;" points="362.214,416.323 368.226,392.274 143.774,392.274 149.786,416.323 "/>
<path style="fill:#A5CDFF;" d="M223.935,7.5L223.935,7.5v144.29H79.645l0,0C79.645,72.101,144.246,7.5,223.935,7.5z"/>
<g>
	<circle style="fill:#867E88;" cx="119.73" cy="488.47" r="16.03"/>
	<circle style="fill:#867E88;" cx="392.27" cy="488.47" r="16.03"/>
</g>
<path style="fill:#A5CDFF;" d="M79.645,183.855v96.194c29.377,0,29.377,16.032,58.754,16.032c29.385,0,29.385-16.032,58.77-16.032
	c29.395,0,29.395,16.032,58.79,16.032c29.386,0,29.386-16.032,58.772-16.032c29.406,0,29.406,16.032,58.812,16.032
	s29.406-16.032,58.812-16.032v-96.194L79.645,183.855L79.645,183.855z"/>
<circle style="fill:#F7D291;" cx="312.11" cy="79.64" r="16.03"/>
<path style="fill:#C4DEFF;" d="M79.645,183.855h352.71c4.427,0,8.016-3.589,8.016-8.016v-16.032c0-4.427-3.589-8.016-8.016-8.016
	H79.645c-4.427,0-8.016,3.589-8.016,8.016v16.032C71.629,180.266,75.218,183.855,79.645,183.855z"/>
<rect x="79.64" y="183.85" style="fill:#8CB4EB;" width="352.71" height="24.05"/>
<path d="M432.355,144.291H271.516V55.597c0-9.125,7.423-16.548,16.548-16.548s16.548,7.423,16.548,16.548v1.749
	c-9.308,3.139-16.032,11.946-16.032,22.3c0,12.976,10.557,23.532,23.532,23.532s23.532-10.557,23.532-23.532
	c0-10.353-6.724-19.16-16.032-22.3v-1.749c0-17.396-14.152-31.548-31.548-31.548s-31.548,14.152-31.548,31.548v88.694h-25.081V7.5
	c0-4.142-3.358-7.5-7.5-7.5C142.122,0,75.231,65.064,72.26,146.164c-4.839,2.63-8.131,7.759-8.131,13.643v16.032
	c0,5.836,3.242,10.925,8.016,13.574v90.636c0,4.142,3.358,7.5,7.5,7.5c12.775,0,18.804,3.29,25.785,7.1
	c2.134,1.165,4.355,2.37,6.796,3.506v168.014c-9.308,3.139-16.032,11.946-16.032,22.3c0,12.976,10.557,23.532,23.532,23.532
	c12.976,0,23.533-10.557,23.533-23.532c0-10.354-6.724-19.16-16.033-22.3v-66.394h10.693l11.576,46.304
	c2.624,10.495,12.011,17.825,22.83,17.825h167.352c10.818,0,20.206-7.33,22.83-17.825l11.576-46.304h10.693v66.394
	c-9.308,3.139-16.033,11.946-16.033,22.3c0,12.976,10.557,23.532,23.533,23.532c12.976,0,23.532-10.557,23.532-23.532
	c0-10.353-6.724-19.16-16.032-22.3v-168.03c2.428-1.132,4.639-2.33,6.764-3.489c6.989-3.811,13.025-7.101,25.816-7.101
	c4.142,0,7.5-3.358,7.5-7.5v-90.636c4.774-2.649,8.016-7.738,8.016-13.574v-16.032C447.871,151.251,440.911,144.291,432.355,144.291
	z M312.113,88.177c-4.705,0-8.532-3.828-8.532-8.532s3.828-8.532,8.532-8.532s8.532,3.828,8.532,8.532
	S316.817,88.177,312.113,88.177z M216.436,133.684l-83.725-83.725c22.483-20.162,51.649-33.013,83.725-34.756V133.684z
	 M122.103,60.564l83.727,83.727H87.355C89.097,112.215,101.941,83.046,122.103,60.564z M119.726,497
	c-4.705,0-8.532-3.828-8.532-8.532s3.828-8.532,8.532-8.532c4.705,0,8.533,3.828,8.533,8.532S124.431,497,119.726,497z M392.274,497
	c-4.705,0-8.533-3.828-8.533-8.532s3.828-8.532,8.533-8.532s8.532,3.828,8.532,8.532S396.979,497,392.274,497z M384.774,384.774
	H191.871c-4.142,0-7.5,3.358-7.5,7.5s3.358,7.5,7.5,7.5H358.62l-10.666,42.666c-0.952,3.805-4.355,6.463-8.278,6.463H172.324
	c-3.922,0-7.326-2.658-8.278-6.463l-10.666-42.666h6.424c4.142,0,7.5-3.358,7.5-7.5s-3.358-7.5-7.5-7.5h-32.579v-82.018
	c3.295,0.52,6.981,0.824,11.174,0.824c16.605,0,25.303-4.746,32.977-8.932c6.982-3.81,13.013-7.1,25.792-7.1
	c12.785,0,18.818,3.291,25.804,7.101c7.676,4.187,16.376,8.932,32.986,8.932c16.606,0,25.304-4.746,32.978-8.932
	c6.983-3.81,13.014-7.1,25.794-7.1c12.792,0,18.827,3.291,25.816,7.101c7.678,4.187,16.381,8.931,32.996,8.931
	c4.217,0,7.921-0.308,11.231-0.833L384.774,384.774L384.774,384.774z M399.358,281.479c-6.989,3.811-13.024,7.101-25.815,7.101
	s-18.827-3.291-25.815-7.101c-7.679-4.186-16.382-8.931-32.997-8.931c-16.605,0-25.304,4.746-32.978,8.932
	c-6.983,3.81-13.014,7.1-25.794,7.1c-12.785,0-18.818-3.291-25.804-7.101c-7.676-4.187-16.376-8.932-32.986-8.932
	c-16.605,0-25.303,4.746-32.977,8.932c-6.982,3.81-13.013,7.1-25.792,7.1c-12.775,0-18.804-3.29-25.785-7.1
	c-6.422-3.504-13.579-7.389-25.47-8.566v-81.56h97.226v40.597c0,4.142,3.358,7.5,7.5,7.5s7.5-3.358,7.5-7.5v-40.597h105.242v16.548
	c0,4.142,3.358,7.5,7.5,7.5s7.5-3.358,7.5-7.5v-16.548h56.625c4.142,0,7.5-3.358,7.5-7.5s-3.358-7.5-7.5-7.5H79.645
	c-0.285,0-0.516-0.231-0.516-0.516v-16.032c0-0.285,0.231-0.516,0.516-0.516h352.71c0.285,0,0.516,0.231,0.516,0.516v16.032
	c0,0.285-0.231,0.516-0.516,0.516h-24.053c-4.142,0-7.5,3.358-7.5,7.5s3.358,7.5,7.5,7.5h16.553v81.559
	C412.951,274.09,405.786,277.975,399.358,281.479z"/>
<path d="M312.113,232.468c-4.142,0-7.5,3.358-7.5,7.5v8.016c0,4.142,3.358,7.5,7.5,7.5s7.5-3.358,7.5-7.5v-8.016
	C319.613,235.826,316.255,232.468,312.113,232.468z"/>
<g>
</g>
<g>
</g>
<g>
</g>
<g>
</g>
<g>
</g>
<g>
</g>
<g>
</g>
<g>
</g>
<g>
</g>
<g>
</g>
<g>
</g>
<g>
</g>
<g>
</g>
<g>
</g>
<g>
</g>
</svg>
