<?xml version="1.0" encoding="iso-8859-1"?>
<!-- Generator: Adobe Illustrator 19.0.0, SVG Export Plug-In . SVG Version: 6.00 Build 0)  -->
<svg version="1.1" id="Capa_1" xmlns="http://www.w3.org/2000/svg" xmlns:xlink="http://www.w3.org/1999/xlink" x="0px" y="0px"
	 viewBox="0 0 512 512" style="enable-background:new 0 0 512 512;" xml:space="preserve">
<path style="fill:#F26B6B;" d="M504.478,344.258H7.522V175.764c0-17.725,14.369-32.094,32.094-32.094h432.768
	c17.725,0,32.094,14.369,32.094,32.094V344.258z"/>
<path style="fill:#E26161;" d="M63.687,143.67H39.616c-17.725,0-32.094,14.369-32.094,32.094v168.494h24.071V175.764
	C31.593,158.039,45.962,143.67,63.687,143.67z"/>
<path style="fill:#9BE8E8;" d="M8.533,167.741c-0.66,2.565-1.011,5.253-1.011,8.023v48.141h48.141v-56.165H8.533z"/>
<path style="fill:#79D1D1;" d="M55.663,167.741H8.533c-0.66,2.565-1.011,5.253-1.011,8.023v48.141h13.372l34.769-34.769V167.741z"/>
<path style="fill:#9BE8E8;" d="M504.478,175.764c0-2.77-0.351-5.459-1.011-8.023h-46.629v56.165h47.64V175.764z"/>
<path style="fill:#79D1D1;" d="M504.478,175.764c0-2.77-0.351-5.459-1.011-8.023h-46.629v56.165h6.687l40.953-40.953V175.764z"/>
<rect x="376.603" y="167.741" style="fill:#9BE8E8;" width="48.141" height="56.165"/>
<polygon style="fill:#79D1D1;" points="424.744,167.741 376.603,167.741 376.603,223.905 385.964,223.905 424.744,185.125 "/>
<rect x="87.757" y="167.741" style="fill:#9BE8E8;" width="48.141" height="56.165"/>
<polygon style="fill:#79D1D1;" points="135.898,167.741 87.757,167.741 87.757,223.905 99.123,223.905 135.898,187.131 "/>
<rect x="167.992" y="167.741" style="fill:#9BE8E8;" width="48.141" height="56.165"/>
<polygon style="fill:#79D1D1;" points="216.133,167.741 167.992,167.741 167.992,223.905 180.027,223.905 216.133,187.8 "/>
<rect x="248.227" y="167.741" style="fill:#9BE8E8;" width="96.282" height="176.517"/>
<g>
	<polygon style="fill:#79D1D1;" points="248.227,167.741 248.227,251.988 332.474,167.741 	"/>
	<polygon style="fill:#79D1D1;" points="248.227,344.258 259.594,344.258 344.509,259.342 344.509,181.782 248.227,278.064 	"/>
	<polygon style="fill:#79D1D1;" points="344.509,344.258 344.509,282.745 282.996,344.258 	"/>
</g>
<circle style="fill:#645BA5;" cx="424.744" cy="328.211" r="40.118"/>
<circle style="fill:#EDECF1;" cx="424.744" cy="328.211" r="16.047"/>
<circle style="fill:#645BA5;" cx="87.757" cy="328.211" r="40.118"/>
<circle style="fill:#EDECF1;" cx="87.757" cy="328.211" r="16.047"/>
<rect x="7.522" y="223.905" style="fill:#EDBC53;" width="240.705" height="48.141"/>
<rect x="7.522" y="223.905" style="fill:#F09C48;" width="24.071" height="48.141"/>
<rect x="344.509" y="223.905" style="fill:#EDBC53;" width="159.969" height="48.141"/>
<path d="M511.928,173.459c-0.148-2.571-0.539-5.155-1.195-7.644c-4.426-17.044-19.94-29.665-38.349-29.665H39.616
	c-18.409,0-33.923,12.622-38.349,29.665C0.416,169.041,0,172.428,0,175.764v168.494c0,4.154,3.368,7.522,7.522,7.522h38.861
	c8.214,14.363,23.677,24.071,41.374,24.071s33.16-9.707,41.374-24.071h254.238c8.214,14.363,23.677,24.071,41.374,24.071
	s33.16-9.707,41.374-24.071h38.36c4.154,0,7.522-3.368,7.522-7.522V175.764C512,174.99,511.972,174.222,511.928,173.459z
	 M496.956,264.524H352.031v-33.097h144.925V264.524z M417.222,216.383h-33.097v-41.12h33.097V216.383z M496.956,175.764v40.619
	H464.36v-41.12h32.582C496.947,175.43,496.956,175.596,496.956,175.764z M39.616,151.192h432.768c7.655,0,14.504,3.52,19.014,9.026
	h-34.559c-4.154,0-7.522,3.368-7.522,7.522v48.643h-17.05v-48.643c0-4.154-3.368-7.522-7.522-7.522h-48.141
	c-4.154,0-7.522,3.368-7.522,7.522v48.643h-17.05v-48.643c0-4.154-3.368-7.522-7.522-7.522h-96.282
	c-4.154,0-7.522,3.368-7.522,7.522v48.643h-17.05v-48.643c0-4.154-3.368-7.522-7.522-7.522h-48.141
	c-4.154,0-7.522,3.368-7.522,7.522v48.643h-17.05v-48.643c0-4.154-3.368-7.522-7.522-7.522H87.757c-4.154,0-7.522,3.368-7.522,7.522
	v48.643h-17.05v-48.643c0-4.154-3.368-7.522-7.522-7.522H20.602C25.113,154.713,31.961,151.192,39.616,151.192z M208.611,216.383
	h-33.097v-41.12h33.097V216.383z M128.376,216.383H95.279v-41.12h33.097V216.383z M15.044,175.764c0-0.168,0.009-0.334,0.013-0.501
	h33.084v41.12H15.044V175.764z M87.757,360.807c-17.973,0-32.595-14.623-32.595-32.596c0-17.973,14.623-32.595,32.595-32.595
	s32.595,14.623,32.595,32.595C120.353,346.184,105.73,360.807,87.757,360.807z M87.757,280.571c-26.268,0-47.64,21.372-47.64,47.64
	c0,2.911,0.277,5.757,0.779,8.525H15.044v-57.167h164.649c4.154,0,7.522-3.368,7.522-7.522s-3.368-7.522-7.522-7.522H15.044v-33.097
	h225.661v33.097h-24.572c-4.154,0-7.522,3.368-7.522,7.522s3.368,7.522,7.522,7.522h24.572v57.167H134.617
	c0.502-2.768,0.779-5.614,0.779-8.525C135.397,301.943,114.025,280.571,87.757,280.571z M255.749,175.263h33.097v161.473h-33.097
	V175.263z M303.89,336.736V175.263h33.097v161.473H303.89z M424.744,360.807c-17.973,0-32.595-14.623-32.595-32.596
	c0-17.973,14.623-32.595,32.595-32.595s32.595,14.623,32.595,32.595C457.34,346.184,442.717,360.807,424.744,360.807z
	 M471.605,336.736c0.502-2.768,0.779-5.614,0.779-8.525c0-26.268-21.372-47.64-47.64-47.64s-47.64,21.372-47.64,47.64
	c0,2.911,0.277,5.757,0.779,8.525h-25.853v-57.167h144.925v57.167H471.605z"/>
<path d="M424.744,304.642c-12.996,0-23.569,10.573-23.569,23.569c0,12.996,10.573,23.569,23.569,23.569s23.569-10.573,23.569-23.569
	C448.313,315.215,437.74,304.642,424.744,304.642z M424.744,336.736c-4.701,0-8.525-3.824-8.525-8.525
	c0-4.701,3.824-8.525,8.525-8.525s8.525,3.824,8.525,8.525C433.269,332.912,429.445,336.736,424.744,336.736z"/>
<path d="M87.757,304.642c-12.996,0-23.569,10.573-23.569,23.569c0,12.996,10.573,23.569,23.569,23.569s23.569-10.573,23.569-23.569
	C111.326,315.215,100.753,304.642,87.757,304.642z M87.757,336.736c-4.701,0-8.525-3.824-8.525-8.525
	c0-4.701,3.824-8.525,8.525-8.525c4.701,0,8.525,3.824,8.525,8.525C96.282,332.912,92.458,336.736,87.757,336.736z"/>
<path d="M320.439,248.477h-1.003c-4.154,0-7.522,3.368-7.522,7.522c0,4.154,3.368,7.522,7.522,7.522h1.003
	c4.154,0,7.522-3.368,7.522-7.522C327.961,251.845,324.593,248.477,320.439,248.477z"/>
<path d="M273.301,248.477h-1.003c-4.154,0-7.522,3.368-7.522,7.522c0,4.154,3.368,7.522,7.522,7.522h1.003
	c4.154,0,7.522-3.368,7.522-7.522C280.823,251.845,277.455,248.477,273.301,248.477z"/>
<g>
</g>
<g>
</g>
<g>
</g>
<g>
</g>
<g>
</g>
<g>
</g>
<g>
</g>
<g>
</g>
<g>
</g>
<g>
</g>
<g>
</g>
<g>
</g>
<g>
</g>
<g>
</g>
<g>
</g>
</svg>
