<?xml version="1.0" encoding="iso-8859-1"?>
<!-- Generator: Adobe Illustrator 19.0.0, SVG Export Plug-In . SVG Version: 6.00 Build 0)  -->
<svg version="1.1" id="Capa_1" xmlns="http://www.w3.org/2000/svg" xmlns:xlink="http://www.w3.org/1999/xlink" x="0px" y="0px"
	 viewBox="0 0 512 512" style="enable-background:new 0 0 512 512;" xml:space="preserve">
<path style="fill:#F42737;" d="M495.713,318.299l-168.03,45.568h-138l-129.86-38.431l-41.754-12.361l13.678-68.692
	c0.46-2.32,1.097-4.577,1.891-6.76c5.308-14.723,17.763-25.966,33.301-29.592l67.563-15.705l37.909-8.819l16.269-52.558
	c6.478-20.94,25.84-35.213,47.762-35.213h154.854c17.805,0,34.262,9.467,43.217,24.858l47.114,80.98
	c3.49,5.987,5.611,12.685,6.196,19.592l1.411,16.457L495.713,318.299z"/>
<path style="fill:#FC4C62;" d="M489.232,237.625H33.635c5.308-14.723,17.763-25.966,33.301-29.591l105.472-24.524l16.269-52.558
	c6.478-20.94,25.84-35.213,47.762-35.213h154.854c17.805,0,34.262,9.467,43.217,24.858l47.114,80.98
	c3.49,5.987,5.611,12.685,6.196,19.592L489.232,237.625z"/>
<path style="fill:#E21E36;" d="M58.497,313.075c0.575,4.336,1.003,8.453,1.327,12.361l-41.754-12.361l13.678-68.692
	c0.46-2.32,1.097-4.577,1.891-6.76c5.308-14.723,17.763-25.966,33.301-29.592l67.563-15.705
	C98.903,200.602,49.072,241.698,58.497,313.075z"/>
<g>
	<path style="fill:#9AA7B8;" d="M415.872,313.077h70.731c14.026,0,25.396,11.371,25.396,25.396l0,0
		c0,14.026-11.371,25.396-25.396,25.396h-38.708"/>
	<path style="fill:#9AA7B8;" d="M69.454,363.87H25.396C11.371,363.87,0,352.499,0,338.473l0,0c0-14.026,11.371-25.396,25.396-25.396
		h80.142"/>
</g>
<path style="fill:#8292A3;" d="M33.102,338.473L33.102,338.473c0-14.026,11.371-25.396,25.396-25.396H25.396
	C11.371,313.077,0,324.448,0,338.473l0,0c0,14.026,11.371,25.396,25.396,25.396h33.102C44.473,363.87,33.102,352.499,33.102,338.473
	z"/>
<path style="fill:#DDB303;" d="M102.403,256.65c0,8.777-5.695,16.217-13.584,18.84c-1.975,0.658-4.075,1.014-6.269,1.014
	c-10.971,0-19.853-8.882-19.853-19.853c0-10.961,8.882-19.853,19.853-19.853c2.194,0,4.295,0.355,6.269,1.014
	C96.708,240.434,102.403,247.884,102.403,256.65z"/>
<path style="fill:#F0C800;" d="M102.403,256.65c0,8.777-5.695,16.217-13.584,18.84c-7.899-2.623-13.584-10.062-13.584-18.84
	c0-8.767,5.684-16.217,13.584-18.839C96.708,240.434,102.403,247.884,102.403,256.65z"/>
<path style="fill:#A0D9F2;" d="M434.907,201.576h-235.28l2.727-8.798l16.269-52.558c2.424-7.858,9.592-13.134,17.816-13.134h144.405
	c6.614,0,12.79,3.553,16.123,9.268L434.907,201.576z"/>
<path style="fill:#F42737;" d="M434.911,209.41h-235.28c-2.489,0-4.831-1.183-6.308-3.186c-1.477-2.003-1.915-4.59-1.179-6.967
	l18.99-61.351c3.454-11.158,13.623-18.657,25.304-18.657h144.406c9.397,0,18.17,5.046,22.896,13.168l37.943,65.216
	c1.411,2.424,1.418,5.417,0.02,7.848C440.305,207.911,437.715,209.41,434.911,209.41z M210.261,193.736h211.023l-31.091-53.438
	c-1.93-3.317-5.512-5.376-9.349-5.376H236.439c-4.769,0-8.921,3.062-10.332,7.617L210.261,193.736z"/>
<path style="fill:#2C4046;" d="M322.873,241.502h-29.257c-4.328,0-7.837-3.509-7.837-7.837c0-4.328,3.509-7.837,7.837-7.837h29.257
	c4.328,0,7.837,3.509,7.837,7.837C330.71,237.993,327.201,241.502,322.873,241.502z"/>
<path style="fill:#F42737;" d="M316.604,209.41c-4.328,0-7.837-3.509-7.837-7.837v-74.488c0-4.328,3.509-7.837,7.837-7.837
	s7.837,3.509,7.837,7.837v74.488C324.441,205.901,320.932,209.41,316.604,209.41z"/>
<path style="fill:#FC4C62;" d="M444.082,111.412h-52.787c-4.328,0-7.837-3.509-7.837-7.837s3.509-7.837,7.837-7.837h52.787
	c4.328,0,7.837,3.509,7.837,7.837S448.41,111.412,444.082,111.412z"/>
<g>
	<circle style="fill:#2C4046;" cx="128.355" cy="354.944" r="61.32"/>
	<circle style="fill:#2C4046;" cx="389.005" cy="354.944" r="61.32"/>
</g>
<g>
	<circle style="fill:#9AA7B8;" cx="128.355" cy="354.944" r="27.483"/>
	<circle style="fill:#9AA7B8;" cx="389.005" cy="354.944" r="27.483"/>
</g>
<g>
	<path style="fill:#1D2C30;" d="M128.354,390.269c-19.475,0-35.32-15.844-35.32-35.32s15.845-35.32,35.32-35.32
		s35.32,15.844,35.32,35.32S147.829,390.269,128.354,390.269z M128.354,335.304c-10.832,0-19.646,8.813-19.646,19.646
		c0,10.833,8.814,19.646,19.646,19.646c10.832,0,19.646-8.813,19.646-19.646C148,344.117,139.187,335.304,128.354,335.304z"/>
	<path style="fill:#1D2C30;" d="M389.002,390.269c-19.475,0-35.32-15.844-35.32-35.32s15.845-35.32,35.32-35.32
		c19.475,0,35.32,15.844,35.32,35.32S408.477,390.269,389.002,390.269z M389.002,335.304c-10.832,0-19.646,8.813-19.646,19.646
		c0,10.833,8.814,19.646,19.646,19.646s19.646-8.813,19.646-19.646C408.648,344.117,399.834,335.304,389.002,335.304z"/>
</g>
<path style="fill:#FC4C62;" d="M303.02,335.542h-89.861c-4.328,0-7.837-3.509-7.837-7.837s3.509-7.837,7.837-7.837h89.861
	c4.328,0,7.837,3.509,7.837,7.837S307.348,335.542,303.02,335.542z"/>
<g>
</g>
<g>
</g>
<g>
</g>
<g>
</g>
<g>
</g>
<g>
</g>
<g>
</g>
<g>
</g>
<g>
</g>
<g>
</g>
<g>
</g>
<g>
</g>
<g>
</g>
<g>
</g>
<g>
</g>
</svg>
