<?xml version="1.0" encoding="iso-8859-1"?>
<!-- Generator: Adobe Illustrator 19.0.0, SVG Export Plug-In . SVG Version: 6.00 Build 0)  -->
<svg version="1.1" id="Capa_1" xmlns="http://www.w3.org/2000/svg" xmlns:xlink="http://www.w3.org/1999/xlink" x="0px" y="0px"
	 viewBox="0 0 512 512" style="enable-background:new 0 0 512 512;" xml:space="preserve">
<path style="fill:#DFEAEF;" d="M395.23,504.492H116.77c-10.324,0-18.693-8.369-18.693-18.693V26.201
	c0-10.324,8.369-18.693,18.693-18.693h278.46c10.324,0,18.693,8.369,18.693,18.693v459.598
	C413.923,496.123,405.554,504.492,395.23,504.492z"/>
<path style="fill:#BFCFD6;" d="M395.23,7.508h-33.915c0.226,1.163,0.353,2.362,0.353,3.591v459.598
	c0,10.324-8.369,18.693-18.693,18.693H98.429c1.675,8.605,9.245,15.102,18.34,15.102H395.23c10.324,0,18.693-8.369,18.693-18.693
	V26.201C413.923,15.877,405.554,7.508,395.23,7.508z"/>
<path style="fill:#3C89AA;" d="M355.011,134.687H156.989c-4.42,0-8.003-3.583-8.003-8.003V75.345c0-4.42,3.583-8.003,8.003-8.003
	h198.022c4.42,0,8.003,3.583,8.003,8.003v51.339C363.014,131.104,359.431,134.687,355.011,134.687z"/>
<path style="fill:#2D739B;" d="M355.011,67.342h-44.252v45.098c0,4.42-3.583,8.003-8.003,8.003h-153.77v6.241
	c0,4.42,3.583,8.003,8.003,8.003h198.022c4.42,0,8.003-3.583,8.003-8.003V75.345C363.014,70.925,359.431,67.342,355.011,67.342z"/>
<circle style="fill:#FC5F61;" cx="256" cy="365.43" r="48.43"/>
<path d="M148.986,202.743h214.028c4.147,0,7.508-3.362,7.508-7.508s-3.362-7.508-7.508-7.508H148.986
	c-4.147,0-7.508,3.362-7.508,7.508S144.839,202.743,148.986,202.743z"/>
<path d="M148.986,248.375h214.028c4.147,0,7.508-3.362,7.508-7.508s-3.362-7.508-7.508-7.508H148.986
	c-4.147,0-7.508,3.362-7.508,7.508S144.839,248.375,148.986,248.375z"/>
<path d="M148.986,467.624h214.028c4.147,0,7.508-3.362,7.508-7.508s-3.362-7.508-7.508-7.508H148.986
	c-4.147,0-7.508,3.362-7.508,7.508S144.839,467.624,148.986,467.624z"/>
<path d="M413.923,109.223c-4.147,0-7.508,3.362-7.508,7.508v369.068c0,6.167-5.017,11.185-11.185,11.185H116.77
	c-6.167,0-11.185-5.017-11.185-11.185V432.3c0-4.147-3.362-7.508-7.508-7.508c-4.147,0-7.508,3.362-7.508,7.508v53.499
	c0,14.447,11.754,26.201,26.201,26.201h278.46c14.447,0,26.201-11.754,26.201-26.201V116.731
	C421.431,112.585,418.07,109.223,413.923,109.223z"/>
<path d="M395.23,0H116.77c-14.447,0-26.201,11.754-26.201,26.201v366.055c0,4.147,3.362,7.508,7.508,7.508
	c4.147,0,7.508-3.362,7.508-7.508V26.201c0-6.167,5.017-11.185,11.185-11.185h278.46c6.167,0,11.185,5.018,11.185,11.185v50.486
	c0,4.147,3.362,7.508,7.508,7.508s7.508-3.362,7.508-7.508V26.201C421.431,11.754,409.678,0,395.23,0z"/>
<path d="M156.989,142.195h198.023c8.553,0,15.511-6.958,15.511-15.511V75.345c0-8.553-6.958-15.511-15.511-15.511H156.989
	c-8.553,0-15.511,6.958-15.511,15.511v51.339C141.478,135.237,148.436,142.195,156.989,142.195z M156.494,75.345
	c0-0.273,0.222-0.495,0.495-0.495h198.023c0.273,0,0.495,0.222,0.495,0.495v51.339c0,0.273-0.222,0.495-0.495,0.495H156.989
	c-0.273,0-0.495-0.222-0.495-0.495V75.345z"/>
<path d="M200.061,365.434c0,30.845,25.094,55.939,55.939,55.939s55.939-25.094,55.939-55.939S286.845,309.495,256,309.495
	S200.061,334.589,200.061,365.434z M296.923,365.434c0,22.565-18.358,40.923-40.923,40.923s-40.923-18.358-40.923-40.923
	s18.358-40.923,40.923-40.923S296.923,342.869,296.923,365.434z"/>
<g>
</g>
<g>
</g>
<g>
</g>
<g>
</g>
<g>
</g>
<g>
</g>
<g>
</g>
<g>
</g>
<g>
</g>
<g>
</g>
<g>
</g>
<g>
</g>
<g>
</g>
<g>
</g>
<g>
</g>
</svg>
