<svg height="511pt" viewBox="-34 0 511 511.998" width="511pt" xmlns="http://www.w3.org/2000/svg"><path d="m143.464844 60.738281v-48.242187c0-2.761719 2.238281-5 4.996094-5h98.335937c2.757813 0 4.996094 2.238281 4.996094 5v48.242187c0 2.761719-2.238281 5-4.996094 5h-98.335937c-2.757813 0-4.996094-2.238281-4.996094-5zm0 0" fill="#838383"/><path d="m234.964844 65.738281v-58.242187h11.832031c2.757813 0 4.996094 2.238281 4.996094 5v48.242187c0 2.761719-2.238281 5-4.996094 5zm0 0" fill="#5a5a5a"/><path d="m179.925781 65.738281h35.40625v37.128907h-35.40625zm0 0" fill="#bfbfbf"/><path d="m197.628906 65.738281h17.703125v37.128907h-17.703125zm0 0" fill="#acacac"/><path d="m80.972656 320.390625-70.578125-43.492187c-2.304687-1.421876-3.058593-4.414063-1.707031-6.753907l8.589844-14.890625c1.417968-2.457031 4.59375-3.242187 6.992187-1.734375l56.703125 35.6875zm0 0" fill="#ffcd6b"/><path d="m80.972656 433.039062-70.578125-43.492187c-2.304687-1.421875-3.058593-4.414063-1.707031-6.757813l8.589844-14.886718c1.417968-2.457032 4.59375-3.246094 6.992187-1.734375l56.703125 35.6875zm0 0" fill="#ffcd6b"/><path d="m146.785156 504.503906h-65.8125v-320.214844c0-2.757812 2.238282-4.996093 5-4.996093h60.8125zm0 0" fill="#bfbfbf"/><path d="m123.832031 179.292969h22.953125v325.210937h-22.953125zm0 0" fill="#acacac"/><path d="m146.785156 179.292969h288.886719v325.210937h-288.886719zm0 0" fill="#ffcd6b"/><path d="m413.300781 179.292969h22.371094v325.210937h-22.371094zm0 0" fill="#ffc143"/><path d="m146.785156 330.660156h288.886719v87.15625h-288.886719zm0 0" fill="#838383"/><path d="m146.785156 417.347656h288.886719v87.15625h-288.886719zm0 0" fill="#838383"/><path d="m413.300781 330.660156h22.371094v87.15625h-22.371094zm0 0" fill="#5a5a5a"/><path d="m413.300781 417.347656h22.371094v87.15625h-22.371094zm0 0" fill="#5a5a5a"/><path d="m333.148438 364.0625h-83.839844c-2.761719 0-5-2.238281-5-5v-28.402344h93.835937v28.402344c0 2.761719-2.234375 5-4.996093 5zm0 0" fill="#bfbfbf"/><path d="m333.148438 450.75h-83.839844c-2.761719 0-5-2.238281-5-4.996094v-28.40625h93.835937v28.40625c0 2.757813-2.234375 4.996094-4.996093 4.996094zm0 0" fill="#bfbfbf"/><path d="m333.148438 364.0625h-14.78125v-33.402344h19.78125v28.40625c-.003907 2.757813-2.238282 4.996094-5 4.996094zm0 0" fill="#acacac"/><path d="m333.148438 450.75h-14.78125v-33.398438h19.78125v28.402344c-.003907 2.757813-2.238282 4.996094-5 4.996094zm0 0" fill="#acacac"/><path d="m146.785156 179.292969h288.886719v100.925781h-288.886719zm0 0" fill="#bfbfbf"/><path d="m413.300781 179.292969h22.371094v100.925781h-22.371094zm0 0" fill="#acacac"/><path d="m188.535156 211.636719h74.179688v36.238281h-74.179688zm0 0" fill="#9ae7fd"/><path d="m244.308594 211.636719h18.40625v36.238281h-18.40625zm0 0" fill="#64dcfc"/><path d="m296.125 218.136719c0 3.453125-2.796875 6.25-6.25 6.25s-6.253906-2.796875-6.253906-6.25c0-3.457031 2.800781-6.253907 6.253906-6.253907s6.25 2.796876 6.25 6.253907zm0 0"/><path d="m318.367188 218.136719c0 3.453125-2.800782 6.25-6.253907 6.25s-6.253906-2.796875-6.253906-6.25c0-3.457031 2.800781-6.253907 6.253906-6.253907s6.253907 2.796876 6.253907 6.253907zm0 0"/><path d="m340.605469 218.136719c0 3.453125-2.796875 6.25-6.253907 6.25-3.453124 0-6.25-2.796875-6.25-6.25 0-3.457031 2.796876-6.253907 6.25-6.253907 3.457032 0 6.253907 2.796876 6.253907 6.253907zm0 0"/><path d="m296.125 241.375c0 3.453125-2.796875 6.253906-6.25 6.253906s-6.253906-2.800781-6.253906-6.253906 2.800781-6.253906 6.253906-6.253906 6.25 2.800781 6.25 6.253906zm0 0"/><path d="m318.367188 241.375c0 3.453125-2.800782 6.253906-6.253907 6.253906s-6.253906-2.800781-6.253906-6.253906 2.800781-6.253906 6.253906-6.253906 6.253907 2.800781 6.253907 6.253906zm0 0"/><path d="m340.605469 241.375c0 3.453125-2.796875 6.253906-6.253907 6.253906-3.453124 0-6.25-2.800781-6.25-6.253906s2.796876-6.253906 6.25-6.253906c3.457032 0 6.253907 2.800781 6.253907 6.253906zm0 0"/><path d="m398.820312 229.753906c0 9.882813-8.011718 17.894532-17.894531 17.894532-9.882812 0-17.890625-8.011719-17.890625-17.894532 0-9.882812 8.007813-17.890625 17.890625-17.890625 9.882813 0 17.894531 8.007813 17.894531 17.890625zm0 0" fill="#ff5757"/><path d="m398.816406 229.753906c0 9.878906-8.007812 17.894532-17.886718 17.894532-8.246094 0-15.183594-5.578126-17.265626-13.164063 2.21875.988281 4.679688 1.539063 7.269532 1.539063 9.875 0 17.886718-8.007813 17.886718-17.882813 0-1.652344-.222656-3.242187-.640624-4.75 6.265624 2.789063 10.636718 9.066406 10.636718 16.363281zm0 0" fill="#ff4343"/><path d="m146.785156 179.292969v-71.425781c0-2.761719 2.238282-5 5-5h111.097656l12.398438 32.226562h155.390625c2.761719 0 5 2.234375 5 4.996094v39.203125zm0 0" fill="#838383"/><path d="m435.671875 179.292969h-22.371094v-44.199219h17.371094c2.761719 0 5 2.238281 5 5zm0 0" fill="#5a5a5a"/><path d="m188.535156 255.371094h74.179688c4.140625 0 7.496094-3.355469 7.496094-7.496094v-36.238281c0-4.144531-3.355469-7.5-7.496094-7.5h-74.179688c-4.140625 0-7.496094 3.355469-7.496094 7.5v36.238281c0 4.140625 3.355469 7.496094 7.496094 7.496094zm7.5-36.238282h59.179688v21.246094h-59.179688zm0 0"/><path d="m380.925781 255.144531c14 0 25.390625-11.390625 25.390625-25.390625s-11.390625-25.390625-25.390625-25.390625-25.390625 11.390625-25.390625 25.390625 11.390625 25.390625 25.390625 25.390625zm0-35.785156c5.730469 0 10.394531 4.664063 10.394531 10.394531 0 5.734375-4.664062 10.394532-10.394531 10.394532s-10.394531-4.660157-10.394531-10.394532c0-5.730468 4.664062-10.394531 10.394531-10.394531zm0 0"/><path d="m430.671875 127.59375h-54.539063c-4.140624 0-7.496093 3.359375-7.496093 7.5s3.355469 7.496094 7.496093 7.496094h52.039063v29.207031h-273.886719v-61.429687h103.449219l10.546875 27.417968c1.113281 2.898438 3.898438 4.808594 7 4.808594h66.527344c4.140625 0 7.5-3.359375 7.5-7.5s-3.355469-7.496094-7.5-7.496094h-61.378906l-6.628907-17.230468h126.882813c4.140625 0 7.5-3.355469 7.5-7.5 0-4.140626-3.355469-7.496094-7.5-7.496094h-177.851563v-22.136719h23.964844c6.890625 0 12.496094-5.605469 12.496094-12.496094v-48.242187c0-6.890625-5.605469-12.496094-12.496094-12.496094h-98.335937c-6.890626 0-12.496094 5.605469-12.496094 12.496094v48.242187c0 6.890625 5.605468 12.496094 12.496094 12.496094h23.964843v22.136719h-20.640625c-6.894531 0-12.496094 5.605468-12.496094 12.496094v63.925781h-53.320312c-6.890625 0-12.496094 5.605469-12.496094 12.496093v17.152344c0 4.140625 3.359375 7.5 7.5 7.5s7.496094-3.359375 7.496094-7.5v-14.652344h50.820312v310.214844h-50.820312v-261.320312c0-4.144532-3.355469-7.5-7.496094-7.5s-7.5 3.355468-7.5 7.5v39.945312l-45.207031-28.453125c-2.863281-1.800781-6.382813-2.367187-9.664063-1.554687-3.277343.8125-6.128906 2.957031-7.816406 5.882812l-8.59375 14.890625c-3.402344 5.894531-1.527344 13.3125 4.269532 16.882813l67.011718 41.296875v63.699219l-45.207031-28.453126c-2.863281-1.800781-6.382813-2.363281-9.664063-1.550781-3.277343.8125-6.128906 2.957031-7.816406 5.882813l-8.59375 14.890625c-3.402344 5.894531-1.527344 13.3125 4.269532 16.882812l67.011718 41.296875v67.277344c0 4.140625 3.359375 7.496094 7.5 7.496094h354.695313c4.140625 0 7.5-3.355469 7.5-7.496094v-364.410156c0-6.890625-5.605469-12.496094-12.496094-12.496094zm-222.835937-32.222656h-20.414063v-22.136719h20.414063zm-56.875-37.132813v-43.242187h93.335937v43.242187zm-77.488282 361.375-57.078125-35.175781 6.078125-10.539062 51 32.097656zm0-112.648437-57.078125-35.175782 6.078125-10.539062 51 32.097656zm354.699219 190.039062h-273.886719v-71.691406h82.527344v20.441406c0 6.890625 5.605469 12.492188 12.496094 12.492188h83.839844c6.890624 0 12.496093-5.605469 12.496093-12.492188v-20.441406h82.527344zm-176.363281-53.75v-17.941406h78.839844v17.941406zm176.363281-33.402344h-273.886719v-71.691406h82.527344v20.90625c0 6.890625 5.605469 12.496094 12.496094 12.496094h83.839844c6.890624 0 12.496093-5.609375 12.496093-12.496094v-20.90625h82.527344zm-176.363281-53.285156v-18.40625h78.839844v18.40625zm176.363281-33.402344h-273.886719v-35.449218h273.886719zm0-50.445312h-273.886719v-85.929688h273.886719zm0 0"/></svg>