<svg id="Capa_1" enable-background="new 0 0 512 512" height="512" viewBox="0 0 512 512" width="512" xmlns="http://www.w3.org/2000/svg" xmlns:xlink="http://www.w3.org/1999/xlink"><linearGradient id="lg1"><stop offset="0" stop-color="#43386b"/><stop offset="1" stop-color="#7662bd"/></linearGradient><linearGradient id="SVGID_1_" gradientTransform="matrix(-1 0 0 1 4217.018 0)" gradientUnits="userSpaceOnUse" x1="4096.638" x2="4112.291" xlink:href="#lg1" y1="326.423" y2="299.31"/><linearGradient id="SVGID_2_" gradientTransform="matrix(-1 0 0 1 4217.018 0)" gradientUnits="userSpaceOnUse" x1="3908.856" x2="3924.509" xlink:href="#lg1" y1="434.838" y2="407.725"/><linearGradient id="SVGID_3_" gradientTransform="matrix(-1 0 0 1 4368 0)" gradientUnits="userSpaceOnUse" x1="4160.045" x2="4198.295" y1="208.67" y2="208.67"><stop offset="0" stop-color="#dea861"/><stop offset="1" stop-color="#cc8241"/></linearGradient><linearGradient id="SVGID_4_" gradientTransform="matrix(-1 0 0 1 4368 0)" gradientUnits="userSpaceOnUse" x1="4115.12" x2="4258.367" y1="38.517" y2="121.22"><stop offset="0" stop-color="#dea861"/><stop offset="1" stop-color="#ebcba0"/></linearGradient><linearGradient id="SVGID_5_" gradientUnits="userSpaceOnUse" x1="416.728" x2="277.059" y1="430.756" y2="160.356"><stop offset="0" stop-color="#e37a34"/><stop offset="1" stop-color="#ffc538"/></linearGradient><linearGradient id="SVGID_6_" gradientUnits="userSpaceOnUse" x1="349.924" x2="349.924" xlink:href="#lg1" y1="323.663" y2="220.949"/><linearGradient id="SVGID_7_" gradientUnits="userSpaceOnUse" x1="280.609" x2="280.609" xlink:href="#lg1" y1="527.62" y2="390.254"/><linearGradient id="SVGID_8_" gradientUnits="userSpaceOnUse" x1="92.827" x2="92.827" xlink:href="#lg1" y1="419.205" y2="281.839"/><linearGradient id="SVGID_9_" gradientUnits="userSpaceOnUse" x1="345" x2="363.383" xlink:href="#lg1" y1="450.742" y2="450.742"/><linearGradient id="SVGID_10_" gradientUnits="userSpaceOnUse" x1="414.627" x2="414.627" y1="411.322" y2="374.389"><stop offset="0" stop-color="#43386b"/><stop offset="1" stop-color="#594a8e"/></linearGradient><linearGradient id="SVGID_11_" gradientUnits="userSpaceOnUse" x1="232.633" x2="232.633" xlink:href="#lg1" y1="327.747" y2="235.748"/><g><path d="m67.465 295.761 36.169-20.796.001.003c6.594-3.494 15.064-2.997 24.306 2.339 21.026 12.139 38.071 44.707 38.071 72.741 0 15.413-5.159 26.232-13.292 30.846l.006.012-34.727 19.991z" fill="url(#SVGID_1_)"/><path d="m255.246 404.175 36.169-20.796.001.003c6.594-3.494 15.064-2.996 24.305 2.339 21.026 12.139 38.071 44.707 38.071 72.742 0 15.413-5.159 26.232-13.292 30.846l.006.012-34.727 19.991z" fill="url(#SVGID_2_)"/><g><path d="m36.133 250.791v-173.488l278.452 11.94v173.487c0 3.975-1.966 7.951-5.901 10.222l-110.306 63.685c-7.845 4.529-17.511 4.529-25.356 0l-130.988-75.624c-3.935-2.272-5.902-6.247-5.901-10.222z" fill="url(#SVGID_3_)"/><path d="m308.683 79.023-130.988-75.626c-7.845-4.529-17.511-4.529-25.356 0l-110.305 63.685c-7.868 4.543-7.868 15.899 0 20.442l130.988 75.626c7.845 4.529 17.511 4.529 25.356 0l110.306-63.685c7.868-4.543 7.868-15.899-.001-20.442z" fill="url(#SVGID_4_)"/><path d="m266.211 54.502-140.687 81.225-37.319-21.546 140.687-81.226z" fill="#dea861"/><path d="m243.906 41.613-140.687 81.225 7.31 4.221 140.687-81.226z" fill="#cc8241"/><path d="m125.524 135.727v30.82l-37.319-21.546v-30.82z" fill="#ba5c25"/></g><path d="m461.489 304.602-44.229-25.535-19.015-79.719c-3.196-13.398-11.764-24.89-23.692-31.776l-57.326-33.138c-3.434-1.984-7.355-1.405-10.084.746l-100.208 57.855-20.094 11.601 163.083 289.527 120.45-69.513v-104.659c0-6.348-3.387-12.214-8.885-15.389z" fill="url(#SVGID_5_)"/><path d="m363.769 411.975 16.8-9.699c1.001-.578 2.253.144 2.253 1.301v14.748c0 1.999-1.066 3.846-2.798 4.846l-16.8 9.699c-1.001.578-2.253-.145-2.253-1.301v-14.748c.001-1.999 1.067-3.847 2.798-4.846z" fill="#e9e5f6"/><path d="m446.442 364.197 16.8-9.699c1.001-.578 2.253.145 2.253 1.3v14.748c0 1.999-1.067 3.846-2.798 4.846l-16.8 9.699c-1.001.578-2.253-.144-2.253-1.3v-14.748c0-1.999 1.066-3.846 2.798-4.846z" fill="#e9e5f6"/><path d="m296.802 348.575-18.999-79.651c-3.196-13.398-11.764-24.89-23.692-31.776l-57.326-33.138c-6-3.464-13.5.866-13.5 7.794v112.04c0 7.892-8.552 12.818-15.379 8.857l-123.193-71.48c-3.894-2.249-8.761.562-8.761 5.058v32.822c0 8.218 4.384 15.811 11.501 19.92l244.687 141.709 57.784 33.433v-104.659c0-6.348-3.387-12.215-8.885-15.389z" fill="#ffc538"/><path d="m394.557 208.169-102.744 59.32 13.478 60.328 102.744-59.319z" fill="url(#SVGID_6_)"/><path d="m242.538 434.69c0-28.035 17.045-40.92 38.071-28.781s38.071 44.707 38.071 72.742-17.045 40.92-38.071 28.781c-21.027-12.14-38.071-44.707-38.071-72.742z" fill="url(#SVGID_7_)"/><path d="m256.905 442.985c0-17.455 10.612-25.478 23.703-17.919 13.091 7.558 23.703 27.835 23.703 45.29s-10.612 25.477-23.703 17.919c-13.091-7.559-23.703-27.835-23.703-45.29z" fill="#e9e5f6"/><ellipse cx="280.608" cy="456.67" fill="#7662bd" rx="10.488" ry="18.539" transform="matrix(.92 -.392 .392 .92 -156.404 146.333)"/><path d="m54.756 326.275c0-28.035 17.045-40.92 38.071-28.781s38.071 44.707 38.071 72.741c0 28.035-17.045 40.92-38.071 28.781s-38.071-44.706-38.071-72.741z" fill="url(#SVGID_8_)"/><ellipse cx="92.827" cy="348.255" fill="#e9e5f6" rx="20.587" ry="36.389" transform="matrix(.92 -.392 .392 .92 -128.949 64.153)"/><ellipse cx="92.827" cy="348.255" fill="#7662bd" rx="10.488" ry="18.539" transform="matrix(.92 -.392 .392 .92 -128.949 64.153)"/><path d="m469.982 405.24-123.577 67.661-22.775-10.945v26.491l19.538 11.281c3.449 1.991 7.699 1.991 11.148 0l119.402-68.937c1.554-.897 2.331-2.467 2.331-4.037v-26.492z" fill="url(#SVGID_9_)"/><path d="m328.914 458.904 20.96 12.101 120.442-69.537v-7.207l3.401 1.964c3.108 1.794 3.108 6.281 0 8.075l-119.402 68.937c-3.449 1.991-7.699 1.991-11.148 0l-19.539-11.281z" fill="#a996eb"/><path d="m389.374 398.955 50.507-29.16v8.662c0 5.504-2.936 10.59-7.703 13.341l-35.217 20.333c-3.372 1.947-7.587-.487-7.587-4.381z" fill="url(#SVGID_10_)"/><path d="m253.22 263.345c-1.06-5.176-4.285-9.65-8.861-12.291l-46.265-26.752v67.285l69.077 39.882z" fill="url(#SVGID_11_)"/></g></svg>