<svg id="Capa_1" enable-background="new 0 0 512 512" height="512" viewBox="0 0 512 512" width="512" xmlns="http://www.w3.org/2000/svg"><g><g><path d="m376 326v-80l-126 80v-80c-8.321 5.547-116.114 77.409-120 80v-80c-7.996 5.33-106.716 71.139-120 80v100h492v-180z" fill="#eefaff"/><path d="m10 426h492v60h-492z" fill="#ffda8f"/><path d="m336 26h120c0 22.09-17.91 40-40 40h-45.55c-6.93 11.91-19.68 20-34.45 20h-120c0-22.09 17.91-40 40-40h45.55c6.93-11.91 19.68-20 34.45-20z" fill="#eefaff"/><path d="m296 366v120h120c0-14.518 0-105.386 0-120-14.518 0-105.386 0-120 0z" fill="#b3f1ff"/><path d="m233.64 166 7.79 85.71-66.91 44.61 11.84-130.32z" fill="#c1b0b5"/><path d="m230 126 3.64 40h-47.28l3.64-40z" fill="#ff9256"/><path d="m96 46h80c0 22.09-17.91 40-40 40h-80c0-22.09 17.91-40 40-40z" fill="#eefaff"/><path d="m90 366v120h120c0-14.518 0-105.386 0-120-14.518 0-105.386 0-120 0z" fill="#b3f1ff"/><path d="m93.64 166 8.93 98.29-69.34 46.22 13.13-144.51z" fill="#c1b0b5"/><path d="m90 126 3.64 40h-47.28l3.64-40z" fill="#ff9256"/></g><g><path d="m56 96h80c27.57 0 50-22.43 50-50 0-5.523-4.477-10-10-10h-80c-27.57 0-50 22.43-50 50 0 5.523 4.477 10 10 10zm40-40.01h68.287c-4.128 11.651-15.249 20.01-28.287 20.01h-68.287c4.128-11.641 15.249-20 28.287-20.01z"/><path d="m216 96h120c15.637 0 30.402-7.537 39.792-20h40.208c27.57 0 50-22.43 50-50 0-5.523-4.477-10-10-10h-120c-15.637 0-30.402 7.537-39.792 20h-40.208c-27.57 0-50 22.43-50 50 0 5.523 4.477 10 10 10zm40-40h45.55c3.561 0 6.853-1.893 8.643-4.971 5.476-9.41 15.123-15.029 25.807-15.039h108.287c-4.128 11.651-15.249 20.01-28.287 20.01h-45.55c-3.561 0-6.853 1.893-8.643 4.971-5.476 9.41-15.123 15.029-25.807 15.029h-108.287c4.128-11.641 15.249-20 28.287-20z"/><circle cx="502" cy="337" r="10"/><path d="m506.816 237.236c-3.197-1.756-7.097-1.633-10.176.322l-110.64 70.248v-61.806c0-3.648-1.986-7.006-5.184-8.764-3.196-1.756-7.097-1.633-10.176.322l-110.64 70.248v-61.806c0-3.688-2.029-7.076-5.28-8.816-1.465-.784-3.071-1.156-4.675-1.163-1.908-20.98-7.551-83.046-10.086-110.927-.469-5.151-4.787-9.094-9.959-9.094h-40c-5.172 0-9.49 3.943-9.959 9.094-1.889 20.781-13.707 150.818-15.047 165.559l-24.994 16.662v-61.315c0-3.688-2.03-7.077-5.282-8.817-3.251-1.739-7.197-1.549-10.266.497l-13.445 8.963c-2.311-25.425-8.884-97.74-11.048-121.549-.469-5.151-4.787-9.094-9.959-9.094h-40c-5.172 0-9.49 3.943-9.959 9.094-.938 10.318-15.269 168-16.338 179.758l-19.248 12.826c-2.783 1.855-4.455 4.978-4.455 8.322v160c0 5.523 4.477 10 10 10h492c5.523 0 10-4.477 10-10v-104c0-5.523-4.477-10-10-10s-10 4.477-10 10v34h-66v-50c0-5.523-4.477-10-10-10h-120c-5.523 0-10 4.477-10 10v50h-66v-50c0-5.523-4.477-10-10-10h-120c-5.523 0-10 4.477-10 10v50h-60v-84.647c146.203-97.469-28.398 18.932 100-66.666v61.313c0 3.688 2.03 7.077 5.281 8.817 3.251 1.739 7.196 1.55 10.266-.497l104.453-69.638v61.318c0 3.648 1.986 7.006 5.184 8.764 3.196 1.757 7.097 1.633 10.176-.322l110.64-70.248v61.806c0 3.648 1.986 7.006 5.184 8.764 3.196 1.757 7.097 1.633 10.176-.322l110.64-70.248v27.806c0 5.523 4.477 10 10 10s10-4.477 10-10v-46c0-3.648-1.986-7.006-5.184-8.764zm-14.816 198.764v40h-66v-40zm-86 40h-40v-100h40zm-100-100h40v100h-40zm-20 60v40h-66v-40zm-86 40h-40v-100h40zm-100-100h40v100h-40zm-20 60v40h-60v-40zm-24.504-260h29.008l7.568 83.265-46.991 31.326zm25.373-40 1.818 20h-25.373l1.818-20zm140 0 1.818 20h-25.373l1.818-20zm-25.373 40h29.009l6.427 70.693-44.561 29.708z"/></g></g></svg>