<svg height="512pt" viewBox="0 0 512 512" width="512pt" xmlns="http://www.w3.org/2000/svg"><path d="m512 256c0 141.386719-114.613281 256-256 256s-256-114.613281-256-256 114.613281-256 256-256 256 114.613281 256 256zm0 0" fill="#ffe767"/><path d="m512 256c0-20.832031-2.507812-41.078125-7.203125-60.46875l-82.082031-82.707031c-5.519532-6.929688-14.023438-11.371094-23.566406-11.371094h-286.296876c-16.625 0-30.105468 13.480469-30.105468 30.109375v248.875c0 9.1875 4.117187 17.414062 10.601562 22.9375l101.847656 101.339844c19.492188 4.75 39.851563 7.285156 60.804688 7.285156 141.386719 0 256-114.613281 256-256zm0 0" fill="#ffd000"/><path d="m399.148438 410.546875h-286.296876c-16.625 0-30.105468-13.480469-30.105468-30.109375v-248.875c0-16.628906 13.480468-30.109375 30.105468-30.109375h286.296876c16.625 0 30.105468 13.480469 30.105468 30.109375v248.875c0 16.628906-13.480468 30.109375-30.105468 30.109375zm0 0" fill="#00eccf"/><path d="m429.25 131.558594v248.882812c0 16.628906-13.480469 30.109375-30.101562 30.109375h-143.148438v-309.101562h143.148438c16.621093 0 30.101562 13.480469 30.101562 30.109375zm0 0" fill="#00cab1"/><path d="m119.832031 137h272.332031v238h-272.332031zm0 0" fill="#00429b"/><path d="m256 137h136.171875v238h-136.171875zm0 0" fill="#002659"/><path d="m330.25 284.40625c0 39.902344-32.347656 72.25-72.25 72.25s-72.25-32.347656-72.25-72.25 32.347656-72.25 72.25-72.25 72.25 32.347656 72.25 72.25zm0 0" fill="#002659"/><path d="m315.40625 284.40625c0 32.808594-26.597656 59.40625-59.40625 59.40625s-59.40625-26.597656-59.40625-59.40625 26.597656-59.40625 59.40625-59.40625 59.40625 26.597656 59.40625 59.40625zm0 0" fill="#ff6339"/><g fill="#fff5ca"><path d="m242.03125 263.53125c0 7.273438-5.894531 13.167969-13.164062 13.167969-7.273438 0-13.167969-5.894531-13.167969-13.167969 0-7.269531 5.894531-13.164062 13.167969-13.164062 7.269531 0 13.164062 5.894531 13.164062 13.164062zm0 0"/><path d="m174.367188 156.644531h7.019531l15.539062 40.859375h-8.171875l-3.796875-10.1875h-14.273437l-3.742188 10.1875h-8.171875zm9.148437 25.09375-5.636719-16.058593-5.871094 16.058593zm0 0"/><path d="m201.414062 197.507812v-40.863281h7.941407v33.898438h20.832031v6.964843zm0 0"/><path d="m246.648438 156.644531h7.023437l15.535156 40.859375h-8.171875l-3.796875-10.1875h-14.273437l-3.738282 10.1875h-8.171874zm9.152343 25.09375-5.640625-16.058593-5.871094 16.058593zm0 0"/></g><path d="m256 162.78125v24.539062h1.238281l3.800781 10.191407h8.171876zm0 0" fill="#ffe767"/><path d="m273.695312 197.507812v-40.863281h18.070313c1.878906 0 3.617187.394531 5.207031 1.183594 1.59375.785156 2.964844 1.820313 4.117188 3.105469 1.148437 1.285156 2.050781 2.742187 2.703125 4.375.652343 1.628906.980469 3.269531.980469 4.917968 0 2.648438-.664063 5.058594-1.988282 7.222657-1.320312 2.167969-3.113281 3.734375-5.378906 4.691406l9.324219 15.367187h-8.921875l-8.34375-13.699218h-7.828125v13.699218zm7.941407-20.660156h9.957031c.730469 0 1.410156-.175781 2.042969-.519531.632812-.347656 1.179687-.816406 1.640625-1.410156.460937-.59375.824218-1.296875 1.09375-2.101563.269531-.804687.402344-1.667968.402344-2.589844 0-.957031-.152344-1.839843-.460938-2.648437-.304688-.804687-.71875-1.503906-1.234375-2.097656-.519531-.59375-1.113281-1.054688-1.785156-1.382813-.671875-.324218-1.351563-.488281-2.042969-.488281h-9.609375v13.238281zm0 0" fill="#ffe767"/><path d="m345.285156 197.507812v-27.050781l-10.53125 20.144531h-4.316406l-10.53125-20.144531v27.050781h-7.941406v-40.863281h8.519531l12.082031 23.25 12.203125-23.25h8.457031v40.863281zm0 0" fill="#ffe767"/><path d="m328.25 284.410156c0 39.898438-32.351562 72.25-72.25 72.25v-144.5c39.898438 0 72.25 32.339844 72.25 72.25zm0 0" fill="#001737"/><path d="m315.410156 284.410156c0 32.800782-26.601562 59.398438-59.410156 59.398438v-118.808594c32.808594 0 59.410156 26.601562 59.410156 59.410156zm0 0" fill="#ff2e00"/></svg>