<svg id="Capa_1" enable-background="new 0 0 512 512" height="512" viewBox="0 0 512 512" width="512" xmlns="http://www.w3.org/2000/svg"><g><g><path d="m10 247.244v85.827c0 11.76 9.533 21.293 21.293 21.293h39.027c0-17.53 14.21-31.74 31.74-31.74s31.74 14.21 31.74 31.74h31.26v-178.98c0-14.21-7.3-21.51-16.31-21.51h-100.99c-7.37 0-13.82 4.94-15.74 12.04z" fill="#ffce69"/></g><g><path d="m165.06 311.434v42.93h144.84c0-17.53 14.21-31.74 31.74-31.74s31.74 14.21 31.74 31.74h44.47v-42.93z" fill="#ced3dd"/></g><g><path d="m417.85 125.894v228.47l13.61 21.33h70.54v-148.471l-51.99-101.329z" fill="#ffce69"/></g><g><path d="m213.934 125.894-48.877 62.36v123.184h252.788v-185.544z" fill="#ffce69"/></g><g><path d="m316.991 311.438h50.393v-110.874c0-7.919-6.419-14.338-14.338-14.338h-21.717c-7.919 0-14.338 6.419-14.338 14.338z" fill="#ffa76b"/></g><g><path d="m214.41 311.438h50.393v-110.874c0-7.919-6.419-14.338-14.338-14.338h-21.717c-7.919 0-14.338 6.419-14.338 14.338z" fill="#ffa76b"/></g><g><path d="m93.281 153.875v46.657c0 25.238-20.459 45.697-45.697 45.697h-37.584l21.997-80.355c1.94-7.085 8.378-11.999 15.724-11.999z" fill="#f9f5f3"/></g><g><circle cx="102.06" cy="354.364" fill="#868eaf" r="31.743"/></g><g><circle cx="341.641" cy="354.364" fill="#868eaf" r="31.743"/></g><g><path d="m510.897 222.658-51.99-101.329c-1.712-3.337-5.146-5.435-8.897-5.435h-96.093c-5.523 0-10 4.477-10 10s4.477 10 10 10h53.929v165.54h-30.461v-100.871c0-13.42-10.918-24.338-24.338-24.338h-21.717c-13.42 0-24.338 10.918-24.338 24.338v100.871h-32.188v-100.871c0-13.42-10.918-24.338-24.338-24.338h-21.717c-13.42 0-24.338 10.918-24.338 24.338v100.871h-29.351v-109.732l43.741-55.808h47.147c5.523 0 10-4.477 10-10s-4.477-10-10-10h-52.015c-3.073 0-5.975 1.413-7.871 3.831l-33.108 42.241c-1.174-3.395-2.824-6.426-4.937-9.005-4.802-5.86-11.646-9.088-19.268-9.088h-100.989c-.008 0-.015.001-.023.001h-.015c-11.817 0-22.25 7.96-25.37 19.358l-21.997 80.357c-.293 1.07-.394 2.167-.328 3.247-.006.137-.027.272-.027.408v85.827c0 17.255 14.038 31.293 31.293 31.293h30.243c4.493 18.202 20.953 31.742 40.523 31.742s36.03-13.54 40.523-31.742h158.535c4.493 18.202 20.953 31.742 40.523 31.742s36.03-13.54 40.523-31.742h30.204l10.661 16.709c1.837 2.878 5.016 4.621 8.43 4.621h70.542c5.523 0 10-4.477 10-10v-148.471c0-1.588-.378-3.153-1.103-4.565zm-128.762 121.58c-1.988-7.947-7.281-18.542-14.742-22.8h40.457v22.926h-25.681c-.01-.042-.023-.084-.034-.126zm-55.144-143.675c0-2.392 1.946-4.338 4.338-4.338h21.717c2.392 0 4.338 1.946 4.338 4.338v100.871h-30.393zm-102.58 0c0-2.392 1.946-4.338 4.338-4.338h21.717c2.392 0 4.338 1.946 4.338 4.338v100.871h-30.393zm-182.738-32.039c.739-2.734 3.236-4.644 6.075-4.649h35.533v36.657c0 19.684-16.014 35.697-35.697 35.697h-24.242zm-21.673 164.547v-76.842h27.584c30.711 0 55.697-24.986 55.697-55.697v-36.658h45.469c5.855 0 6.31 8.81 6.31 11.51v168.98h-12.471c-4.542-18.39-21.591-31.743-40.53-31.743-18.937 0-35.992 13.353-40.529 31.743h-30.237c-6.227 0-11.293-5.066-11.293-11.293zm82.06 43.035c-11.976 0-21.72-9.732-21.742-21.703 0-.013.002-.025.002-.038 0-11.988 9.752-21.74 21.74-21.74 11.987 0 21.74 9.752 21.74 21.74 0 .011.002.021.002.032-.018 11.973-9.765 21.709-21.742 21.709zm73-54.668h140.954c-7.333 5.72-12.677 13.89-14.903 22.926h-126.051zm166.581 54.668c-11.982 0-21.731-9.743-21.742-21.723 0-.006.001-.013.001-.019 0-11.988 9.752-21.74 21.74-21.74 11.987 0 21.74 9.752 21.74 21.74 0 .017.003.034.003.051-.029 11.965-9.771 21.691-21.742 21.691zm150.359-10.412h-55.059l-9.091-14.249v-215.551h16.051l48.099 93.744z"/><path d="m78.408 295.865h14.559c5.523 0 10-4.477 10-10s-4.477-10-10-10h-14.559c-5.523 0-10 4.477-10 10s4.477 10 10 10z"/><path d="m300.67 129.72c3.536 8.487 16.115 7.857 18.79-.924 2.579-8.467-6.816-15.942-14.485-11.597-4.353 2.466-6.198 7.903-4.305 12.521z"/></g></g></svg>