<svg id="Capa_1" enable-background="new 0 0 506.907 506.907" height="512" viewBox="0 0 506.907 506.907" width="512" xmlns="http://www.w3.org/2000/svg"><g><g><path d="m446.596 360.758h-422.206c-9.354 0-16.936-7.583-16.936-16.936v-233.432c0-9.354 7.583-16.936 16.936-16.936h422.206c9.354 0 16.936 7.583 16.936 16.936v233.432c0 9.353-7.582 16.936-16.936 16.936z" fill="#8ac9fe"/><path d="m54.392 360.758h-30c-9.36 0-16.94-7.58-16.94-16.94v-233.43c0-9.35 7.58-16.93 16.94-16.93h30c-9.36 0-16.94 7.58-16.94 16.93v233.43c0 9.359 7.58 16.94 16.94 16.94z" fill="#60b7ff"/><g fill="#f9f3f1"><path d="m459.52 333.244c2.768 0 5.012 2.237 5.012 4.996v28.544c0 18.48-14.687 33.55-33.015 34.14-.371.01-.742.02-1.124.02h-389.712c-.291 0-.592 0-.883-.01-18.449-.47-33.266-15.58-33.266-34.15v-28.544c0-2.759 2.244-4.996 5.012-4.996z"/><path d="m347.9 499.454h-225.797c-6.986 0-12.649-5.663-12.649-12.649v-12.197c0-6.986 5.663-12.649 12.649-12.649h225.797c6.986 0 12.649 5.663 12.649 12.649v12.197c0 6.985-5.664 12.649-12.649 12.649z"/><path d="m271.094 461.35v-59.896h-70.555v2.729 57.167z"/></g><path d="m67.21 333.242v-40.891c0-15.383 12.42-27.851 27.745-27.851h19.216c15.325 0 27.745 12.467 27.745 27.851v40.891z" fill="#fe646f"/><path d="m198.464 333.242v-76.303c0-15.383 12.42-27.851 27.745-27.851h19.216c15.325 0 27.745 12.467 27.745 27.851v76.303z" fill="#ffe177"/><path d="m329.718 333.242v-86.718c0-15.383 12.42-27.851 27.745-27.851h19.216c15.325 0 27.745 12.467 27.745 27.851v86.718z" fill="#6cf5c2"/><path d="m421.544 86.177-31.975 71.216c-27.853-12.601-45.843-40.549-45.843-71.216 0-26.348 13.28-50.981 35.253-65.393z" fill="#6cf5c2"/><path d="m421.544 86.177 77.721-3.919c.065 1.305.098 2.612.098 3.919 0 42.853-35.129 78.115-77.819 78.115-12.39 0-24.602-2.97-35.618-8.662z" fill="#fe646f"/><path d="m421.544 86.177-42.92-65.16c12.73-8.449 27.659-12.955 42.92-12.955 42.69 0 77.819 35.262 77.819 78.115z" fill="#ffe177"/><path d="m70.682 400.948h-30c-.29 0-.59 0-.88-.01-18.45-.47-33.27-15.58-33.27-34.15v-28.55c0-2.76 2.24-4.99 5.01-4.99h30c-2.77 0-5.01 2.23-5.01 4.99v28.55c0 18.57 14.82 33.68 33.27 34.15.29.01.59.01.88.01z" fill="#e1d3ce"/><path d="m200.542 401.458h30v59.89h-30z" fill="#e1d3ce"/><path d="m152.102 499.458h-30c-6.99 0-12.65-5.67-12.65-12.65v-12.2c0-6.99 5.66-12.65 12.65-12.65h30c-6.99 0-12.65 5.66-12.65 12.65v12.2c0 6.98 5.66 12.65 12.65 12.65z" fill="#e1d3ce"/><path d="m119.562 265.028c-12.74 2.52-22.35 13.79-22.35 27.32v40.89h-30v-40.89c0-15.38 12.42-27.85 27.74-27.85h19.22c1.85 0 3.65.179 5.39.53z" fill="#fd4755"/><path d="m250.822 229.618c-12.75 2.52-22.36 13.79-22.36 27.32v76.3h-30v-76.3c0-15.38 12.42-27.85 27.75-27.85h19.21c1.85 0 3.65.18 5.4.53z" fill="#ffd064"/><path d="m382.072 219.208c-12.74 2.51-22.35 13.78-22.35 27.32v86.71h-30v-86.71c0-15.39 12.42-27.85 27.74-27.85h19.22c1.85-.001 3.65.18 5.39.53z" fill="#00e499"/></g><g><path d="m464.131 209.953c-4.143 0-7.5 3.358-7.5 7.5v108.289h-44.662v-79.218c0-19.492-15.811-35.351-35.245-35.351h-19.216c-19.435 0-35.245 15.858-35.245 35.351v79.218h-41.548v-68.803c0-19.492-15.811-35.351-35.245-35.351h-19.216c-19.435 0-35.245 15.858-35.245 35.351v68.803h-41.549v-33.391c0-19.492-15.811-35.351-35.244-35.351h-19.217c-19.434 0-35.244 15.858-35.244 35.351v33.391h-44.664v-35.289c0-4.142-3.357-7.5-7.5-7.5s-7.5 3.358-7.5 7.5v42.79c0 .02.003.038.003.058v33.48c0 22.972 18.631 41.66 41.53 41.66h151.46v45.409h-70.121c-11.11 0-20.148 9.039-20.148 20.149v12.197c0 11.11 9.038 20.149 20.148 20.149h225.797c11.11 0 20.149-9.039 20.149-20.149v-12.197c0-11.11-9.039-20.149-20.149-20.149h-70.12v-45.409h151.459c22.9 0 41.531-18.688 41.531-41.66v-33.519c0-.006.001-.013.001-.019v-115.79c0-4.142-3.358-7.5-7.5-7.5zm-126.868 36.571c0-11.221 9.082-20.351 20.245-20.351h19.216c11.163 0 20.245 9.129 20.245 20.351v79.218h-59.706zm-131.254 10.415c0-11.221 9.082-20.351 20.245-20.351h19.216c11.163 0 20.245 9.129 20.245 20.351v68.803h-59.706zm-131.254 35.412c0-11.221 9.081-20.351 20.244-20.351h19.217c11.163 0 20.244 9.129 20.244 20.351v33.391h-59.705zm279.154 181.648v12.197c0 2.839-2.31 5.149-5.149 5.149h-225.797c-2.839 0-5.148-2.31-5.148-5.149v-12.197c0-2.839 2.31-5.149 5.148-5.149h225.797c2.84 0 5.149 2.31 5.149 5.149zm-90.269-20.149h-55.556v-45.409h55.556zm192.99-87.069c0 14.701-11.902 26.66-26.531 26.66h-388.475c-14.629 0-26.53-11.959-26.53-26.66v-26.04h441.536z"/><path d="m70.831 226.924c.224.02.447.03.67.03 2.082 0 4.084-.868 5.51-2.413l24-26c2.81-3.043 2.62-7.789-.424-10.598-3.045-2.81-7.788-2.62-10.598.424l-17.393 18.841-22.77-35.781c-2.225-3.496-6.86-4.523-10.354-2.301-3.495 2.224-4.525 6.86-2.301 10.354l28 44c1.251 1.964 3.342 3.236 5.66 3.444z"/><path d="m114.495 169.953c2.181 0 4.344-.946 5.826-2.771l20.611-25.368 12.123 12.797c2.848 3.006 7.595 3.134 10.603.287 3.007-2.849 3.135-7.596.286-10.603l-18-19c-1.484-1.566-3.563-2.414-5.729-2.336-2.157.082-4.175 1.09-5.536 2.765l-26 32c-2.611 3.215-2.123 7.938 1.092 10.55 1.39 1.13 3.062 1.679 4.724 1.679z"/><path d="m187.42 174.849c-2.542-3.269-7.255-3.858-10.524-1.315-3.27 2.543-3.858 7.255-1.315 10.524l14 18c1.397 1.797 3.536 2.862 5.813 2.895.035 0 .071.001.106.001 2.237 0 4.36-1 5.786-2.729l47-57c.105-.127.197-.261.292-.394l3.833 11.075c1.074 3.103 3.979 5.049 7.088 5.049.813 0 1.642-.133 2.453-.415 3.914-1.355 5.989-5.626 4.635-9.541l-9-26c-1.191-3.443-4.683-5.535-8.282-4.951l-31 5c-4.089.66-6.869 4.509-6.21 8.599.66 4.089 4.508 6.875 8.599 6.21l14.505-2.34-39.529 47.939z"/><path d="m506.907 86.177c0-47.208-38.273-85.615-85.318-85.615-45.657 0-83.048 36.176-85.214 81.462h-295.984c-22.222 0-40.3 18.079-40.3 40.294l-.091 132.13c-.003 4.143 3.353 7.502 7.495 7.505h.005c4.14 0 7.497-3.355 7.5-7.495l.091-132.135c0-13.95 11.35-25.3 25.3-25.3h296.588c5.332 42.102 41.229 74.768 84.611 74.768 12.537 0 24.44-2.75 35.173-7.645l.193 18.385c.044 4.115 3.393 7.421 7.498 7.421h.08c4.143-.043 7.465-3.436 7.422-7.578l-.282-26.948c21.33-15.578 35.233-40.808 35.233-69.249zm-15.4-7.5h-65.903l-36.663-55.013c9.764-5.163 20.868-8.102 32.648-8.102 36.25 0 66.176 27.691 69.918 63.115zm-140.237 7.5c0-21.718 9.821-41.17 25.229-54.134l36.516 54.793-27.735 59.792c-20.367-12.383-34.01-34.846-34.01-60.451zm47.596 66.81 27.512-59.31h65.129c-3.742 35.424-33.667 63.115-69.918 63.115-7.951 0-15.59-1.352-22.723-3.805z"/></g></g></svg>