<?xml version="1.0" encoding="UTF-8"?>
<!DOCTYPE svg PUBLIC "-//W3C//DTD SVG 1.1//EN" "http://www.w3.org/Graphics/SVG/1.1/DTD/svg11.dtd">
<svg version="1.2" width="160mm" height="110mm" viewBox="0 0 16000 11000" preserveAspectRatio="xMidYMid" fill-rule="evenodd" stroke-width="28.222" stroke-linejoin="round" xmlns="http://www.w3.org/2000/svg" xmlns:ooo="http://xml.openoffice.org/svg/export" xmlns:xlink="http://www.w3.org/1999/xlink" xmlns:presentation="http://sun.com/xmlns/staroffice/presentation" xmlns:smil="http://www.w3.org/2001/SMIL20/" xmlns:anim="urn:oasis:names:tc:opendocument:xmlns:animation:1.0" xml:space="preserve">
 <defs class="ClipPathGroup">
  <clipPath id="presentation_clip_path" clipPathUnits="userSpaceOnUse">
   <rect x="0" y="0" width="16000" height="11000"/>
  </clipPath>
  <clipPath id="presentation_clip_path_shrink" clipPathUnits="userSpaceOnUse">
   <rect x="16" y="11" width="15968" height="10978"/>
  </clipPath>
 </defs>
 <defs class="TextShapeIndex">
  <g ooo:slide="id1" ooo:id-list="id3 id4 id5 id6 id7 id8 id9 id10 id11"/>
 </defs>
 <defs class="EmbeddedBulletChars">
  <g id="bullet-char-template-57356" transform="scale(0.00048828125,-0.00048828125)">
   <path d="M 580,1141 L 1163,571 580,0 -4,571 580,1141 Z"/>
  </g>
  <g id="bullet-char-template-57354" transform="scale(0.00048828125,-0.00048828125)">
   <path d="M 8,1128 L 1137,1128 1137,0 8,0 8,1128 Z"/>
  </g>
  <g id="bullet-char-template-10146" transform="scale(0.00048828125,-0.00048828125)">
   <path d="M 174,0 L 602,739 174,1481 1456,739 174,0 Z M 1358,739 L 309,1346 659,739 1358,739 Z"/>
  </g>
  <g id="bullet-char-template-10132" transform="scale(0.00048828125,-0.00048828125)">
   <path d="M 2015,739 L 1276,0 717,0 1260,543 174,543 174,936 1260,936 717,1481 1274,1481 2015,739 Z"/>
  </g>
  <g id="bullet-char-template-10007" transform="scale(0.00048828125,-0.00048828125)">
   <path d="M 0,-2 C -7,14 -16,27 -25,37 L 356,567 C 262,823 215,952 215,954 215,979 228,992 255,992 264,992 276,990 289,987 310,991 331,999 354,1012 L 381,999 492,748 772,1049 836,1024 860,1049 C 881,1039 901,1025 922,1006 886,937 835,863 770,784 769,783 710,716 594,584 L 774,223 C 774,196 753,168 711,139 L 727,119 C 717,90 699,76 672,76 641,76 570,178 457,381 L 164,-76 C 142,-110 111,-127 72,-127 30,-127 9,-110 8,-76 1,-67 -2,-52 -2,-32 -2,-23 -1,-13 0,-2 Z"/>
  </g>
  <g id="bullet-char-template-10004" transform="scale(0.00048828125,-0.00048828125)">
   <path d="M 285,-33 C 182,-33 111,30 74,156 52,228 41,333 41,471 41,549 55,616 82,672 116,743 169,778 240,778 293,778 328,747 346,684 L 369,508 C 377,444 397,411 428,410 L 1163,1116 C 1174,1127 1196,1133 1229,1133 1271,1133 1292,1118 1292,1087 L 1292,965 C 1292,929 1282,901 1262,881 L 442,47 C 390,-6 338,-33 285,-33 Z"/>
  </g>
  <g id="bullet-char-template-9679" transform="scale(0.00048828125,-0.00048828125)">
   <path d="M 813,0 C 632,0 489,54 383,161 276,268 223,411 223,592 223,773 276,916 383,1023 489,1130 632,1184 813,1184 992,1184 1136,1130 1245,1023 1353,916 1407,772 1407,592 1407,412 1353,268 1245,161 1136,54 992,0 813,0 Z"/>
  </g>
  <g id="bullet-char-template-8226" transform="scale(0.00048828125,-0.00048828125)">
   <path d="M 346,457 C 273,457 209,483 155,535 101,586 74,649 74,723 74,796 101,859 155,911 209,963 273,989 346,989 419,989 480,963 531,910 582,859 608,796 608,723 608,648 583,586 532,535 482,483 420,457 346,457 Z"/>
  </g>
  <g id="bullet-char-template-8211" transform="scale(0.00048828125,-0.00048828125)">
   <path d="M -4,459 L 1135,459 1135,606 -4,606 -4,459 Z"/>
  </g>
  <g id="bullet-char-template-61548" transform="scale(0.00048828125,-0.00048828125)">
   <path d="M 173,740 C 173,903 231,1043 346,1159 462,1274 601,1332 765,1332 928,1332 1067,1274 1183,1159 1299,1043 1357,903 1357,740 1357,577 1299,437 1183,322 1067,206 928,148 765,148 601,148 462,206 346,322 231,437 173,577 173,740 Z"/>
  </g>
 </defs>
 <g>
  <g id="id2" class="Master_Slide">
   <g id="bg-id2" class="Background"/>
   <g id="bo-id2" class="BackgroundObjects"/>
  </g>
 </g>
 <g class="SlideGroup">
  <g>
   <g id="container-id1">
    <g id="id1" class="Slide" clip-path="url(#presentation_clip_path)">
     <g class="Page">
      <g class="Graphic">
       <g id="id3">
        <rect class="BoundingBox" stroke="none" fill="none" x="600" y="340" width="4321" height="4321"/>
        <defs>
         <clipPath id="clip_path_1" clipPathUnits="userSpaceOnUse">
          <path d="M 600,340 L 4920,340 4920,4660 600,4660 600,340 Z"/>
         </clipPath>
        </defs>
        <g clip-path="url(#clip_path_1)">
         <path fill="rgb(238,250,255)" stroke="none" d="M 3773,3091 L 3773,2416 2709,3091 2709,2416 C 2639,2462 1730,3069 1697,3091 L 1697,2416 C 1629,2461 796,3016 684,3091 L 684,3934 4836,3934 4836,2416 3773,3091 Z"/>
         <path fill="rgb(255,218,143)" stroke="none" d="M 684,3934 L 4836,3934 4836,4441 684,4441 684,3934 Z"/>
         <path fill="rgb(238,250,255)" stroke="none" d="M 3435,559 L 4448,559 C 4448,746 4296,897 4110,897 L 3726,897 C 3667,997 3560,1066 3435,1066 L 2423,1066 C 2423,879 2574,728 2760,728 L 3144,728 C 3203,628 3310,559 3435,559 L 3435,559 Z"/>
         <path fill="rgb(179,241,255)" stroke="none" d="M 3098,3428 L 3098,4441 4110,4441 C 4110,4318 4110,3551 4110,3428 3988,3428 3221,3428 3098,3428 L 3098,3428 Z"/>
         <path fill="rgb(193,176,181)" stroke="none" d="M 2571,1741 L 2637,2464 2073,2840 2172,1741 2571,1741 Z"/>
         <path fill="rgb(255,146,86)" stroke="none" d="M 2541,1403 L 2571,1741 2172,1741 2203,1403 2541,1403 Z"/>
         <path fill="rgb(238,250,255)" stroke="none" d="M 1410,728 L 2085,728 C 2085,915 1934,1066 1748,1066 L 1073,1066 C 1073,879 1224,728 1410,728 L 1410,728 Z"/>
         <path fill="rgb(179,241,255)" stroke="none" d="M 1359,3428 L 1359,4441 2372,4441 C 2372,4318 2372,3551 2372,3428 2249,3428 1483,3428 1359,3428 L 1359,3428 Z"/>
         <path fill="rgb(193,176,181)" stroke="none" d="M 1390,1741 L 1465,2570 880,2960 991,1741 1390,1741 Z"/>
         <path fill="rgb(255,146,86)" stroke="none" d="M 1359,1403 L 1390,1741 991,1741 1022,1403 1359,1403 Z"/>
         <path fill="rgb(0,0,0)" stroke="none" d="M 1073,1150 L 1748,1150 C 1980,1150 2169,961 2169,728 2169,682 2132,644 2085,644 L 1410,644 C 1177,644 988,833 988,1066 988,1112 1026,1150 1073,1150 Z M 1986,812 C 1951,911 1858,981 1748,981 L 1171,981 C 1206,883 1300,813 1410,812 L 1986,812 Z"/>
         <path fill="rgb(0,0,0)" stroke="none" d="M 3435,1150 C 3567,1150 3692,1086 3771,981 L 4110,981 C 4343,981 4532,792 4532,559 4532,513 4494,475 4448,475 L 3435,475 C 3303,475 3178,539 3099,644 L 2760,644 C 2527,644 2338,833 2338,1066 2338,1112 2376,1150 2423,1150 L 3435,1150 Z M 2760,813 L 3144,813 C 3174,813 3202,797 3217,771 3263,691 3345,644 3435,644 L 4349,644 C 4314,742 4220,813 4110,813 L 3726,813 C 3696,813 3668,828 3653,854 3607,934 3525,981 3435,981 L 2521,981 C 2556,883 2650,813 2760,813 Z"/>
         <path fill="rgb(0,0,0)" stroke="none" d="M 4920,3183 C 4920,3198 4916,3213 4909,3226 4901,3238 4891,3249 4878,3257 4865,3264 4850,3268 4836,3268 4821,3268 4806,3264 4793,3257 4781,3249 4770,3238 4763,3226 4755,3213 4751,3198 4751,3183 4751,3169 4755,3154 4763,3141 4770,3128 4781,3118 4793,3110 4806,3103 4821,3099 4836,3099 4850,3099 4865,3103 4878,3110 4891,3118 4901,3128 4909,3141 4916,3154 4920,3169 4920,3183 L 4920,3183 Z"/>
         <path fill="rgb(0,0,0)" stroke="none" d="M 4790,2344 L 3857,2937 3857,2416 C 3857,2385 3840,2357 3813,2342 3786,2327 3753,2328 3727,2344 L 2794,2937 2794,2416 C 2794,2385 2777,2356 2749,2341 2737,2335 2723,2331 2710,2331 2694,2154 2646,1631 2625,1395 2621,1352 2584,1319 2541,1319 L 2203,1319 C 2159,1319 2123,1352 2119,1395 2103,1571 2003,2668 1992,2792 L 1781,2933 1781,2416 C 1781,2385 1764,2356 1737,2341 1709,2327 1676,2328 1650,2345 L 1537,2421 C 1517,2207 1462,1596 1443,1395 1439,1352 1403,1319 1359,1319 L 1022,1319 C 978,1319 942,1352 938,1395 930,1483 809,2813 800,2912 L 638,3020 C 614,3036 600,3062 600,3091 L 600,4441 C 600,4487 638,4525 684,4525 L 4836,4525 C 4882,4525 4920,4487 4920,4441 L 4920,3563 C 4920,3517 4882,3479 4836,3479 4789,3479 4751,3517 4751,3563 L 4751,3850 4194,3850 4194,3428 C 4194,3382 4157,3344 4110,3344 L 3097,3344 C 3051,3344 3013,3382 3013,3428 L 3013,3850 2456,3850 2456,3428 C 2456,3382 2418,3344 2372,3344 L 1359,3344 C 1313,3344 1275,3382 1275,3428 L 1275,3850 769,3850 769,3136 C 2002,2313 529,3296 1612,2573 L 1612,3091 C 1612,3122 1630,3150 1657,3165 1684,3180 1718,3178 1744,3161 L 2625,2573 2625,3091 C 2625,3121 2642,3150 2669,3165 2696,3179 2729,3178 2755,3162 L 3688,2569 3688,3091 C 3688,3121 3705,3150 3732,3165 3759,3179 3792,3178 3818,3162 L 4751,2569 4751,2804 C 4751,2850 4789,2888 4836,2888 4882,2888 4920,2850 4920,2804 L 4920,2416 C 4920,2385 4903,2357 4876,2342 4849,2327 4816,2328 4790,2344 Z M 4751,4019 L 4751,4356 4194,4356 4194,4019 4751,4019 Z M 4026,4356 L 3688,4356 3688,3513 4026,3513 4026,4356 Z M 3182,3513 L 3519,3513 3519,4356 3182,4356 3182,3513 Z M 3013,4019 L 3013,4356 2456,4356 2456,4019 3013,4019 Z M 2288,4356 L 1950,4356 1950,3513 2288,3513 2288,4356 Z M 1444,3513 L 1781,3513 1781,4356 1444,4356 1444,3513 Z M 1275,4019 L 1275,4356 769,4356 769,4019 1275,4019 Z M 1068,1825 L 1313,1825 1377,2528 980,2792 1068,1825 Z M 1282,1488 L 1298,1656 1084,1656 1099,1488 1282,1488 Z M 2464,1488 L 2479,1656 2265,1656 2280,1488 2464,1488 Z M 2249,1825 L 2494,1825 2548,2421 2173,2672 2249,1825 Z"/>
        </g>
       </g>
      </g>
      <g class="Graphic">
       <g id="id4">
        <rect class="BoundingBox" stroke="none" fill="none" x="11874" y="4200" width="3327" height="3327"/>
        <defs>
         <clipPath id="clip_path_2" clipPathUnits="userSpaceOnUse">
          <path d="M 11874,4200 L 15200,4200 15200,7526 11874,7526 11874,4200 Z"/>
         </clipPath>
        </defs>
        <g clip-path="url(#clip_path_2)">
         <path fill="rgb(138,201,254)" stroke="none" d="M 14804,6567 L 12034,6567 C 11973,6567 11923,6517 11923,6456 L 11923,4924 C 11923,4863 11973,4813 12034,4813 L 14804,4813 C 14866,4813 14915,4863 14915,4924 L 14915,6456 C 14915,6517 14866,6567 14804,6567 L 14804,6567 Z"/>
         <path fill="rgb(96,183,255)" stroke="none" d="M 12034,6567 C 11973,6567 11923,6517 11923,6456 L 11923,4924 C 11923,4863 11973,4813 12034,4813 L 12231,4813 C 12169,4813 12120,4863 12120,4924 L 12120,6456 C 12120,6517 12169,6567 12231,6567 L 12034,6567 Z"/>
         <path fill="rgb(249,243,241)" stroke="none" d="M 14889,6387 C 14907,6387 14922,6401 14922,6419 L 14922,6607 C 14922,6728 14826,6827 14705,6831 14703,6831 14700,6831 14698,6831 L 12141,6831 C 12139,6831 12137,6831 12135,6831 12014,6828 11917,6728 11917,6607 L 11917,6419 C 11917,6401 11932,6387 11950,6387 L 14889,6387 Z"/>
         <path fill="rgb(249,243,241)" stroke="none" d="M 14157,7477 L 12675,7477 C 12629,7477 12592,7440 12592,7394 L 12592,7314 C 12592,7268 12629,7231 12675,7231 L 14157,7231 C 14203,7231 14240,7268 14240,7314 L 14240,7394 C 14240,7440 14203,7477 14157,7477 L 14157,7477 Z"/>
         <path fill="rgb(249,243,241)" stroke="none" d="M 13653,7227 L 13653,6834 13190,6834 13190,6852 13190,7227 13653,7227 Z"/>
         <path fill="rgb(254,100,111)" stroke="none" d="M 12315,6387 L 12315,6118 C 12315,6017 12396,5935 12497,5935 L 12623,5935 C 12724,5935 12805,6017 12805,6118 L 12805,6387 12315,6387 Z"/>
         <path fill="rgb(255,225,119)" stroke="none" d="M 13176,6387 L 13176,5886 C 13176,5785 13258,5703 13358,5703 L 13484,5703 C 13585,5703 13666,5785 13666,5886 L 13666,6387 13176,6387 Z"/>
         <path fill="rgb(108,245,194)" stroke="none" d="M 14037,6387 L 14037,5818 C 14037,5717 14119,5635 14219,5635 L 14346,5635 C 14446,5635 14528,5717 14528,5818 L 14528,6387 14037,6387 Z"/>
         <path fill="rgb(108,245,194)" stroke="none" d="M 14640,4765 L 14430,5233 C 14247,5150 14129,4967 14129,4765 14129,4593 14216,4431 14361,4336 L 14640,4765 Z"/>
         <path fill="rgb(254,100,111)" stroke="none" d="M 14640,4765 L 15150,4740 C 15150,4748 15151,4757 15151,4765 15151,5047 14920,5278 14640,5278 14559,5278 14478,5258 14406,5221 L 14640,4765 Z"/>
         <path fill="rgb(255,225,119)" stroke="none" d="M 14640,4765 L 14358,4338 C 14442,4282 14540,4253 14640,4253 14920,4253 15151,4484 15151,4765 L 14640,4765 Z"/>
         <path fill="rgb(225,211,206)" stroke="none" d="M 12141,6831 C 12139,6831 12137,6831 12135,6831 12014,6828 11917,6728 11917,6607 L 11917,6419 C 11917,6401 11932,6387 11950,6387 L 12147,6387 C 12128,6387 12114,6401 12114,6419 L 12114,6607 C 12114,6728 12211,6828 12332,6831 12334,6831 12336,6831 12338,6831 L 12141,6831 Z"/>
         <path fill="rgb(225,211,206)" stroke="none" d="M 13190,6834 L 13387,6834 13387,7227 13190,7227 13190,6834 Z"/>
         <path fill="rgb(225,211,206)" stroke="none" d="M 12872,7477 L 12675,7477 C 12629,7477 12592,7440 12592,7394 L 12592,7314 C 12592,7268 12629,7231 12675,7231 L 12872,7231 C 12826,7231 12789,7268 12789,7314 L 12789,7394 C 12789,7440 12826,7477 12872,7477 L 12872,7477 Z"/>
         <path fill="rgb(253,71,85)" stroke="none" d="M 12512,6118 L 12512,6386 12315,6386 12315,6118 C 12315,6017 12396,5935 12497,5935 L 12623,5935 C 12635,5935 12647,5937 12658,5939 12575,5955 12512,6029 12512,6118 Z"/>
         <path fill="rgb(255,208,100)" stroke="none" d="M 13520,5707 C 13436,5723 13373,5797 13373,5886 L 13373,6386 13176,6386 13176,5886 C 13176,5785 13258,5703 13358,5703 L 13484,5703 C 13496,5703 13508,5704 13520,5707 L 13520,5707 Z"/>
         <path fill="rgb(0,228,153)" stroke="none" d="M 14234,5818 L 14234,6386 14037,6386 14037,5818 C 14037,5717 14119,5635 14219,5635 L 14346,5635 C 14358,5635 14369,5636 14381,5638 14297,5655 14234,5729 14234,5818 Z"/>
         <path fill="rgb(0,0,0)" stroke="none" d="M 14870,5627 L 14870,6337 14577,6337 14577,5818 C 14577,5690 14473,5586 14346,5586 L 14220,5586 C 14092,5586 13988,5690 13988,5818 L 13988,6337 13716,6337 13716,5886 C 13716,5758 13612,5654 13485,5654 L 13359,5654 C 13231,5654 13127,5758 13127,5886 L 13127,6337 12855,6337 12855,6118 C 12855,5990 12751,5886 12623,5886 L 12497,5886 C 12370,5886 12266,5990 12266,6118 L 12266,6337 11973,6337 11973,6106 C 11973,6079 11951,6057 11924,6057 11897,6057 11875,6079 11875,6106 L 11875,6387 C 11875,6387 11875,6387 11875,6387 L 11875,6607 C 11875,6757 11997,6880 12147,6880 L 13141,6880 13141,7178 12681,7178 C 12608,7178 12549,7237 12549,7310 L 12549,7390 C 12549,7463 12608,7522 12681,7522 L 14162,7522 C 14235,7522 14295,7463 14295,7390 L 14295,7310 C 14295,7237 14235,7178 14162,7178 L 13702,7178 13702,6880 14696,6880 C 14846,6880 14969,6757 14969,6607 L 14969,6387 C 14969,6387 14969,6387 14969,6387 L 14969,5627 C 14969,5600 14947,5578 14919,5578 14892,5578 14870,5600 14870,5627 Z M 14087,5818 C 14087,5744 14146,5684 14220,5684 L 14346,5684 C 14419,5684 14479,5744 14479,5818 L 14479,6337 14087,6337 14087,5818 Z M 13226,5886 C 13226,5812 13285,5752 13359,5752 L 13485,5752 C 13558,5752 13617,5812 13617,5886 L 13617,6337 13226,6337 13226,5886 Z M 12364,6118 C 12364,6045 12424,5985 12497,5985 L 12623,5985 C 12697,5985 12756,6045 12756,6118 L 12756,6337 12364,6337 12364,6118 Z M 14196,7310 L 14196,7390 C 14196,7409 14181,7424 14162,7424 L 12681,7424 C 12662,7424 12647,7409 12647,7390 L 12647,7310 C 12647,7291 12662,7276 12681,7276 L 14162,7276 C 14181,7276 14196,7291 14196,7310 Z M 13604,7178 L 13239,7178 13239,6880 13604,6880 13604,7178 Z M 14870,6607 C 14870,6703 14792,6782 14696,6782 L 12147,6782 C 12051,6782 11973,6703 11973,6607 L 11973,6436 14870,6436 14870,6607 Z"/>
         <path fill="rgb(0,0,0)" stroke="none" d="M 12339,5689 C 12340,5689 12342,5689 12343,5689 12357,5689 12370,5683 12379,5673 L 12537,5503 C 12555,5483 12554,5452 12534,5433 12514,5415 12483,5416 12464,5436 L 12350,5560 12201,5325 C 12186,5302 12156,5295 12133,5310 12110,5324 12103,5355 12118,5378 L 12302,5666 C 12310,5679 12324,5688 12339,5689 L 12339,5689 Z"/>
         <path fill="rgb(0,0,0)" stroke="none" d="M 12663,5297 L 12799,5130 12878,5214 C 12897,5234 12928,5235 12948,5216 12968,5198 12968,5167 12950,5147 L 12832,5022 C 12822,5012 12808,5006 12794,5007 12780,5007 12767,5014 12758,5025 L 12587,5235 C 12570,5256 12573,5287 12594,5304 12603,5312 12614,5315 12625,5315 12640,5315 12654,5309 12663,5297 Z"/>
         <path fill="rgb(0,0,0)" stroke="none" d="M 13104,5347 C 13087,5326 13056,5322 13035,5339 13013,5355 13009,5386 13026,5408 L 13118,5526 C 13127,5538 13141,5545 13156,5545 13156,5545 13157,5545 13157,5545 13171,5545 13185,5538 13195,5527 L 13503,5153 C 13504,5152 13504,5151 13505,5150 L 13530,5223 C 13537,5243 13556,5256 13577,5256 13582,5256 13587,5255 13593,5253 13618,5244 13632,5216 13623,5191 L 13564,5020 C 13556,4998 13533,4984 13510,4988 L 13306,5020 C 13280,5025 13261,5050 13266,5077 13270,5104 13295,5122 13322,5118 L 13417,5102 13158,5417 13104,5347 Z"/>
         <path fill="rgb(0,0,0)" stroke="none" d="M 14640,4204 C 14341,4204 14095,4441 14081,4738 L 12139,4738 C 11993,4738 11875,4857 11875,5003 L 11874,5870 C 11874,5897 11896,5919 11923,5919 L 11923,5919 C 11950,5919 11972,5897 11972,5870 L 11973,5003 C 11973,4911 12047,4837 12139,4837 L 14085,4837 C 14120,5113 14356,5327 14640,5327 14722,5327 14801,5309 14871,5277 L 14872,5398 C 14873,5425 14895,5446 14921,5446 L 14922,5446 C 14949,5446 14971,5424 14971,5397 L 14969,5220 C 15109,5118 15200,4952 15200,4765 15200,4456 14949,4204 14640,4204 Z M 15099,4716 L 14667,4716 14426,4355 C 14490,4321 14563,4302 14640,4302 14878,4302 15074,4484 15099,4716 Z M 14344,4410 L 14584,4770 14402,5162 C 14268,5081 14179,4933 14179,4765 14179,4623 14243,4495 14344,4410 Z M 14491,5204 L 14672,4815 15099,4815 C 15074,5047 14878,5229 14640,5229 14588,5229 14538,5220 14491,5204 Z"/>
        </g>
       </g>
      </g>
      <g class="Graphic">
       <g id="id5">
        <rect class="BoundingBox" stroke="none" fill="none" x="7301" y="4700" width="2774" height="2774"/>
        <path fill="rgb(0,0,0)" stroke="none" d="M 9797,5643 L 9353,5199 9353,5532 7689,5532 7689,5754 9353,5754 9353,6087 9797,5643 9797,5643 Z"/>
        <path fill="rgb(0,0,0)" stroke="none" d="M 7578,6530 L 8022,6974 8022,6641 9686,6641 9686,6419 8022,6419 8022,6087 7578,6530 7578,6530 Z"/>
       </g>
      </g>
      <g class="Graphic">
       <g id="id6">
        <rect class="BoundingBox" stroke="none" fill="none" x="8100" y="4266" width="961" height="961"/>
        <path fill="rgb(0,0,0)" stroke="none" d="M 8158,5092 L 9002,5092 8580,4362 8158,5092 8158,5092 Z M 8618,4976 L 8542,4976 8542,4900 8618,4900 8618,4976 8618,4976 Z M 8618,4823 L 8542,4823 8542,4669 8618,4669 8618,4823 8618,4823 Z"/>
       </g>
      </g>
      <g class="Graphic">
       <g id="id7">
        <rect class="BoundingBox" stroke="none" fill="none" x="8360" y="6926" width="801" height="801"/>
        <path fill="rgb(0,0,0)" stroke="none" d="M 9102,7550 L 8811,7259 C 8840,7185 8824,7099 8763,7038 8699,6974 8603,6961 8526,6996 L 8664,7134 8568,7230 8427,7092 C 8389,7169 8405,7265 8469,7329 8530,7390 8616,7406 8690,7377 L 8981,7668 C 8994,7681 9013,7681 9026,7668 L 9099,7595 C 9115,7582 9115,7560 9102,7550 L 9102,7550 Z"/>
       </g>
      </g>
      <g class="Graphic">
       <g id="id8">
        <rect class="BoundingBox" stroke="none" fill="none" x="521" y="4721" width="2880" height="2880"/>
        <path fill="rgb(217,217,217)" stroke="none" d="M 955,5634 L 2392,5634 2775,6113 763,6113 955,5634 Z"/>
        <path fill="rgb(240,240,240)" stroke="none" d="M 955,5634 L 763,6113 2631,6113 2248,5634 955,5634 955,5634 Z"/>
        <path fill="rgb(217,217,217)" stroke="none" d="M 2392,5729 L 2392,5634 955,5634 917,5729 2392,5729 2392,5729 Z"/>
        <path fill="rgb(251,181,64)" stroke="none" d="M 1290,6113 L 3062,6113 C 3221,6113 3349,6241 3349,6400 L 3349,6496 C 3349,6654 3221,6783 3062,6783 L 763,6783 C 657,6783 572,6697 572,6592 L 572,6304 C 572,6198 657,6113 763,6113 L 1290,6113 1290,6113 Z"/>
        <path fill="rgb(108,113,117)" stroke="none" d="M 1482,6783 C 1482,6834 1468,6883 1443,6927 1418,6970 1382,7007 1338,7032 1294,7057 1245,7070 1194,7070 1144,7070 1094,7057 1051,7032 1007,7007 971,6970 945,6927 920,6883 907,6834 907,6783 907,6733 920,6683 945,6639 971,6596 1007,6559 1051,6534 1094,6509 1144,6496 1194,6496 1245,6496 1294,6509 1338,6534 1382,6559 1418,6596 1443,6639 1468,6683 1482,6733 1482,6783 L 1482,6783 Z"/>
        <path fill="rgb(217,217,217)" stroke="none" d="M 1290,6783 C 1290,6800 1286,6816 1277,6831 1269,6846 1257,6858 1242,6866 1228,6874 1211,6879 1194,6879 1177,6879 1161,6874 1146,6866 1132,6858 1120,6846 1111,6831 1103,6816 1098,6800 1098,6783 1098,6766 1103,6750 1111,6735 1120,6721 1132,6709 1146,6700 1161,6692 1177,6687 1194,6687 1211,6687 1228,6692 1242,6700 1257,6709 1269,6721 1277,6735 1286,6750 1290,6766 1290,6783 L 1290,6783 Z"/>
        <path fill="rgb(108,113,117)" stroke="none" d="M 2966,6783 C 2966,6834 2953,6883 2928,6927 2902,6970 2866,7007 2823,7032 2779,7057 2729,7070 2679,7070 2628,7070 2579,7057 2535,7032 2491,7007 2455,6970 2430,6927 2405,6883 2392,6834 2392,6783 2392,6733 2405,6683 2430,6639 2455,6596 2491,6559 2535,6534 2579,6509 2628,6496 2679,6496 2729,6496 2779,6509 2823,6534 2866,6559 2902,6596 2928,6639 2953,6683 2966,6733 2966,6783 L 2966,6783 Z"/>
        <path fill="rgb(251,181,64)" stroke="none" d="M 2152,5586 L 2152,6161 1146,6161 1146,5586 2152,5586 Z"/>
        <path fill="rgb(217,217,217)" stroke="none" d="M 2775,6783 C 2775,6800 2770,6816 2762,6831 2753,6846 2741,6858 2727,6866 2712,6874 2696,6879 2679,6879 2662,6879 2646,6874 2631,6866 2616,6858 2604,6846 2596,6831 2587,6816 2583,6800 2583,6783 2583,6766 2587,6750 2596,6735 2604,6721 2616,6709 2631,6700 2646,6692 2662,6687 2679,6687 2696,6687 2712,6692 2727,6700 2741,6709 2753,6721 2762,6735 2770,6750 2775,6766 2775,6783 L 2775,6783 Z"/>
        <path fill="rgb(108,113,117)" stroke="none" d="M 1338,6256 L 1434,6256 1434,6352 1338,6352 1338,6256 1338,6256 Z"/>
        <path fill="rgb(108,113,117)" stroke="none" d="M 1529,6352 L 1529,6448 1434,6448 1434,6352 1529,6352 Z"/>
        <path fill="rgb(108,113,117)" stroke="none" d="M 1625,6352 L 1721,6352 1721,6448 1625,6448 1625,6352 1625,6352 Z"/>
        <path fill="rgb(108,113,117)" stroke="none" d="M 1529,6256 L 1625,6256 1625,6352 1529,6352 1529,6256 1529,6256 Z"/>
        <path fill="rgb(108,113,117)" stroke="none" d="M 2104,6256 L 2200,6256 2200,6352 2104,6352 2104,6256 2104,6256 Z"/>
        <path fill="rgb(108,113,117)" stroke="none" d="M 2200,6352 L 2296,6352 2296,6448 2200,6448 2200,6352 2200,6352 Z"/>
        <path fill="rgb(108,113,117)" stroke="none" d="M 2392,6352 L 2487,6352 2487,6448 2392,6448 2392,6352 2392,6352 Z"/>
        <path fill="rgb(108,113,117)" stroke="none" d="M 2008,6352 L 2104,6352 2104,6448 2008,6448 2008,6352 2008,6352 Z"/>
        <path fill="rgb(108,113,117)" stroke="none" d="M 2296,6256 L 2392,6256 2392,6352 2296,6352 2296,6256 2296,6256 Z"/>
        <path fill="rgb(108,113,117)" stroke="none" d="M 1721,6256 L 1817,6256 1817,6352 1721,6352 1721,6256 1721,6256 Z"/>
        <path fill="rgb(108,113,117)" stroke="none" d="M 1817,6352 L 1913,6352 1913,6448 1817,6448 1817,6352 1817,6352 Z"/>
        <path fill="rgb(108,113,117)" stroke="none" d="M 2008,6256 L 2008,6352 1913,6352 1913,6256 2008,6256 Z"/>
        <path fill="rgb(234,157,45)" stroke="none" d="M 1577,5251 L 1769,5251 1769,5442 1577,5442 1577,5251 1577,5251 Z"/>
        <path fill="rgb(251,181,64)" stroke="none" d="M 1577,5346 L 1673,5346 1673,5490 1577,5490 1577,5346 1577,5346 Z"/>
        <path fill="rgb(234,157,45)" stroke="none" d="M 1625,6544 L 2248,6544 2248,6639 1625,6639 1625,6544 1625,6544 Z"/>
        <path fill="rgb(234,157,45)" stroke="none" d="M 3062,6256 L 3158,6256 3158,6352 3062,6352 3062,6256 3062,6256 Z"/>
        <path fill="rgb(234,157,45)" stroke="none" d="M 3062,6544 L 3158,6544 3158,6639 3062,6639 3062,6544 3062,6544 Z"/>
        <path fill="rgb(234,157,45)" stroke="none" d="M 715,6256 L 811,6256 811,6352 715,6352 715,6256 715,6256 Z"/>
        <path fill="rgb(234,157,45)" stroke="none" d="M 715,6544 L 811,6544 811,6639 715,6639 715,6544 715,6544 Z"/>
        <path fill="rgb(251,181,64)" stroke="none" d="M 2392,5634 L 955,5634 963,5515 C 972,5473 1008,5443 1051,5442 L 2304,5442 C 2346,5443 2383,5473 2392,5515 L 2392,5634 2392,5634 Z"/>
        <path fill="rgb(217,217,217)" stroke="none" d="M 1051,5634 L 1146,5634 1146,6113 1051,6113 1051,5634 1051,5634 Z"/>
        <path fill="rgb(217,217,217)" stroke="none" d="M 1338,5634 L 1961,5634 1961,6113 1338,6113 1338,5634 1338,5634 Z"/>
        <path fill="rgb(240,240,240)" stroke="none" d="M 1338,5729 L 1865,5729 1865,6113 1338,6113 1338,5729 1338,5729 Z"/>
        <path fill="rgb(240,240,240)" stroke="none" d="M 2152,5729 L 2152,6113 2631,6113 2324,5729 2152,5729 2152,5729 Z"/>
        <path fill="rgb(0,0,0)" stroke="none" d="M 3062,6831 L 3014,6831 C 2988,6831 2966,6810 2966,6783 2966,6757 2988,6735 3014,6735 L 3062,6735 C 3194,6735 3301,6628 3301,6496 L 3301,6400 C 3301,6268 3194,6161 3062,6161 L 763,6161 C 684,6161 620,6225 620,6304 L 620,6592 C 620,6671 684,6735 763,6735 L 859,6735 C 885,6735 907,6757 907,6783 907,6810 885,6831 859,6831 L 763,6831 C 631,6831 524,6724 524,6592 L 524,6304 C 524,6172 631,6065 763,6065 L 3062,6065 C 3247,6065 3397,6215 3397,6400 L 3397,6496 C 3397,6681 3247,6831 3062,6831 L 3062,6831 Z"/>
        <path fill="rgb(0,0,0)" stroke="none" d="M 2344,6831 L 1482,6831 C 1455,6831 1434,6810 1434,6783 1434,6757 1455,6735 1482,6735 L 2344,6735 C 2370,6735 2392,6757 2392,6783 2392,6810 2370,6831 2344,6831 L 2344,6831 Z"/>
        <path fill="rgb(0,0,0)" stroke="none" d="M 1194,7118 C 1009,7118 859,6968 859,6783 859,6598 1009,6448 1194,6448 1379,6448 1529,6598 1529,6783 1529,6968 1379,7118 1194,7118 L 1194,7118 Z M 1194,6544 C 1062,6544 955,6651 955,6783 955,6915 1062,7023 1194,7023 1326,7023 1434,6915 1434,6783 1434,6651 1326,6544 1194,6544 L 1194,6544 Z"/>
        <path fill="rgb(0,0,0)" stroke="none" d="M 1194,6927 C 1115,6927 1051,6862 1051,6783 1051,6704 1115,6639 1194,6639 1273,6639 1338,6704 1338,6783 1338,6862 1273,6927 1194,6927 L 1194,6927 Z M 1194,6735 C 1168,6735 1146,6757 1146,6783 1146,6809 1168,6831 1194,6831 1221,6831 1242,6809 1242,6783 1242,6757 1221,6735 1194,6735 L 1194,6735 Z"/>
        <path fill="rgb(0,0,0)" stroke="none" d="M 2679,7118 C 2494,7118 2344,6968 2344,6783 2344,6598 2494,6448 2679,6448 2864,6448 3014,6598 3014,6783 3014,6968 2864,7118 2679,7118 L 2679,7118 Z M 2679,6544 C 2547,6544 2439,6651 2439,6783 2439,6915 2547,7023 2679,7023 2811,7023 2918,6915 2918,6783 2918,6651 2811,6544 2679,6544 L 2679,6544 Z"/>
        <path fill="rgb(0,0,0)" stroke="none" d="M 2679,6927 C 2600,6927 2535,6862 2535,6783 2535,6704 2600,6639 2679,6639 2758,6639 2823,6704 2823,6783 2823,6862 2758,6927 2679,6927 L 2679,6927 Z M 2679,6735 C 2652,6735 2631,6757 2631,6783 2631,6809 2652,6831 2679,6831 2705,6831 2727,6809 2727,6783 2727,6757 2705,6735 2679,6735 L 2679,6735 Z"/>
        <path fill="rgb(0,0,0)" stroke="none" d="M 2152,6161 L 1961,6161 C 1934,6161 1913,6139 1913,6113 L 1913,5634 C 1913,5607 1934,5586 1961,5586 L 2152,5586 C 2179,5586 2200,5607 2200,5634 L 2200,6113 C 2200,6139 2179,6161 2152,6161 L 2152,6161 Z M 2008,6065 L 2104,6065 2104,5682 2008,5682 2008,6065 2008,6065 Z"/>
        <path fill="rgb(0,0,0)" stroke="none" d="M 1338,6161 L 1146,6161 C 1120,6161 1098,6139 1098,6113 L 1098,5634 C 1098,5607 1120,5586 1146,5586 L 1338,5586 C 1364,5586 1386,5607 1386,5634 L 1386,6113 C 1386,6139 1364,6161 1338,6161 Z M 1290,6065 L 1290,5682 1194,5682 1194,6065 1290,6065 Z"/>
        <path fill="rgb(0,0,0)" stroke="none" d="M 1386,6352 L 1338,6352 1338,6256 1434,6256 1434,6352 1386,6352 Z"/>
        <path fill="rgb(0,0,0)" stroke="none" d="M 1482,6448 L 1434,6448 1434,6352 1529,6352 1529,6448 1482,6448 Z"/>
        <path fill="rgb(0,0,0)" stroke="none" d="M 1673,6448 L 1625,6448 1625,6352 1721,6352 1721,6448 1673,6448 Z"/>
        <path fill="rgb(0,0,0)" stroke="none" d="M 1577,6352 L 1529,6352 1529,6256 1625,6256 1625,6352 1577,6352 Z"/>
        <path fill="rgb(0,0,0)" stroke="none" d="M 2152,6352 L 2104,6352 2104,6256 2200,6256 2200,6352 2152,6352 Z"/>
        <path fill="rgb(0,0,0)" stroke="none" d="M 2248,6448 L 2200,6448 2200,6352 2296,6352 2296,6448 2248,6448 Z"/>
        <path fill="rgb(0,0,0)" stroke="none" d="M 2439,6448 L 2392,6448 2392,6352 2487,6352 2487,6448 2439,6448 Z"/>
        <path fill="rgb(0,0,0)" stroke="none" d="M 2056,6448 L 2008,6448 2008,6352 2104,6352 2104,6448 2056,6448 Z"/>
        <path fill="rgb(0,0,0)" stroke="none" d="M 2344,6352 L 2296,6352 2296,6256 2392,6256 2392,6352 2344,6352 Z"/>
        <path fill="rgb(0,0,0)" stroke="none" d="M 1769,6352 L 1721,6352 1721,6256 1817,6256 1817,6352 1769,6352 Z"/>
        <path fill="rgb(0,0,0)" stroke="none" d="M 1865,6448 L 1817,6448 1817,6352 1913,6352 1913,6448 1865,6448 Z"/>
        <path fill="rgb(0,0,0)" stroke="none" d="M 1961,6352 L 1913,6352 1913,6256 2008,6256 2008,6352 1961,6352 Z"/>
        <path fill="rgb(0,0,0)" stroke="none" d="M 1769,5490 L 1577,5490 C 1551,5490 1529,5469 1529,5442 L 1529,5251 C 1529,5224 1551,5203 1577,5203 L 1769,5203 C 1795,5203 1817,5224 1817,5251 L 1817,5442 C 1817,5469 1795,5490 1769,5490 L 1769,5490 Z M 1625,5394 L 1721,5394 1721,5298 1625,5298 1625,5394 1625,5394 Z"/>
        <path fill="rgb(0,0,0)" stroke="none" d="M 1937,6639 L 1625,6639 1625,6544 2248,6544 2248,6639 1937,6639 Z"/>
        <path fill="rgb(0,0,0)" stroke="none" d="M 3110,6352 L 3062,6352 3062,6256 3158,6256 3158,6352 3110,6352 Z"/>
        <path fill="rgb(0,0,0)" stroke="none" d="M 3110,6639 L 3062,6639 3062,6544 3158,6544 3158,6639 3110,6639 Z"/>
        <path fill="rgb(0,0,0)" stroke="none" d="M 763,6352 L 715,6352 715,6256 811,6256 811,6352 763,6352 Z"/>
        <path fill="rgb(0,0,0)" stroke="none" d="M 763,6639 L 715,6639 715,6544 811,6544 811,6639 763,6639 Z"/>
        <path fill="rgb(0,0,0)" stroke="none" d="M 2775,6161 L 763,6161 C 747,6161 733,6153 724,6139 715,6126 713,6110 719,6095 L 910,5616 C 918,5598 935,5586 955,5586 L 2392,5586 C 2406,5586 2420,5592 2429,5604 L 2812,6083 C 2824,6097 2826,6117 2818,6133 2810,6150 2793,6161 2775,6161 L 2775,6161 Z M 834,6065 L 2675,6065 2369,5682 987,5682 834,6065 834,6065 Z"/>
        <path fill="rgb(0,0,0)" stroke="none" d="M 2392,5682 L 955,5682 C 942,5682 929,5676 920,5666 911,5657 906,5644 907,5630 L 915,5511 C 915,5509 916,5507 916,5505 930,5441 984,5396 1050,5394 L 2304,5394 C 2370,5396 2425,5441 2438,5505 2439,5508 2439,5511 2439,5515 L 2439,5634 C 2439,5660 2418,5682 2392,5682 L 2392,5682 Z M 1006,5586 L 2344,5586 2344,5521 C 2338,5503 2322,5490 2303,5490 L 1051,5490 C 1032,5490 1016,5503 1011,5522 L 1006,5586 1006,5586 Z"/>
       </g>
      </g>
      <g class="Graphic">
       <g id="id9">
        <rect class="BoundingBox" stroke="none" fill="none" x="4200" y="5307" width="1594" height="1594"/>
        <path fill="rgb(153,185,101)" stroke="none" d="M 4997,5539 L 5424,6668 5526,6668 C 5583,6668 5631,6622 5633,6565 L 5663,5744 4997,5539 4997,5539 Z"/>
        <path fill="rgb(165,217,107)" stroke="none" d="M 5219,6633 L 4774,6633 4774,6668 4467,6668 C 4410,6668 4362,6622 4360,6565 L 4330,5744 4997,5539 5561,5744 5530,6565 C 5528,6622 5480,6668 5424,6668 L 5219,6668 5219,6633 5219,6633 Z"/>
        <path fill="rgb(128,122,88)" stroke="none" d="M 5492,5539 L 5595,5744 5697,5744 5697,5642 5492,5539 Z"/>
        <path fill="rgb(140,154,95)" stroke="none" d="M 4296,5642 L 4296,5744 5595,5744 5595,5539 4296,5642 Z"/>
        <path fill="rgb(140,154,95)" stroke="none" d="M 5595,5334 L 5492,5334 5595,5642 5697,5642 5697,5437 C 5697,5380 5651,5334 5595,5334 L 5595,5334 Z"/>
        <path fill="rgb(153,185,101)" stroke="none" d="M 5595,5437 L 5595,5642 4296,5642 4296,5437 C 4296,5380 4342,5334 4398,5334 L 5492,5334 C 5549,5334 5595,5380 5595,5437 L 5595,5437 Z"/>
        <path fill="rgb(155,197,255)" stroke="none" d="M 5424,6668 C 5481,6668 5526,6714 5526,6770 5526,6827 5481,6873 5424,6873 L 5356,6770 5424,6668 5424,6668 Z"/>
        <path fill="rgb(205,226,255)" stroke="none" d="M 5424,6668 L 5424,6873 C 5367,6873 5321,6827 5321,6770 5321,6714 5367,6668 5424,6668 L 5424,6668 Z"/>
        <path fill="rgb(155,197,255)" stroke="none" d="M 4569,6668 C 4626,6668 4672,6714 4672,6770 4672,6827 4626,6873 4569,6873 L 4501,6770 4569,6668 4569,6668 Z"/>
        <path fill="rgb(205,226,255)" stroke="none" d="M 4569,6668 L 4569,6873 C 4512,6873 4467,6827 4467,6770 4467,6714 4512,6668 4569,6668 L 4569,6668 Z"/>
        <path fill="rgb(0,0,0)" stroke="none" d="M 4843,5565 L 5150,5565 C 5165,5565 5176,5554 5176,5539 5176,5525 5165,5514 5150,5514 L 4843,5514 C 4828,5514 4817,5525 4817,5539 4817,5554 4828,5565 4843,5565 L 4843,5565 Z"/>
        <path fill="rgb(0,0,0)" stroke="none" d="M 5766,5924 L 5682,5924 5688,5770 5697,5770 C 5712,5770 5723,5759 5723,5744 L 5723,5437 C 5723,5366 5666,5309 5595,5309 L 4398,5309 C 4327,5309 4270,5366 4270,5437 L 4270,5744 C 4270,5759 4281,5770 4296,5770 L 4305,5770 4311,5924 4227,5924 C 4213,5924 4202,5935 4202,5950 4202,5964 4213,5975 4227,5975 L 4313,5975 4335,6566 C 4337,6636 4396,6693 4467,6693 4450,6715 4441,6741 4441,6770 4441,6841 4498,6898 4569,6898 4640,6898 4697,6841 4697,6770 4697,6741 4688,6715 4672,6693 L 4774,6693 C 4788,6693 4800,6682 4800,6668 L 4800,6659 5193,6659 5193,6668 C 5193,6682 5205,6693 5219,6693 L 5321,6693 C 5305,6715 5296,6741 5296,6770 5296,6841 5353,6898 5424,6898 5495,6898 5552,6841 5552,6770 5552,6741 5543,6715 5526,6693 5597,6693 5656,6636 5658,6566 L 5680,5975 5766,5975 C 5780,5975 5791,5964 5791,5950 5791,5935 5780,5924 5766,5924 L 5766,5924 Z M 4398,5360 L 5595,5360 C 5637,5360 5672,5394 5672,5437 L 5672,5616 4501,5616 C 4487,5616 4475,5628 4475,5642 4475,5656 4487,5668 4501,5668 L 5672,5668 5672,5719 4321,5719 4321,5668 4398,5668 C 4412,5668 4424,5656 4424,5642 4424,5628 4412,5616 4398,5616 L 4321,5616 4321,5437 C 4321,5394 4356,5360 4398,5360 L 4398,5360 Z M 4569,6847 C 4527,6847 4492,6813 4492,6770 4492,6737 4514,6708 4543,6698 L 4543,6770 C 4543,6784 4555,6796 4569,6796 4583,6796 4595,6784 4595,6770 L 4595,6698 C 4625,6708 4646,6737 4646,6770 4646,6813 4612,6847 4569,6847 L 4569,6847 Z M 5424,6847 C 5381,6847 5347,6813 5347,6770 5347,6737 5368,6708 5398,6698 L 5398,6770 C 5398,6784 5410,6796 5424,6796 5438,6796 5450,6784 5450,6770 L 5450,6698 C 5479,6708 5501,6737 5501,6770 5501,6813 5466,6847 5424,6847 L 5424,6847 Z M 5607,6564 C 5606,6607 5569,6642 5526,6642 L 5244,6642 5244,6497 C 5244,6483 5233,6471 5219,6471 5205,6471 5193,6483 5193,6497 L 5193,6608 4800,6608 4800,6497 C 4800,6483 4788,6471 4774,6471 4760,6471 4749,6483 4749,6497 L 4749,6642 4467,6642 C 4424,6642 4387,6607 4386,6564 L 4356,5770 4526,5770 4526,5813 C 4526,5827 4538,5839 4552,5839 4566,5839 4578,5827 4578,5813 L 4578,5770 4749,5770 4749,5813 C 4749,5827 4760,5839 4774,5839 4788,5839 4800,5827 4800,5813 L 4800,5770 4971,5770 4971,5813 C 4971,5827 4982,5839 4997,5839 5011,5839 5022,5827 5022,5813 L 5022,5770 5193,5770 5193,5813 C 5193,5827 5205,5839 5219,5839 5233,5839 5244,5827 5244,5813 L 5244,5770 5415,5770 5415,5813 C 5415,5827 5427,5839 5441,5839 5455,5839 5467,5827 5467,5813 L 5467,5770 5637,5770 5607,6564 5607,6564 Z"/>
       </g>
      </g>
      <g class="Graphic">
       <g id="id10">
        <rect class="BoundingBox" stroke="none" fill="none" x="2500" y="7700" width="1401" height="1401"/>
        <path fill="rgb(131,131,131)" stroke="none" d="M 2987,7867 L 2987,7735 C 2987,7728 2993,7721 3001,7721 L 3269,7721 C 3277,7721 3283,7728 3283,7735 L 3283,7867 C 3283,7874 3277,7881 3269,7881 L 3001,7881 C 2993,7881 2987,7874 2987,7867 L 2987,7867 Z"/>
        <path fill="rgb(90,90,90)" stroke="none" d="M 3237,7881 L 3237,7721 3269,7721 C 3277,7721 3283,7728 3283,7735 L 3283,7867 C 3283,7874 3277,7881 3269,7881 L 3237,7881 Z"/>
        <path fill="rgb(191,191,191)" stroke="none" d="M 3086,7881 L 3183,7881 3183,7982 3086,7982 3086,7881 Z"/>
        <path fill="rgb(172,172,172)" stroke="none" d="M 3135,7881 L 3183,7881 3183,7982 3135,7982 3135,7881 Z"/>
        <path fill="rgb(255,205,107)" stroke="none" d="M 2816,8576 L 2624,8457 C 2617,8453 2615,8445 2619,8439 L 2642,8398 C 2646,8391 2655,8389 2661,8393 L 2816,8491 2816,8576 Z"/>
        <path fill="rgb(255,205,107)" stroke="none" d="M 2816,8883 L 2624,8765 C 2617,8761 2615,8753 2619,8746 L 2642,8706 C 2646,8699 2655,8697 2661,8701 L 2816,8798 2816,8883 Z"/>
        <path fill="rgb(191,191,191)" stroke="none" d="M 2996,9079 L 2816,9079 2816,8204 C 2816,8197 2822,8191 2830,8191 L 2996,8191 2996,9079 Z"/>
        <path fill="rgb(172,172,172)" stroke="none" d="M 2933,8191 L 2996,8191 2996,9079 2933,9079 2933,8191 Z"/>
        <path fill="rgb(255,205,107)" stroke="none" d="M 2996,8191 L 3785,8191 3785,9079 2996,9079 2996,8191 Z"/>
        <path fill="rgb(255,193,67)" stroke="none" d="M 3724,8191 L 3785,8191 3785,9079 3724,9079 3724,8191 Z"/>
        <path fill="rgb(131,131,131)" stroke="none" d="M 2996,8604 L 3785,8604 3785,8842 2996,8842 2996,8604 Z"/>
        <path fill="rgb(131,131,131)" stroke="none" d="M 2996,8841 L 3785,8841 3785,9079 2996,9079 2996,8841 Z"/>
        <path fill="rgb(90,90,90)" stroke="none" d="M 3724,8604 L 3785,8604 3785,8842 3724,8842 3724,8604 Z"/>
        <path fill="rgb(90,90,90)" stroke="none" d="M 3724,8841 L 3785,8841 3785,9079 3724,9079 3724,8841 Z"/>
        <path fill="rgb(191,191,191)" stroke="none" d="M 3276,8695 C 3268,8695 3262,8689 3262,8681 L 3262,8604 3518,8604 3518,8681 C 3518,8689 3512,8695 3505,8695 L 3276,8695 Z"/>
        <path fill="rgb(191,191,191)" stroke="none" d="M 3276,8932 C 3268,8932 3262,8926 3262,8918 L 3262,8841 3518,8841 3518,8918 C 3518,8926 3512,8932 3505,8932 L 3276,8932 Z"/>
        <path fill="rgb(172,172,172)" stroke="none" d="M 3464,8695 L 3464,8604 3518,8604 3518,8681 C 3518,8689 3512,8695 3505,8695 L 3464,8695 Z"/>
        <path fill="rgb(172,172,172)" stroke="none" d="M 3464,8932 L 3464,8841 3518,8841 3518,8918 C 3518,8926 3512,8932 3505,8932 L 3464,8932 Z"/>
        <path fill="rgb(191,191,191)" stroke="none" d="M 2996,8191 L 3785,8191 3785,8466 2996,8466 2996,8191 Z"/>
        <path fill="rgb(172,172,172)" stroke="none" d="M 3724,8191 L 3785,8191 3785,8466 3724,8466 3724,8191 Z"/>
        <path fill="rgb(154,231,253)" stroke="none" d="M 3110,8279 L 3313,8279 3313,8378 3110,8378 3110,8279 Z"/>
        <path fill="rgb(100,220,252)" stroke="none" d="M 3262,8279 L 3313,8279 3313,8378 3262,8378 3262,8279 Z"/>
        <path fill="rgb(0,0,0)" stroke="none" d="M 3404,8297 C 3404,8306 3396,8314 3387,8314 3377,8314 3370,8306 3370,8297 3370,8287 3377,8280 3387,8280 3396,8280 3404,8287 3404,8297 L 3404,8297 Z"/>
        <path fill="rgb(0,0,0)" stroke="none" d="M 3464,8297 C 3464,8306 3457,8314 3447,8314 3438,8314 3430,8306 3430,8297 3430,8287 3438,8280 3447,8280 3457,8280 3464,8287 3464,8297 L 3464,8297 Z"/>
        <path fill="rgb(0,0,0)" stroke="none" d="M 3525,8297 C 3525,8306 3518,8314 3508,8314 3499,8314 3491,8306 3491,8297 3491,8287 3499,8280 3508,8280 3518,8280 3525,8287 3525,8297 L 3525,8297 Z"/>
        <path fill="rgb(0,0,0)" stroke="none" d="M 3404,8360 C 3404,8369 3396,8377 3387,8377 3377,8377 3370,8369 3370,8360 3370,8351 3377,8343 3387,8343 3396,8343 3404,8351 3404,8360 L 3404,8360 Z"/>
        <path fill="rgb(0,0,0)" stroke="none" d="M 3464,8360 C 3464,8369 3457,8377 3447,8377 3438,8377 3430,8369 3430,8360 3430,8351 3438,8343 3447,8343 3457,8343 3464,8351 3464,8360 L 3464,8360 Z"/>
        <path fill="rgb(0,0,0)" stroke="none" d="M 3525,8360 C 3525,8369 3518,8377 3508,8377 3499,8377 3491,8369 3491,8360 3491,8351 3499,8343 3508,8343 3518,8343 3525,8351 3525,8360 L 3525,8360 Z"/>
        <path fill="rgb(255,87,87)" stroke="none" d="M 3635,8377 C 3608,8377 3586,8355 3586,8328 3586,8301 3608,8279 3635,8279 3662,8279 3684,8301 3684,8328 3684,8355 3662,8377 3635,8377 Z"/>
        <path fill="rgb(255,67,67)" stroke="none" d="M 3684,8328 C 3684,8355 3662,8377 3635,8377 3613,8377 3594,8362 3588,8341 3594,8344 3601,8345 3608,8345 3635,8345 3657,8324 3657,8297 3657,8292 3656,8288 3655,8284 3672,8291 3684,8308 3684,8328 L 3684,8328 Z"/>
        <path fill="rgb(131,131,131)" stroke="none" d="M 2996,8191 L 2996,7996 C 2996,7988 3002,7982 3010,7982 L 3313,7982 3347,8070 3771,8070 C 3779,8070 3785,8076 3785,8084 L 3785,8191 2996,8191 Z"/>
        <path fill="rgb(90,90,90)" stroke="none" d="M 3785,8191 L 3724,8191 3724,8070 3771,8070 C 3779,8070 3785,8076 3785,8084 L 3785,8191 Z"/>
        <path fill="rgb(0,0,0)" stroke="none" d="M 3313,8398 C 3324,8398 3333,8389 3333,8378 L 3333,8279 C 3333,8268 3324,8258 3313,8258 L 3110,8258 C 3099,8258 3090,8268 3090,8279 L 3090,8378 C 3090,8389 3099,8398 3110,8398 L 3313,8398 Z M 3130,8299 L 3292,8299 3292,8357 3130,8357 3130,8299 Z"/>
        <path fill="rgb(0,0,0)" stroke="none" d="M 3635,8398 C 3674,8398 3705,8367 3705,8328 3705,8290 3674,8259 3635,8259 3597,8259 3566,8290 3566,8328 3566,8367 3597,8398 3635,8398 Z M 3664,8328 C 3664,8344 3651,8357 3635,8357 3620,8357 3607,8344 3607,8328 3607,8313 3620,8300 3635,8300 3651,8300 3664,8313 3664,8328 Z"/>
        <path fill="rgb(0,0,0)" stroke="none" d="M 3622,8049 C 3611,8049 3602,8059 3602,8070 3602,8081 3611,8090 3622,8090 L 3764,8090 3764,8170 3016,8170 3016,8002 3299,8002 3328,8077 C 3331,8085 3338,8090 3347,8090 L 3528,8090 C 3540,8090 3549,8081 3549,8070 3549,8059 3540,8049 3528,8049 L 3361,8049 3343,8002 3689,8002 C 3701,8002 3710,7993 3710,7982 3710,7971 3701,7961 3689,7961 L 3204,7961 3204,7901 3269,7901 C 3288,7901 3303,7886 3303,7867 L 3303,7735 C 3303,7716 3288,7701 3269,7701 L 3001,7701 C 2982,7701 2966,7716 2966,7735 L 2966,7867 C 2966,7886 2982,7901 3001,7901 L 3066,7901 3066,7961 3010,7961 C 2991,7961 2976,7977 2976,7996 L 2976,8170 2830,8170 C 2811,8170 2796,8185 2796,8204 L 2796,8251 C 2796,8262 2805,8272 2816,8272 2828,8272 2837,8262 2837,8251 L 2837,8211 2976,8211 2976,9058 2837,9058 2837,8345 C 2837,8333 2828,8324 2816,8324 2805,8324 2796,8333 2796,8345 L 2796,8454 2672,8376 C 2665,8371 2655,8369 2646,8372 2637,8374 2629,8380 2625,8388 L 2601,8428 C 2592,8444 2597,8465 2613,8474 L 2796,8587 2796,8761 2672,8683 C 2665,8679 2655,8677 2646,8679 2637,8681 2629,8687 2625,8695 L 2601,8736 C 2592,8752 2597,8772 2613,8782 L 2796,8895 2796,9079 C 2796,9090 2805,9099 2816,9099 L 3785,9099 C 3796,9099 3805,9090 3805,9079 L 3805,8084 C 3805,8065 3790,8049 3771,8049 L 3622,8049 Z M 3163,7961 L 3107,7961 3107,7901 3163,7901 3163,7961 Z M 3007,7860 L 3007,7742 3262,7742 3262,7860 3007,7860 Z M 2796,8847 L 2640,8751 2657,8722 2796,8810 2796,8847 Z M 2796,8539 L 2640,8443 2657,8414 2796,8502 2796,8539 Z M 3764,9058 L 3016,9058 3016,8862 3242,8862 3242,8918 C 3242,8937 3257,8952 3276,8952 L 3505,8952 C 3524,8952 3539,8937 3539,8918 L 3539,8862 3764,8862 3764,9058 Z M 3283,8911 L 3283,8862 3498,8862 3498,8911 3283,8911 Z M 3764,8820 L 3016,8820 3016,8624 3242,8624 3242,8681 C 3242,8700 3257,8716 3276,8716 L 3505,8716 C 3524,8716 3539,8700 3539,8681 L 3539,8624 3764,8624 3764,8820 Z M 3283,8675 L 3283,8624 3498,8624 3498,8675 3283,8675 Z M 3764,8583 L 3016,8583 3016,8487 3764,8487 3764,8583 Z M 3764,8446 L 3016,8446 3016,8211 3764,8211 3764,8446 Z"/>
       </g>
      </g>
      <g class="Graphic">
       <g id="id11">
        <rect class="BoundingBox" stroke="none" fill="none" x="3000" y="9800" width="661" height="661"/>
        <path fill="rgb(0,0,0)" stroke="none" d="M 3172,10077 C 3143,10077 3119,10101 3119,10130 3119,10159 3143,10183 3172,10183 3201,10183 3224,10159 3224,10130 3224,10101 3201,10077 3172,10077 L 3172,10077 Z M 3488,10077 C 3459,10077 3436,10101 3436,10130 3436,10159 3459,10183 3488,10183 3517,10183 3541,10159 3541,10130 3541,10101 3517,10077 3488,10077 L 3488,10077 Z M 3330,10077 C 3301,10077 3277,10101 3277,10130 3277,10159 3301,10183 3330,10183 3359,10183 3383,10159 3383,10130 3383,10101 3359,10077 3330,10077 L 3330,10077 Z"/>
       </g>
      </g>
     </g>
    </g>
   </g>
  </g>
 </g>
</svg>