<svg id="Layer_1" enable-background="new 0 0 512 512" height="512" viewBox="0 0 512 512" width="512" xmlns="http://www.w3.org/2000/svg"><g><path d="m480.5 7.5h-449c-13.25 0-24 10.75-24 24v449c0 13.25 10.75 24 24 24h449c13.25 0 24-10.75 24-24v-449c0-13.25-10.75-24-24-24zm-419 461.5c-10.49 0-19-8.51-19-19s8.51-19 19-19 19 8.51 19 19-8.51 19-19 19zm0-388c-10.49 0-19-8.51-19-19s8.51-19 19-19 19 8.51 19 19-8.51 19-19 19zm389 388c-10.49 0-19-8.51-19-19s8.51-19 19-19 19 8.51 19 19-8.51 19-19 19zm0-388c-10.49 0-19-8.51-19-19s8.51-19 19-19 19 8.51 19 19-8.51 19-19 19z" fill="#45d987"/><g><path d="m480.5 7.5h-30c13.25 0 24 10.75 24 24v449c0 13.25-10.75 24-24 24h30c13.25 0 24-10.75 24-24v-449c0-13.25-10.75-24-24-24z" fill="#1eb073"/></g><g fill="#ffc808"><path d="m151 485.5v19h-30v-19c0-8.284 6.716-15 15-15 8.284 0 15 6.716 15 15z"/><path d="m211 485.5v19h-30v-19c0-8.284 6.716-15 15-15 8.284 0 15 6.716 15 15z"/><path d="m271 485.5v19h-30v-19c0-8.284 6.716-15 15-15 8.284 0 15 6.716 15 15z"/><path d="m331 485.5v19h-30v-19c0-8.284 6.716-15 15-15 8.284 0 15 6.716 15 15z"/><path d="m391 485.5v19h-30v-19c0-8.284 6.716-15 15-15 8.284 0 15 6.716 15 15z"/></g><g fill="#ffc808"><path d="m151 26.5v-19h-30v19c0 8.284 6.716 15 15 15 8.284 0 15-6.716 15-15z"/><path d="m211 26.5v-19h-30v19c0 8.284 6.716 15 15 15 8.284 0 15-6.716 15-15z"/><path d="m271 26.5v-19h-30v19c0 8.284 6.716 15 15 15 8.284 0 15-6.716 15-15z"/><path d="m331 26.5v-19h-30v19c0 8.284 6.716 15 15 15 8.284 0 15-6.716 15-15z"/><path d="m391 26.5v-19h-30v19c0 8.284 6.716 15 15 15 8.284 0 15-6.716 15-15z"/></g><path d="m137 119.5h82v82h-82z" fill="#a9dbf5"/><path d="m189 119.5h30v82h-30z" fill="#88c3e0"/><path d="m137 250h82v140h-82z" fill="#43809f"/><path d="m189 250h30v140h-30z" fill="#3a7190"/><path d="m376 156h-48c-11.046 0-20-8.954-20-20 0-11.046 8.954-20 20-20h48c11.046 0 20 8.954 20 20 0 11.046-8.954 20-20 20z" fill="#ffd54f"/><path d="m376 116h-30c11.046 0 20 8.954 20 20 0 11.046-8.954 20-20 20h30c11.046 0 20-8.954 20-20 0-11.046-8.954-20-20-20z" fill="#ffc808"/><path d="m376 216h-48c-11.046 0-20-8.954-20-20 0-11.046 8.954-20 20-20h48c11.046 0 20 8.954 20 20 0 11.046-8.954 20-20 20z" fill="#ffd54f"/><path d="m376 176h-30c11.046 0 20 8.954 20 20 0 11.046-8.954 20-20 20h30c11.046 0 20-8.954 20-20 0-11.046-8.954-20-20-20z" fill="#ffc808"/><path d="m376 276h-48c-11.046 0-20-8.954-20-20 0-11.046 8.954-20 20-20h48c11.046 0 20 8.954 20 20 0 11.046-8.954 20-20 20z" fill="#ffd54f"/><path d="m376 236h-30c11.046 0 20 8.954 20 20 0 11.046-8.954 20-20 20h30c11.046 0 20-8.954 20-20 0-11.046-8.954-20-20-20z" fill="#ffc808"/><path d="m376 336h-48c-11.046 0-20-8.954-20-20 0-11.046 8.954-20 20-20h48c11.046 0 20 8.954 20 20 0 11.046-8.954 20-20 20z" fill="#ffd54f"/><path d="m376 296h-30c11.046 0 20 8.954 20 20 0 11.046-8.954 20-20 20h30c11.046 0 20-8.954 20-20 0-11.046-8.954-20-20-20z" fill="#ffc808"/><path d="m376 396h-48c-11.046 0-20-8.954-20-20 0-11.046 8.954-20 20-20h48c11.046 0 20 8.954 20 20 0 11.046-8.954 20-20 20z" fill="#ffd54f"/><path d="m376 356h-30c11.046 0 20 8.954 20 20 0 11.046-8.954 20-20 20h30c11.046 0 20-8.954 20-20 0-11.046-8.954-20-20-20z" fill="#ffc808"/><g><path d="m480.5 0h-32.819c-4.143 0-7.5 3.358-7.5 7.5s3.357 7.5 7.5 7.5h32.819c9.099 0 16.5 7.402 16.5 16.5v449c0 9.098-7.401 16.5-16.5 16.5h-82v-11.5c0-12.407-10.094-22.5-22.5-22.5s-22.5 10.093-22.5 22.5v11.5h-15v-11.5c0-12.407-10.094-22.5-22.5-22.5s-22.5 10.093-22.5 22.5v11.5h-15v-11.5c0-12.407-10.094-22.5-22.5-22.5-12.407 0-22.5 10.093-22.5 22.5v11.5h-15v-11.5c0-12.407-10.093-22.5-22.5-22.5s-22.5 10.093-22.5 22.5v11.5h-15v-11.5c0-12.407-10.093-22.5-22.5-22.5s-22.5 10.093-22.5 22.5v11.5h-82c-9.098 0-16.5-7.402-16.5-16.5v-352.069c0-4.142-3.358-7.5-7.5-7.5s-7.5 3.358-7.5 7.5v352.069c0 17.369 14.131 31.5 31.5 31.5h449c17.369 0 31.5-14.131 31.5-31.5v-449c0-17.369-14.131-31.5-31.5-31.5zm-352 497v-11.5c0-4.136 3.364-7.5 7.5-7.5s7.5 3.364 7.5 7.5v11.5zm60 0v-11.5c0-4.136 3.364-7.5 7.5-7.5s7.5 3.364 7.5 7.5v11.5zm60 0v-11.5c0-4.136 3.364-7.5 7.5-7.5s7.5 3.364 7.5 7.5v11.5zm60 0v-11.5c0-4.136 3.364-7.5 7.5-7.5s7.5 3.364 7.5 7.5v11.5zm60 0v-11.5c0-4.136 3.364-7.5 7.5-7.5s7.5 3.364 7.5 7.5v11.5z"/><path d="m7.5 103c4.142 0 7.5-3.358 7.5-7.5v-64c0-9.098 7.402-16.5 16.5-16.5h82v11.5c0 12.407 10.093 22.5 22.5 22.5s22.5-10.093 22.5-22.5v-11.5h15v11.5c0 12.407 10.093 22.5 22.5 22.5s22.5-10.093 22.5-22.5v-11.5h15v11.5c0 12.407 10.093 22.5 22.5 22.5 12.406 0 22.5-10.093 22.5-22.5v-11.5h15v11.5c0 12.407 10.094 22.5 22.5 22.5s22.5-10.093 22.5-22.5v-11.5h15v11.5c0 12.407 10.094 22.5 22.5 22.5s22.5-10.093 22.5-22.5v-11.5h17.5c4.143 0 7.5-3.358 7.5-7.5s-3.357-7.5-7.5-7.5h-384.5c-17.369 0-31.5 14.131-31.5 31.5v64c0 4.143 3.358 7.5 7.5 7.5zm376-88v11.5c0 4.136-3.364 7.5-7.5 7.5s-7.5-3.364-7.5-7.5v-11.5zm-60 0v11.5c0 4.136-3.364 7.5-7.5 7.5s-7.5-3.364-7.5-7.5v-11.5zm-60 0v11.5c0 4.136-3.364 7.5-7.5 7.5s-7.5-3.364-7.5-7.5v-11.5zm-60 0v11.5c0 4.136-3.364 7.5-7.5 7.5s-7.5-3.364-7.5-7.5v-11.5zm-60 0v11.5c0 4.136-3.364 7.5-7.5 7.5s-7.5-3.364-7.5-7.5v-11.5z"/><path d="m61.5 35.5c-14.612 0-26.5 11.888-26.5 26.5s11.888 26.5 26.5 26.5 26.5-11.888 26.5-26.5-11.888-26.5-26.5-26.5zm0 38c-6.341 0-11.5-5.159-11.5-11.5s5.159-11.5 11.5-11.5 11.5 5.159 11.5 11.5-5.159 11.5-11.5 11.5z"/><path d="m450.5 88.5c14.612 0 26.5-11.888 26.5-26.5s-11.888-26.5-26.5-26.5-26.5 11.888-26.5 26.5 11.888 26.5 26.5 26.5zm0-38c6.341 0 11.5 5.159 11.5 11.5s-5.159 11.5-11.5 11.5-11.5-5.159-11.5-11.5 5.159-11.5 11.5-11.5z"/><path d="m61.5 423.5c-14.612 0-26.5 11.888-26.5 26.5s11.888 26.5 26.5 26.5 26.5-11.888 26.5-26.5-11.888-26.5-26.5-26.5zm0 38c-6.341 0-11.5-5.159-11.5-11.5s5.159-11.5 11.5-11.5 11.5 5.159 11.5 11.5-5.159 11.5-11.5 11.5z"/><path d="m450.5 476.5c14.612 0 26.5-11.888 26.5-26.5s-11.888-26.5-26.5-26.5-26.5 11.888-26.5 26.5 11.888 26.5 26.5 26.5zm0-38c6.341 0 11.5 5.159 11.5 11.5s-5.159 11.5-11.5 11.5-11.5-5.159-11.5-11.5 5.159-11.5 11.5-11.5z"/><path d="m416 128.5h-13.54c-3.273-11.53-13.896-20-26.46-20h-48c-12.564 0-23.188 8.47-26.46 20h-13.54c-4.143 0-7.5 3.358-7.5 7.5s3.357 7.5 7.5 7.5h13.54c3.273 11.53 13.896 20 26.46 20h48c12.564 0 23.188-8.47 26.46-20h13.54c4.143 0 7.5-3.358 7.5-7.5s-3.357-7.5-7.5-7.5zm-40 20h-48c-6.893 0-12.5-5.607-12.5-12.5s5.607-12.5 12.5-12.5h48c6.893 0 12.5 5.607 12.5 12.5s-5.607 12.5-12.5 12.5z"/><path d="m416 188.5h-13.54c-3.273-11.53-13.896-20-26.46-20h-48c-12.564 0-23.188 8.47-26.46 20h-13.54c-4.143 0-7.5 3.358-7.5 7.5s3.357 7.5 7.5 7.5h13.54c3.273 11.53 13.896 20 26.46 20h48c12.564 0 23.188-8.47 26.46-20h13.54c4.143 0 7.5-3.358 7.5-7.5s-3.357-7.5-7.5-7.5zm-40 20h-48c-6.893 0-12.5-5.607-12.5-12.5s5.607-12.5 12.5-12.5h48c6.893 0 12.5 5.607 12.5 12.5s-5.607 12.5-12.5 12.5z"/><path d="m416 248.5h-13.54c-3.273-11.53-13.896-20-26.46-20h-48c-12.564 0-23.188 8.47-26.46 20h-13.54c-4.143 0-7.5 3.358-7.5 7.5s3.357 7.5 7.5 7.5h13.54c3.273 11.53 13.896 20 26.46 20h48c12.564 0 23.188-8.47 26.46-20h13.54c4.143 0 7.5-3.358 7.5-7.5s-3.357-7.5-7.5-7.5zm-40 20h-48c-6.893 0-12.5-5.607-12.5-12.5s5.607-12.5 12.5-12.5h48c6.893 0 12.5 5.607 12.5 12.5s-5.607 12.5-12.5 12.5z"/><path d="m416 308.5h-13.54c-3.273-11.53-13.896-20-26.46-20h-48c-12.564 0-23.188 8.47-26.46 20h-13.54c-4.143 0-7.5 3.358-7.5 7.5s3.357 7.5 7.5 7.5h13.54c3.273 11.53 13.896 20 26.46 20h48c12.564 0 23.188-8.47 26.46-20h13.54c4.143 0 7.5-3.358 7.5-7.5s-3.357-7.5-7.5-7.5zm-40 20h-48c-6.893 0-12.5-5.607-12.5-12.5s5.607-12.5 12.5-12.5h48c6.893 0 12.5 5.607 12.5 12.5s-5.607 12.5-12.5 12.5z"/><path d="m416 368.5h-13.54c-3.273-11.53-13.896-20-26.46-20h-48c-12.564 0-23.188 8.47-26.46 20h-13.54c-4.143 0-7.5 3.358-7.5 7.5s3.357 7.5 7.5 7.5h13.54c3.273 11.53 13.896 20 26.46 20h48c12.564 0 23.188-8.47 26.46-20h13.54c4.143 0 7.5-3.358 7.5-7.5s-3.357-7.5-7.5-7.5zm-40 20h-48c-6.893 0-12.5-5.607-12.5-12.5s5.607-12.5 12.5-12.5h48c6.893 0 12.5 5.607 12.5 12.5s-5.607 12.5-12.5 12.5z"/><path d="m234 274.628c4.142 0 7.5-3.358 7.5-7.5s-3.358-7.5-7.5-7.5h-7.5v-9.628c0-4.142-3.358-7.5-7.5-7.5h-82c-4.142 0-7.5 3.358-7.5 7.5v9.628h-7.5c-4.142 0-7.5 3.358-7.5 7.5s3.358 7.5 7.5 7.5h7.5v21h-7.5c-4.142 0-7.5 3.358-7.5 7.5s3.358 7.5 7.5 7.5h7.5v19.872h-7.5c-4.142 0-7.5 3.358-7.5 7.5s3.358 7.5 7.5 7.5h7.5v21h-7.5c-4.142 0-7.5 3.358-7.5 7.5s3.358 7.5 7.5 7.5h7.5v8.5c0 4.142 3.358 7.5 7.5 7.5h39.333c4.142 0 7.5-3.358 7.5-7.5s-3.358-7.5-7.5-7.5h-31.833v-125h67v125h-2.889c-4.142 0-7.5 3.358-7.5 7.5s3.358 7.5 7.5 7.5h10.389c4.142 0 7.5-3.358 7.5-7.5v-8.5h7.5c4.142 0 7.5-3.358 7.5-7.5s-3.358-7.5-7.5-7.5h-7.5v-21h7.5c4.142 0 7.5-3.358 7.5-7.5s-3.358-7.5-7.5-7.5h-7.5v-19.872h7.5c4.142 0 7.5-3.358 7.5-7.5s-3.358-7.5-7.5-7.5h-7.5v-21z"/><path d="m234 150c4.142 0 7.5-3.358 7.5-7.5s-3.358-7.5-7.5-7.5h-7.5v-15.5c0-4.142-3.358-7.5-7.5-7.5h-15.5v-7.5c0-4.142-3.358-7.5-7.5-7.5s-7.5 3.358-7.5 7.5v7.5h-21v-7.5c0-4.142-3.358-7.5-7.5-7.5s-7.5 3.358-7.5 7.5v7.5h-15.5c-4.142 0-7.5 3.358-7.5 7.5v15.5h-7.5c-4.142 0-7.5 3.358-7.5 7.5s3.358 7.5 7.5 7.5h7.5v21h-7.5c-4.142 0-7.5 3.358-7.5 7.5s3.358 7.5 7.5 7.5h7.5v15.5c0 4.142 3.358 7.5 7.5 7.5h15.5v7.5c0 4.142 3.358 7.5 7.5 7.5s7.5-3.358 7.5-7.5v-7.5h21v7.5c0 4.142 3.358 7.5 7.5 7.5s7.5-3.358 7.5-7.5v-7.5h15.5c4.142 0 7.5-3.358 7.5-7.5v-15.5h7.5c4.142 0 7.5-3.358 7.5-7.5s-3.358-7.5-7.5-7.5h-7.5v-21zm-22.5 44h-67v-67h67z"/></g></g></svg>