<svg id="Capa_1" enable-background="new 0 0 512 512" height="512" viewBox="0 0 512 512" width="512" xmlns="http://www.w3.org/2000/svg"><g><g><path d="m173.97 383.48v24.549c0 8.947 7.253 16.2 16.2 16.2h20.925c8.947 0 16.2-7.253 16.2-16.2v-24.549z" fill="#5a5a5a"/><path d="m404.558 383.48v24.549c0 8.947 7.253 16.2 16.2 16.2h20.925c8.947 0 16.2-7.253 16.2-16.2v-24.549z" fill="#5a5a5a"/><path d="m481.637 339.691c.37 0 .734.023 1.095.055l-2.346-55.115c-.658-15.468-13.39-27.669-28.871-27.669h-271.177c-15.482 0-28.213 12.201-28.871 27.669l-2.346 55.115c.959-.086 330.029-.055 332.516-.055z" fill="#08a9f1"/><path d="m481.637 383.48h-331.42c-6.71 0-12.15-5.44-12.15-12.15v-19.49c0-6.71 5.44-12.15 12.15-12.15h331.42c6.71 0 12.15 5.44 12.15 12.15v19.49c-.001 6.711-5.44 12.15-12.15 12.15z" fill="#cecece"/><circle cx="200.633" cy="298.354" fill="#fec165" r="17.482"/><circle cx="431.22" cy="298.354" fill="#fec165" r="17.482"/><path d="m378.432 313.339h-125.011c-3.13 0-5.668-2.538-5.668-5.668v-18.633c0-3.13 2.538-5.668 5.668-5.668h125.012c3.13 0 5.668 2.538 5.668 5.668v18.633c-.001 3.13-2.538 5.668-5.669 5.668z" fill="#e2e2e2"/><path d="m440.41 256.962-6.603-78.991c-1.462-17.488-16.083-30.938-33.632-30.938h-168.497c-17.549 0-32.17 13.45-33.632 30.938l-6.603 78.991z" fill="#0290cf"/><path d="m221.851 228.991 4.07-48.688c.249-2.971 2.777-5.297 5.758-5.297h168.496c2.98 0 5.509 2.327 5.758 5.296l4.07 48.689z" fill="#dff6fd"/><path d="m188.972 224.432h-31.612c-3.728 0-6.75 3.022-6.75 6.75v15.655c0 5.592 4.533 10.125 10.125 10.125h30.708l2.647-31.662c-1.603-.56-3.324-.868-5.118-.868z" fill="#01c0fa"/><path d="m474.493 224.432h-31.613c-1.794 0-3.515.308-5.117.867l2.647 31.662h30.708c5.592 0 10.125-4.533 10.125-10.125v-15.655c0-3.727-3.022-6.749-6.75-6.749z" fill="#08a9f1"/><path d="m500.504 459.019h-488.509c-2.207 0-3.996-1.789-3.996-3.996v-26.798c0-2.207 1.789-3.996 3.996-3.996h488.509c2.207 0 3.996 1.789 3.996 3.996v26.798c0 2.207-1.789 3.996-3.996 3.996z" fill="#9c9c9c"/><path d="m71.435 424.229h-23.975c-1.379 0-2.498-1.118-2.498-2.498v-255.364h28.971v255.365c0 1.379-1.118 2.497-2.498 2.497z" fill="#5a5a5a"/><g><path d="m423.438 256.975c15.482 0 28.213 12.201 28.871 27.668l2.343 55.046c16.447.001 26.557.002 26.985.002.37 0 .734.023 1.096.055l-2.346-55.115c-.659-15.468-13.39-27.669-28.871-27.669z" fill="#0290cf"/></g><path d="m372.098 147.046c17.549 0 32.17 13.45 33.632 30.938l6.602 78.978h28.078l-6.604-78.99c-1.462-17.489-16.082-30.938-33.632-30.938z" fill="#017bae"/><path d="m500.504 459.019h-488.509c-2.207 0-3.996-1.789-3.996-3.996v-26.798c0-2.207 1.789-3.996 3.996-3.996h488.509c2.207 0 3.996 1.789 3.996 3.996v26.798c0 2.207-1.789 3.996-3.996 3.996z" fill="#9c9c9c"/><path d="m500.504 424.229h-34.016c2.207 0 3.996 1.789 3.996 3.996v26.798c0 2.207-1.789 3.996-3.996 3.996h34.016c2.207 0 3.996-1.789 3.996-3.996v-26.798c0-2.206-1.789-3.996-3.996-3.996z" fill="#838383"/><path d="m481.637 383.48h-331.42c-6.71 0-12.15-5.44-12.15-12.15v-19.49c0-6.71 5.44-12.15 12.15-12.15h331.42c6.71 0 12.15 5.44 12.15 12.15v19.49c-.001 6.711-5.44 12.15-12.15 12.15z" fill="#cecece"/><path d="m481.636 339.691h-34.016c6.71 0 12.15 5.44 12.15 12.15v19.49c0 6.71-5.439 12.15-12.15 12.15h34.016c6.71 0 12.15-5.44 12.15-12.15v-19.49c0-6.711-5.439-12.15-12.15-12.15z" fill="#bfbfbf"/><path d="m44.962 166.367h28.971v83.044h-28.971z" fill="#444"/><path d="m98.409 221.064h-77.922c-7.172 0-12.987-5.814-12.987-12.987v-142.109c0-7.172 5.814-12.987 12.987-12.987h77.922c7.172 0 12.987 5.814 12.987 12.987v142.109c-.001 7.173-5.815 12.987-12.987 12.987z" fill="#eb5569"/><path d="m98.409 52.981h-25.512c7.172 0 12.987 5.814 12.987 12.987v142.109c0 7.173-5.814 12.987-12.987 12.987h25.512c7.172 0 12.987-5.814 12.987-12.987v-142.109c0-7.173-5.815-12.987-12.987-12.987z" fill="#e53950"/><path d="m377.497 183.509c2.98 0 5.509 2.327 5.758 5.296l3.359 40.186h23.388l-4.07-48.689c-.249-2.97-2.778-5.296-5.758-5.296h-168.495c-2.98 0-5.509 2.327-5.758 5.297l-.268 3.207h151.844z" fill="#c8effe"/><g fill="#444"><path d="m204.617 383.48v24.549c0 8.651-6.787 15.698-15.323 16.155.292.016.58.044.876.044h20.925c8.947 0 16.2-7.253 16.2-16.2v-24.548z"/><path d="m435.205 383.48v24.549c0 8.651-6.787 15.698-15.323 16.155.292.016.58.044.876.044h20.925c8.947 0 16.2-7.253 16.2-16.2v-24.548z"/></g></g><g><path d="m218.447 179.678-4.07 48.688c-.365 4.369 3.085 8.125 7.474 8.125h188.151c4.384 0 7.839-3.752 7.474-8.125l-4.07-48.688c-.569-6.826-6.382-12.173-13.231-12.173h-168.496c-6.848 0-12.659 5.347-13.232 12.173zm180.143 2.827 3.259 38.985h-171.845l3.259-38.985z"/><path d="m175.65 298.354c0 13.775 11.207 24.982 24.982 24.982s24.982-11.207 24.982-24.982-11.207-24.982-24.982-24.982-24.982 11.207-24.982 24.982zm24.983-9.982c5.504 0 9.982 4.479 9.982 9.982s-4.479 9.982-9.982 9.982-9.982-4.479-9.982-9.982 4.478-9.982 9.982-9.982z"/><path d="m431.221 323.337c13.775 0 24.982-11.207 24.982-24.982s-11.207-24.982-24.982-24.982-24.982 11.207-24.982 24.982 11.206 24.982 24.982 24.982zm0-34.965c5.504 0 9.982 4.479 9.982 9.982s-4.479 9.982-9.982 9.982-9.982-4.479-9.982-9.982 4.478-9.982 9.982-9.982z"/><path d="m253.421 320.839h125.012c7.261 0 13.168-5.907 13.168-13.168v-18.634c0-7.261-5.907-13.168-13.168-13.168h-125.012c-7.262 0-13.169 5.907-13.169 13.168v18.634c0 7.261 5.907 13.168 13.169 13.168zm1.831-29.97h121.349v14.97h-121.349z"/><path d="m500.504 416.729h-36.783c1.068-2.696 1.662-5.629 1.662-8.7v-17.049h16.254c10.835 0 19.649-8.814 19.649-19.649v-19.49c0-7.842-4.629-14.607-11.288-17.756l-2.119-49.773c-.356-8.374-3.499-15.965-8.506-21.912 5.568-2.965 9.371-8.825 9.371-15.562v-15.654c0-7.857-6.393-14.25-14.25-14.25h-29.904l-3.309-39.586c-1.772-21.204-19.828-37.813-41.105-37.813h-.519c-4.143 0-7.5 3.357-7.5 7.5s3.357 7.5 7.5 7.5h.519c13.54 0 25.03 10.57 26.158 24.063l5.924 70.865h-232.662c1.21-14.477.785-9.393 1.968-23.537 0-.001 0-.002 0-.003l3.956-47.325c1.128-13.493 12.618-24.063 26.159-24.063h132.978c4.143 0 7.5-3.357 7.5-7.5s-3.357-7.5-7.5-7.5h-132.978c-21.278 0-39.334 16.609-41.106 37.813l-3.309 39.586h-29.904c-7.856 0-14.249 6.393-14.249 14.25v15.654c0 6.737 3.802 12.597 9.37 15.562-5.008 5.948-8.15 13.539-8.507 21.913l-2.118 49.773c-6.659 3.149-11.289 9.914-11.289 17.756v19.49c0 10.835 8.815 19.649 19.65 19.649h16.254v17.049c0 3.071.594 6.005 1.661 8.7h-86.698v-188.166h16.975c11.297 0 20.487-9.19 20.487-20.487v-142.109c0-11.296-9.19-20.486-20.487-20.486h-77.922c-11.297-.001-20.487 9.19-20.487 20.486v75.438c0 4.143 3.357 7.5 7.5 7.5s7.5-3.357 7.5-7.5v-75.438c0-3.025 2.462-5.486 5.487-5.486h77.921c3.025 0 5.487 2.461 5.487 5.486v142.109c0 3.025-2.462 5.487-5.487 5.487-8.01 0-69.474 0-77.921 0-3.025 0-5.487-2.462-5.487-5.487v-31.671c0-4.143-3.357-7.5-7.5-7.5s-7.5 3.357-7.5 7.5v31.671c0 11.297 9.19 20.487 20.487 20.487h16.975v188.165h-25.467c-6.339 0-11.496 5.157-11.496 11.496v26.798c0 6.339 5.157 11.495 11.496 11.495h488.509c6.339 0 11.496-5.156 11.496-11.495v-26.798c0-6.338-5.157-11.496-11.496-11.496zm-50.121-8.7c0 4.797-3.903 8.7-8.7 8.7h-20.925c-4.797 0-8.699-3.903-8.699-8.7v-17.049h38.324zm-215.588-17.049h162.264v17.049c0 3.071.594 6.005 1.662 8.7h-165.588c1.068-2.696 1.662-5.629 1.662-8.7zm238.948-159.047v14.904c0 1.447-1.178 2.625-2.625 2.625-21.033 0-14.376 0-23.809 0l-1.465-17.529zm-22.228 32.529c11.499 0 20.889 8.999 21.378 20.488l2.012 47.239c-156.207-.008-103.585.001-317.955.001l2.011-47.241c.489-11.488 9.879-20.487 21.378-20.487zm-293.405-32.529h27.898l-1.466 17.529c-9.435 0-2.774 0-23.809 0-1.447 0-2.624-1.178-2.624-2.625v-14.904zm-12.544 139.398v-19.49c0-2.396 1.828-4.351 4.158-4.601 13.532-.076 295.975-.05 329.583-.05h2.329c2.563 0 4.649 2.086 4.649 4.65v19.49c0 2.563-2.086 4.649-4.649 4.649-17.9 0-316.591 0-331.42 0-2.564.001-4.65-2.084-4.65-4.648zm35.905 36.698v-17.049h38.324v17.049c0 4.797-3.903 8.7-8.7 8.7h-20.925c-4.797 0-8.699-3.903-8.699-8.7zm-129.009-179.465h13.972v188.165h-13.972zm444.538 222.955h-481.501v-19.789h481.501z"/><path d="m48.119 173.536v-20.548h11.899c16.536 0 29.989-13.453 29.989-29.989s-13.452-29.989-29.988-29.989h-8.36c-10.223 0-18.539 8.316-18.539 18.539v61.987c0 4.143 3.357 7.5 7.5 7.5s7.499-3.357 7.499-7.5zm0-61.987c0-1.951 1.588-3.539 3.539-3.539h8.36c8.265 0 14.989 6.725 14.989 14.989s-6.725 14.989-14.989 14.989h-11.899z"/></g></g></svg>