<?xml version="1.0" encoding="iso-8859-1"?>
<!-- Generator: Adobe Illustrator 19.0.0, SVG Export Plug-In . SVG Version: 6.00 Build 0)  -->
<svg version="1.1" id="Capa_1" xmlns="http://www.w3.org/2000/svg" xmlns:xlink="http://www.w3.org/1999/xlink" x="0px" y="0px"
	 viewBox="0 0 512.001 512.001" style="enable-background:new 0 0 512.001 512.001;" xml:space="preserve">
<path style="fill:#79D1D1;" d="M509.646,418.702L373.232,282.287c-3.095-3.095-8.272-3.095-11.367,0l-79.575,79.575
	c-3.14,3.14-3.14,8.228,0,11.368l136.415,136.415c3.095,3.095,8.272,3.095,11.367,0l79.575-79.575
	C512.786,426.931,512.786,421.842,509.646,418.702z"/>
<g>
	<path style="fill:#73BFBF;" d="M282.288,361.863c-3.14,3.14-3.14,8.228,0,11.368l136.415,136.415c3.095,3.095,8.272,3.095,11.367,0
		l6.127-6.127L288.416,355.736L282.288,361.863z"/>
	<path style="fill:#73BFBF;" d="M430.071,418.703l39.788-39.788l-11.368-11.367l-39.788,39.788L384.6,373.233l39.788-39.788
		l-11.368-11.368l-39.788,39.788l-88.812-88.812c-3.139-3.138-8.228-3.138-11.367,0c-3.14,3.14-3.14,8.228,0,11.368l88.811,88.812
		l-39.788,39.788l11.368,11.368l39.788-39.788l34.103,34.102l-39.788,39.788l11.368,11.368l39.788-39.788l45.472,45.472
		l11.368-11.368L430.071,418.703z"/>
</g>
<path style="fill:#79D1D1;" d="M229.712,138.769L93.298,2.355c-3.095-3.095-8.272-3.095-11.367,0L2.355,81.93
	c-3.14,3.14-3.14,8.228,0,11.368L138.77,229.713c3.095,3.095,8.272,3.095,11.367,0l79.575-79.575
	C232.852,146.998,232.852,141.909,229.712,138.769z"/>
<g>
	<path style="fill:#73BFBF;" d="M8.482,75.802L2.355,81.93c-3.14,3.14-3.14,8.228,0,11.368L138.77,229.713
		c3.095,3.095,8.272,3.095,11.367,0l6.127-6.128L8.482,75.802z"/>
	<path style="fill:#73BFBF;" d="M238.949,227.58l-88.811-88.812l39.788-39.788l-11.368-11.368L138.77,127.4l-34.103-34.102
		l39.788-39.788l-11.368-11.368L93.298,81.93L47.827,36.458L36.458,47.826L81.93,93.298l-39.788,39.788l11.368,11.367l39.788-39.788
		l34.103,34.102l-39.788,39.788l11.368,11.368l39.788-39.788l88.812,88.812c1.569,1.569,3.626,2.354,5.684,2.354
		c2.058,0,4.115-0.785,5.684-2.354C242.088,235.81,242.088,230.72,238.949,227.58z"/>
</g>
<path style="fill:#F09C48;" d="M392.415,119.586c-2.274-2.275-5.684-2.975-8.669-1.779l-56.839,22.735
	c-2.509,1.004-4.346,3.2-4.888,5.847c-0.544,2.647,0.279,5.389,2.19,7.301l34.103,34.103c1.523,1.522,3.574,2.354,5.684,2.354
	c0.538,0,1.079-0.054,1.616-0.164c2.647-0.544,4.844-2.38,5.847-4.889l22.735-56.839C395.388,125.27,394.689,121.86,392.415,119.586
	z"/>
<path style="fill:#EDBC53;" d="M415.15,221.896L290.104,96.85c-3.095-3.095-8.272-3.095-11.367,0
	c-37.61,37.61-37.61,98.806,0,136.416c18.219,18.219,42.442,28.252,68.207,28.252s49.988-10.033,68.207-28.252
	C418.29,230.125,418.29,225.036,415.15,221.896z"/>
<path style="fill:#F09C48;" d="M361.056,246.737c-25.766,0-49.988-10.033-68.207-28.252
	c-33.602-33.602-37.156-86.018-10.715-123.633c-1.252,0.362-2.427,1.027-3.397,1.998c-37.61,37.61-37.61,98.806,0,136.416
	c18.219,18.219,42.442,28.252,68.207,28.252s49.988-10.033,68.207-28.252c1.319-1.319,2.077-2.985,2.288-4.703
	C401.126,240.362,381.582,246.737,361.056,246.737z"/>
<path style="fill:#645BA5;" d="M256,278.735L233.265,256c-3.138-3.137-8.227-3.137-11.367,0l-17.052,17.051
	c-1.507,1.507-2.354,3.552-2.354,5.684s0.847,4.176,2.354,5.684l22.735,22.736c1.507,1.507,3.552,2.354,5.684,2.354
	s4.177-0.847,5.684-2.354l17.052-17.052c1.507-1.508,2.354-3.552,2.354-5.684S257.508,280.243,256,278.735z"/>
<path style="fill:#C8C6D4;" d="M301.472,256L256,210.528c-3.139-3.137-8.228-3.138-11.367,0l-34.103,34.102
	c-1.507,1.508-2.354,3.552-2.354,5.684c0,2.132,0.847,4.176,2.354,5.684l45.472,45.472c1.569,1.569,3.626,2.354,5.684,2.354
	c2.057,0,4.115-0.785,5.684-2.354l34.103-34.102c1.507-1.508,2.354-3.552,2.354-5.684S302.98,257.508,301.472,256z"/>
<g>
	<path style="fill:#645BA5;" d="M485.831,122.629c-4.439,0-8.038-3.599-8.038-8.038c0-21.471-8.362-41.656-23.544-56.838
		c-15.182-15.183-35.368-23.545-56.84-23.545c-4.439,0-8.038-3.599-8.038-8.038s3.599-8.038,8.038-8.038
		c25.766,0,49.988,10.034,68.207,28.253s28.253,42.441,28.253,68.207C493.869,119.03,490.27,122.629,485.831,122.629z"/>
	<path style="fill:#645BA5;" d="M453.677,122.629c-4.439,0-8.038-3.599-8.038-8.038c0-12.882-5.017-24.994-14.126-34.102
		c-9.109-9.109-21.221-14.127-34.103-14.127c-4.439,0-8.038-3.599-8.038-8.038s3.599-8.038,8.038-8.038
		c17.177,0,33.326,6.689,45.472,18.835s18.835,28.295,18.835,45.472C461.715,119.03,458.117,122.629,453.677,122.629z"/>
	<path style="fill:#645BA5;" d="M421.524,122.629c-4.439,0-8.038-3.599-8.038-8.038c0-4.293-1.672-8.331-4.708-11.367
		s-7.075-4.709-11.369-4.71c-4.439-0.001-8.037-3.6-8.037-8.039s3.6-8.037,8.038-8.037h0.001c8.588,0.001,16.662,3.346,22.734,9.418
		c6.073,6.073,9.418,14.146,9.418,22.735C429.562,119.03,425.964,122.629,421.524,122.629z"/>
</g>
<g>
</g>
<g>
</g>
<g>
</g>
<g>
</g>
<g>
</g>
<g>
</g>
<g>
</g>
<g>
</g>
<g>
</g>
<g>
</g>
<g>
</g>
<g>
</g>
<g>
</g>
<g>
</g>
<g>
</g>
</svg>
