<?xml version="1.0" encoding="UTF-8"?>
<!DOCTYPE svg PUBLIC "-//W3C//DTD SVG 1.1//EN" "http://www.w3.org/Graphics/SVG/1.1/DTD/svg11.dtd">
<svg version="1.2" width="160mm" height="65mm" viewBox="0 0 16000 6500" preserveAspectRatio="xMidYMid" fill-rule="evenodd" stroke-width="28.222" stroke-linejoin="round" xmlns="http://www.w3.org/2000/svg" xmlns:ooo="http://xml.openoffice.org/svg/export" xmlns:xlink="http://www.w3.org/1999/xlink" xmlns:presentation="http://sun.com/xmlns/staroffice/presentation" xmlns:smil="http://www.w3.org/2001/SMIL20/" xmlns:anim="urn:oasis:names:tc:opendocument:xmlns:animation:1.0" xml:space="preserve">
 <defs class="ClipPathGroup">
  <clipPath id="presentation_clip_path" clipPathUnits="userSpaceOnUse">
   <rect x="0" y="0" width="16000" height="6500"/>
  </clipPath>
  <clipPath id="presentation_clip_path_shrink" clipPathUnits="userSpaceOnUse">
   <rect x="16" y="6" width="15968" height="6487"/>
  </clipPath>
 </defs>
 <defs class="TextShapeIndex">
  <g ooo:slide="id1" ooo:id-list="id3 id4 id5 id6 id7"/>
 </defs>
 <defs class="EmbeddedBulletChars">
  <g id="bullet-char-template-57356" transform="scale(0.00048828125,-0.00048828125)">
   <path d="M 580,1141 L 1163,571 580,0 -4,571 580,1141 Z"/>
  </g>
  <g id="bullet-char-template-57354" transform="scale(0.00048828125,-0.00048828125)">
   <path d="M 8,1128 L 1137,1128 1137,0 8,0 8,1128 Z"/>
  </g>
  <g id="bullet-char-template-10146" transform="scale(0.00048828125,-0.00048828125)">
   <path d="M 174,0 L 602,739 174,1481 1456,739 174,0 Z M 1358,739 L 309,1346 659,739 1358,739 Z"/>
  </g>
  <g id="bullet-char-template-10132" transform="scale(0.00048828125,-0.00048828125)">
   <path d="M 2015,739 L 1276,0 717,0 1260,543 174,543 174,936 1260,936 717,1481 1274,1481 2015,739 Z"/>
  </g>
  <g id="bullet-char-template-10007" transform="scale(0.00048828125,-0.00048828125)">
   <path d="M 0,-2 C -7,14 -16,27 -25,37 L 356,567 C 262,823 215,952 215,954 215,979 228,992 255,992 264,992 276,990 289,987 310,991 331,999 354,1012 L 381,999 492,748 772,1049 836,1024 860,1049 C 881,1039 901,1025 922,1006 886,937 835,863 770,784 769,783 710,716 594,584 L 774,223 C 774,196 753,168 711,139 L 727,119 C 717,90 699,76 672,76 641,76 570,178 457,381 L 164,-76 C 142,-110 111,-127 72,-127 30,-127 9,-110 8,-76 1,-67 -2,-52 -2,-32 -2,-23 -1,-13 0,-2 Z"/>
  </g>
  <g id="bullet-char-template-10004" transform="scale(0.00048828125,-0.00048828125)">
   <path d="M 285,-33 C 182,-33 111,30 74,156 52,228 41,333 41,471 41,549 55,616 82,672 116,743 169,778 240,778 293,778 328,747 346,684 L 369,508 C 377,444 397,411 428,410 L 1163,1116 C 1174,1127 1196,1133 1229,1133 1271,1133 1292,1118 1292,1087 L 1292,965 C 1292,929 1282,901 1262,881 L 442,47 C 390,-6 338,-33 285,-33 Z"/>
  </g>
  <g id="bullet-char-template-9679" transform="scale(0.00048828125,-0.00048828125)">
   <path d="M 813,0 C 632,0 489,54 383,161 276,268 223,411 223,592 223,773 276,916 383,1023 489,1130 632,1184 813,1184 992,1184 1136,1130 1245,1023 1353,916 1407,772 1407,592 1407,412 1353,268 1245,161 1136,54 992,0 813,0 Z"/>
  </g>
  <g id="bullet-char-template-8226" transform="scale(0.00048828125,-0.00048828125)">
   <path d="M 346,457 C 273,457 209,483 155,535 101,586 74,649 74,723 74,796 101,859 155,911 209,963 273,989 346,989 419,989 480,963 531,910 582,859 608,796 608,723 608,648 583,586 532,535 482,483 420,457 346,457 Z"/>
  </g>
  <g id="bullet-char-template-8211" transform="scale(0.00048828125,-0.00048828125)">
   <path d="M -4,459 L 1135,459 1135,606 -4,606 -4,459 Z"/>
  </g>
  <g id="bullet-char-template-61548" transform="scale(0.00048828125,-0.00048828125)">
   <path d="M 173,740 C 173,903 231,1043 346,1159 462,1274 601,1332 765,1332 928,1332 1067,1274 1183,1159 1299,1043 1357,903 1357,740 1357,577 1299,437 1183,322 1067,206 928,148 765,148 601,148 462,206 346,322 231,437 173,577 173,740 Z"/>
  </g>
 </defs>
 <g>
  <g id="id2" class="Master_Slide">
   <g id="bg-id2" class="Background"/>
   <g id="bo-id2" class="BackgroundObjects"/>
  </g>
 </g>
 <g class="SlideGroup">
  <g>
   <g id="container-id1">
    <g id="id1" class="Slide" clip-path="url(#presentation_clip_path)">
     <g class="Page">
      <g class="Graphic">
       <g id="id3">
        <rect class="BoundingBox" stroke="none" fill="none" x="768" y="969" width="4321" height="4321"/>
        <defs>
         <clipPath id="clip_path_1" clipPathUnits="userSpaceOnUse">
          <path d="M 768,969 L 5088,969 5088,5289 768,5289 768,969 Z"/>
         </clipPath>
        </defs>
        <g clip-path="url(#clip_path_1)">
         <path fill="rgb(238,250,255)" stroke="none" d="M 3941,3720 L 3941,3045 2877,3720 2877,3045 C 2807,3091 1898,3698 1865,3720 L 1865,3045 C 1797,3090 964,3645 852,3720 L 852,4563 5004,4563 5004,3045 3941,3720 Z"/>
         <path fill="rgb(255,218,143)" stroke="none" d="M 852,4563 L 5004,4563 5004,5070 852,5070 852,4563 Z"/>
         <path fill="rgb(238,250,255)" stroke="none" d="M 3603,1188 L 4616,1188 C 4616,1375 4464,1526 4278,1526 L 3894,1526 C 3835,1626 3728,1695 3603,1695 L 2591,1695 C 2591,1508 2742,1357 2928,1357 L 3312,1357 C 3371,1257 3478,1188 3603,1188 L 3603,1188 Z"/>
         <path fill="rgb(179,241,255)" stroke="none" d="M 3266,4057 L 3266,5070 4278,5070 C 4278,4947 4278,4180 4278,4057 4156,4057 3389,4057 3266,4057 L 3266,4057 Z"/>
         <path fill="rgb(193,176,181)" stroke="none" d="M 2739,2370 L 2805,3093 2241,3469 2340,2370 2739,2370 Z"/>
         <path fill="rgb(255,146,86)" stroke="none" d="M 2709,2032 L 2739,2370 2340,2370 2371,2032 2709,2032 Z"/>
         <path fill="rgb(238,250,255)" stroke="none" d="M 1578,1357 L 2253,1357 C 2253,1544 2102,1695 1916,1695 L 1241,1695 C 1241,1508 1392,1357 1578,1357 L 1578,1357 Z"/>
         <path fill="rgb(179,241,255)" stroke="none" d="M 1527,4057 L 1527,5070 2540,5070 C 2540,4947 2540,4180 2540,4057 2417,4057 1651,4057 1527,4057 L 1527,4057 Z"/>
         <path fill="rgb(193,176,181)" stroke="none" d="M 1558,2370 L 1633,3199 1048,3589 1159,2370 1558,2370 Z"/>
         <path fill="rgb(255,146,86)" stroke="none" d="M 1527,2032 L 1558,2370 1159,2370 1190,2032 1527,2032 Z"/>
         <path fill="rgb(0,0,0)" stroke="none" d="M 1241,1779 L 1916,1779 C 2148,1779 2337,1590 2337,1357 2337,1311 2300,1273 2253,1273 L 1578,1273 C 1345,1273 1156,1462 1156,1695 1156,1741 1194,1779 1241,1779 Z M 2154,1441 C 2119,1540 2026,1610 1916,1610 L 1339,1610 C 1374,1512 1468,1442 1578,1441 L 2154,1441 Z"/>
         <path fill="rgb(0,0,0)" stroke="none" d="M 3603,1779 C 3735,1779 3860,1715 3939,1610 L 4278,1610 C 4511,1610 4700,1421 4700,1188 4700,1142 4662,1104 4616,1104 L 3603,1104 C 3471,1104 3346,1168 3267,1273 L 2928,1273 C 2695,1273 2506,1462 2506,1695 2506,1741 2544,1779 2591,1779 L 3603,1779 Z M 2928,1442 L 3312,1442 C 3342,1442 3370,1426 3385,1400 3431,1320 3513,1273 3603,1273 L 4517,1273 C 4482,1371 4388,1442 4278,1442 L 3894,1442 C 3864,1442 3836,1457 3821,1483 3775,1563 3693,1610 3603,1610 L 2689,1610 C 2724,1512 2818,1442 2928,1442 Z"/>
         <path fill="rgb(0,0,0)" stroke="none" d="M 5088,3812 C 5088,3827 5084,3842 5077,3855 5069,3867 5059,3878 5046,3886 5033,3893 5018,3897 5004,3897 4989,3897 4974,3893 4961,3886 4949,3878 4938,3867 4931,3855 4923,3842 4919,3827 4919,3812 4919,3798 4923,3783 4931,3770 4938,3757 4949,3747 4961,3739 4974,3732 4989,3728 5004,3728 5018,3728 5033,3732 5046,3739 5059,3747 5069,3757 5077,3770 5084,3783 5088,3798 5088,3812 L 5088,3812 Z"/>
         <path fill="rgb(0,0,0)" stroke="none" d="M 4958,2973 L 4025,3566 4025,3045 C 4025,3014 4008,2986 3981,2971 3954,2956 3921,2957 3895,2973 L 2962,3566 2962,3045 C 2962,3014 2945,2985 2917,2970 2905,2964 2891,2960 2878,2960 2862,2783 2814,2260 2793,2024 2789,1981 2752,1948 2709,1948 L 2371,1948 C 2327,1948 2291,1981 2287,2024 2271,2200 2171,3297 2160,3421 L 1949,3562 1949,3045 C 1949,3014 1932,2985 1905,2970 1877,2956 1844,2957 1818,2974 L 1705,3050 C 1685,2836 1630,2225 1611,2024 1607,1981 1571,1948 1527,1948 L 1190,1948 C 1146,1948 1110,1981 1106,2024 1098,2112 977,3442 968,3541 L 806,3649 C 782,3665 768,3691 768,3720 L 768,5070 C 768,5116 806,5154 852,5154 L 5004,5154 C 5050,5154 5088,5116 5088,5070 L 5088,4192 C 5088,4146 5050,4108 5004,4108 4957,4108 4919,4146 4919,4192 L 4919,4479 4362,4479 4362,4057 C 4362,4011 4325,3973 4278,3973 L 3265,3973 C 3219,3973 3181,4011 3181,4057 L 3181,4479 2624,4479 2624,4057 C 2624,4011 2586,3973 2540,3973 L 1527,3973 C 1481,3973 1443,4011 1443,4057 L 1443,4479 937,4479 937,3765 C 2170,2942 697,3925 1780,3202 L 1780,3720 C 1780,3751 1798,3779 1825,3794 1852,3809 1886,3807 1912,3790 L 2793,3202 2793,3720 C 2793,3750 2810,3779 2837,3794 2864,3808 2897,3807 2923,3791 L 3856,3198 3856,3720 C 3856,3750 3873,3779 3900,3794 3927,3808 3960,3807 3986,3791 L 4919,3198 4919,3433 C 4919,3479 4957,3517 5004,3517 5050,3517 5088,3479 5088,3433 L 5088,3045 C 5088,3014 5071,2986 5044,2971 5017,2956 4984,2957 4958,2973 Z M 4919,4648 L 4919,4985 4362,4985 4362,4648 4919,4648 Z M 4194,4985 L 3856,4985 3856,4142 4194,4142 4194,4985 Z M 3350,4142 L 3687,4142 3687,4985 3350,4985 3350,4142 Z M 3181,4648 L 3181,4985 2624,4985 2624,4648 3181,4648 Z M 2456,4985 L 2118,4985 2118,4142 2456,4142 2456,4985 Z M 1612,4142 L 1949,4142 1949,4985 1612,4985 1612,4142 Z M 1443,4648 L 1443,4985 937,4985 937,4648 1443,4648 Z M 1236,2454 L 1481,2454 1545,3157 1148,3421 1236,2454 Z M 1450,2117 L 1466,2285 1252,2285 1267,2117 1450,2117 Z M 2632,2117 L 2647,2285 2433,2285 2448,2117 2632,2117 Z M 2417,2454 L 2662,2454 2716,3050 2341,3301 2417,2454 Z"/>
        </g>
       </g>
      </g>
      <g class="Graphic">
       <g id="id4">
        <rect class="BoundingBox" stroke="none" fill="none" x="11574" y="1900" width="3327" height="3327"/>
        <defs>
         <clipPath id="clip_path_2" clipPathUnits="userSpaceOnUse">
          <path d="M 11574,1900 L 14900,1900 14900,5226 11574,5226 11574,1900 Z"/>
         </clipPath>
        </defs>
        <g clip-path="url(#clip_path_2)">
         <path fill="rgb(138,201,254)" stroke="none" d="M 14504,4267 L 11734,4267 C 11673,4267 11623,4217 11623,4156 L 11623,2624 C 11623,2563 11673,2513 11734,2513 L 14504,2513 C 14566,2513 14615,2563 14615,2624 L 14615,4156 C 14615,4217 14566,4267 14504,4267 L 14504,4267 Z"/>
         <path fill="rgb(96,183,255)" stroke="none" d="M 11734,4267 C 11673,4267 11623,4217 11623,4156 L 11623,2624 C 11623,2563 11673,2513 11734,2513 L 11931,2513 C 11869,2513 11820,2563 11820,2624 L 11820,4156 C 11820,4217 11869,4267 11931,4267 L 11734,4267 Z"/>
         <path fill="rgb(249,243,241)" stroke="none" d="M 14589,4087 C 14607,4087 14622,4101 14622,4119 L 14622,4307 C 14622,4428 14526,4527 14405,4531 14403,4531 14400,4531 14398,4531 L 11841,4531 C 11839,4531 11837,4531 11835,4531 11714,4528 11617,4428 11617,4307 L 11617,4119 C 11617,4101 11632,4087 11650,4087 L 14589,4087 Z"/>
         <path fill="rgb(249,243,241)" stroke="none" d="M 13857,5177 L 12375,5177 C 12329,5177 12292,5140 12292,5094 L 12292,5014 C 12292,4968 12329,4931 12375,4931 L 13857,4931 C 13903,4931 13940,4968 13940,5014 L 13940,5094 C 13940,5140 13903,5177 13857,5177 L 13857,5177 Z"/>
         <path fill="rgb(249,243,241)" stroke="none" d="M 13353,4927 L 13353,4534 12890,4534 12890,4552 12890,4927 13353,4927 Z"/>
         <path fill="rgb(254,100,111)" stroke="none" d="M 12015,4087 L 12015,3818 C 12015,3717 12096,3635 12197,3635 L 12323,3635 C 12424,3635 12505,3717 12505,3818 L 12505,4087 12015,4087 Z"/>
         <path fill="rgb(255,225,119)" stroke="none" d="M 12876,4087 L 12876,3586 C 12876,3485 12958,3403 13058,3403 L 13184,3403 C 13285,3403 13366,3485 13366,3586 L 13366,4087 12876,4087 Z"/>
         <path fill="rgb(108,245,194)" stroke="none" d="M 13737,4087 L 13737,3518 C 13737,3417 13819,3335 13919,3335 L 14046,3335 C 14146,3335 14228,3417 14228,3518 L 14228,4087 13737,4087 Z"/>
         <path fill="rgb(108,245,194)" stroke="none" d="M 14340,2465 L 14130,2933 C 13947,2850 13829,2667 13829,2465 13829,2293 13916,2131 14061,2036 L 14340,2465 Z"/>
         <path fill="rgb(254,100,111)" stroke="none" d="M 14340,2465 L 14850,2440 C 14850,2448 14851,2457 14851,2465 14851,2747 14620,2978 14340,2978 14259,2978 14178,2958 14106,2921 L 14340,2465 Z"/>
         <path fill="rgb(255,225,119)" stroke="none" d="M 14340,2465 L 14058,2038 C 14142,1982 14240,1953 14340,1953 14620,1953 14851,2184 14851,2465 L 14340,2465 Z"/>
         <path fill="rgb(225,211,206)" stroke="none" d="M 11841,4531 C 11839,4531 11837,4531 11835,4531 11714,4528 11617,4428 11617,4307 L 11617,4119 C 11617,4101 11632,4087 11650,4087 L 11847,4087 C 11828,4087 11814,4101 11814,4119 L 11814,4307 C 11814,4428 11911,4528 12032,4531 12034,4531 12036,4531 12038,4531 L 11841,4531 Z"/>
         <path fill="rgb(225,211,206)" stroke="none" d="M 12890,4534 L 13087,4534 13087,4927 12890,4927 12890,4534 Z"/>
         <path fill="rgb(225,211,206)" stroke="none" d="M 12572,5177 L 12375,5177 C 12329,5177 12292,5140 12292,5094 L 12292,5014 C 12292,4968 12329,4931 12375,4931 L 12572,4931 C 12526,4931 12489,4968 12489,5014 L 12489,5094 C 12489,5140 12526,5177 12572,5177 L 12572,5177 Z"/>
         <path fill="rgb(253,71,85)" stroke="none" d="M 12212,3818 L 12212,4086 12015,4086 12015,3818 C 12015,3717 12096,3635 12197,3635 L 12323,3635 C 12335,3635 12347,3637 12358,3639 12275,3655 12212,3729 12212,3818 Z"/>
         <path fill="rgb(255,208,100)" stroke="none" d="M 13220,3407 C 13136,3423 13073,3497 13073,3586 L 13073,4086 12876,4086 12876,3586 C 12876,3485 12958,3403 13058,3403 L 13184,3403 C 13196,3403 13208,3404 13220,3407 L 13220,3407 Z"/>
         <path fill="rgb(0,228,153)" stroke="none" d="M 13934,3518 L 13934,4086 13737,4086 13737,3518 C 13737,3417 13819,3335 13919,3335 L 14046,3335 C 14058,3335 14069,3336 14081,3338 13997,3355 13934,3429 13934,3518 Z"/>
         <path fill="rgb(0,0,0)" stroke="none" d="M 14570,3327 L 14570,4037 14277,4037 14277,3518 C 14277,3390 14173,3286 14046,3286 L 13920,3286 C 13792,3286 13688,3390 13688,3518 L 13688,4037 13416,4037 13416,3586 C 13416,3458 13312,3354 13185,3354 L 13059,3354 C 12931,3354 12827,3458 12827,3586 L 12827,4037 12555,4037 12555,3818 C 12555,3690 12451,3586 12323,3586 L 12197,3586 C 12070,3586 11966,3690 11966,3818 L 11966,4037 11673,4037 11673,3806 C 11673,3779 11651,3757 11624,3757 11597,3757 11575,3779 11575,3806 L 11575,4087 C 11575,4087 11575,4087 11575,4087 L 11575,4307 C 11575,4457 11697,4580 11847,4580 L 12841,4580 12841,4878 12381,4878 C 12308,4878 12249,4937 12249,5010 L 12249,5090 C 12249,5163 12308,5222 12381,5222 L 13862,5222 C 13935,5222 13995,5163 13995,5090 L 13995,5010 C 13995,4937 13935,4878 13862,4878 L 13402,4878 13402,4580 14396,4580 C 14546,4580 14669,4457 14669,4307 L 14669,4087 C 14669,4087 14669,4087 14669,4087 L 14669,3327 C 14669,3300 14647,3278 14619,3278 14592,3278 14570,3300 14570,3327 Z M 13787,3518 C 13787,3444 13846,3384 13920,3384 L 14046,3384 C 14119,3384 14179,3444 14179,3518 L 14179,4037 13787,4037 13787,3518 Z M 12926,3586 C 12926,3512 12985,3452 13059,3452 L 13185,3452 C 13258,3452 13317,3512 13317,3586 L 13317,4037 12926,4037 12926,3586 Z M 12064,3818 C 12064,3745 12124,3685 12197,3685 L 12323,3685 C 12397,3685 12456,3745 12456,3818 L 12456,4037 12064,4037 12064,3818 Z M 13896,5010 L 13896,5090 C 13896,5109 13881,5124 13862,5124 L 12381,5124 C 12362,5124 12347,5109 12347,5090 L 12347,5010 C 12347,4991 12362,4976 12381,4976 L 13862,4976 C 13881,4976 13896,4991 13896,5010 Z M 13304,4878 L 12939,4878 12939,4580 13304,4580 13304,4878 Z M 14570,4307 C 14570,4403 14492,4482 14396,4482 L 11847,4482 C 11751,4482 11673,4403 11673,4307 L 11673,4136 14570,4136 14570,4307 Z"/>
         <path fill="rgb(0,0,0)" stroke="none" d="M 12039,3389 C 12040,3389 12042,3389 12043,3389 12057,3389 12070,3383 12079,3373 L 12237,3203 C 12255,3183 12254,3152 12234,3133 12214,3115 12183,3116 12164,3136 L 12050,3260 11901,3025 C 11886,3002 11856,2995 11833,3010 11810,3024 11803,3055 11818,3078 L 12002,3366 C 12010,3379 12024,3388 12039,3389 L 12039,3389 Z"/>
         <path fill="rgb(0,0,0)" stroke="none" d="M 12363,2997 L 12499,2830 12578,2914 C 12597,2934 12628,2935 12648,2916 12668,2898 12668,2867 12650,2847 L 12532,2722 C 12522,2712 12508,2706 12494,2707 12480,2707 12467,2714 12458,2725 L 12287,2935 C 12270,2956 12273,2987 12294,3004 12303,3012 12314,3015 12325,3015 12340,3015 12354,3009 12363,2997 Z"/>
         <path fill="rgb(0,0,0)" stroke="none" d="M 12804,3047 C 12787,3026 12756,3022 12735,3039 12713,3055 12709,3086 12726,3108 L 12818,3226 C 12827,3238 12841,3245 12856,3245 12856,3245 12857,3245 12857,3245 12871,3245 12885,3238 12895,3227 L 13203,2853 C 13204,2852 13204,2851 13205,2850 L 13230,2923 C 13237,2943 13256,2956 13277,2956 13282,2956 13287,2955 13293,2953 13318,2944 13332,2916 13323,2891 L 13264,2720 C 13256,2698 13233,2684 13210,2688 L 13006,2720 C 12980,2725 12961,2750 12966,2777 12970,2804 12995,2822 13022,2818 L 13117,2802 12858,3117 12804,3047 Z"/>
         <path fill="rgb(0,0,0)" stroke="none" d="M 14340,1904 C 14041,1904 13795,2141 13781,2438 L 11839,2438 C 11693,2438 11575,2557 11575,2703 L 11574,3570 C 11574,3597 11596,3619 11623,3619 L 11623,3619 C 11650,3619 11672,3597 11672,3570 L 11673,2703 C 11673,2611 11747,2537 11839,2537 L 13785,2537 C 13820,2813 14056,3027 14340,3027 14422,3027 14501,3009 14571,2977 L 14572,3098 C 14573,3125 14595,3146 14621,3146 L 14622,3146 C 14649,3146 14671,3124 14671,3097 L 14669,2920 C 14809,2818 14900,2652 14900,2465 14900,2156 14649,1904 14340,1904 Z M 14799,2416 L 14367,2416 14126,2055 C 14190,2021 14263,2002 14340,2002 14578,2002 14774,2184 14799,2416 Z M 14044,2110 L 14284,2470 14102,2862 C 13968,2781 13879,2633 13879,2465 13879,2323 13943,2195 14044,2110 Z M 14191,2904 L 14372,2515 14799,2515 C 14774,2747 14578,2929 14340,2929 14288,2929 14238,2920 14191,2904 Z"/>
        </g>
       </g>
      </g>
      <g class="Graphic">
       <g id="id5">
        <rect class="BoundingBox" stroke="none" fill="none" x="7001" y="2400" width="2774" height="2774"/>
        <path fill="rgb(0,0,0)" stroke="none" d="M 9497,3343 L 9053,2899 9053,3232 7389,3232 7389,3454 9053,3454 9053,3787 9497,3343 9497,3343 Z"/>
        <path fill="rgb(0,0,0)" stroke="none" d="M 7278,4230 L 7722,4674 7722,4341 9386,4341 9386,4119 7722,4119 7722,3787 7278,4230 7278,4230 Z"/>
       </g>
      </g>
      <g class="Graphic">
       <g id="id6">
        <rect class="BoundingBox" stroke="none" fill="none" x="7814" y="1940" width="961" height="961"/>
        <path fill="rgb(0,0,0)" stroke="none" d="M 7872,2766 L 8716,2766 8294,2036 7872,2766 7872,2766 Z M 8332,2650 L 8256,2650 8256,2574 8332,2574 8332,2650 8332,2650 Z M 8332,2497 L 8256,2497 8256,2343 8332,2343 8332,2497 8332,2497 Z"/>
       </g>
      </g>
      <g class="Graphic">
       <g id="id7">
        <rect class="BoundingBox" stroke="none" fill="none" x="8074" y="4600" width="801" height="801"/>
        <path fill="rgb(0,0,0)" stroke="none" d="M 8816,5224 L 8525,4933 C 8554,4859 8538,4773 8477,4712 8413,4648 8317,4635 8240,4670 L 8378,4808 8282,4904 8141,4766 C 8103,4843 8119,4939 8183,5003 8244,5064 8330,5080 8404,5051 L 8695,5342 C 8708,5355 8727,5355 8740,5342 L 8813,5269 C 8829,5256 8829,5234 8816,5224 L 8816,5224 Z"/>
       </g>
      </g>
     </g>
    </g>
   </g>
  </g>
 </g>
</svg>