<svg id="Capa_1" enable-background="new 0 0 512 512" height="512" viewBox="0 0 512 512" width="512" xmlns="http://www.w3.org/2000/svg"><g><g><path d="m45.96 342.699h420.08v42.617h-420.08z" fill="#f9f6f9"/><path d="m33.502 363.647h444.995v96.14h-444.995z" fill="#9d6b6b"/><circle cx="170.682" cy="269.316" fill="#365e7d" r="49.496"/><path d="m43.458 504.325h-17.909c-9.968 0-18.049-8.081-18.049-18.049v-287.155c0-9.968 8.081-18.049 18.049-18.049h17.909c9.968 0 18.049 8.081 18.049 18.049v287.155c0 9.968-8.081 18.049-18.049 18.049z" fill="#9d6b6b"/><path d="m45.96 504.147c-.82.12-1.65.18-2.5.18h-17.91c-9.97 0-18.05-8.08-18.05-18.05v-287.16c0-9.96 8.08-18.04 18.05-18.04h17.91c.85 0 1.68.06 2.5.18-8.78 1.2-15.56 8.74-15.56 17.86v287.16c0 9.12 6.78 16.67 15.56 17.87z" fill="#8b5e5e"/><path d="m486.451 504.325h-17.909c-9.968 0-18.049-8.081-18.049-18.049v-178.683c0-9.968 8.081-18.049 18.049-18.049h17.909c9.968 0 18.049 8.081 18.049 18.049v178.683c0 9.968-8.081 18.049-18.049 18.049z" fill="#9d6b6b"/><path d="m488.224 504.237c-.58.06-1.18.09-1.78.09h-17.9c-9.97 0-18.05-8.08-18.05-18.05v-178.68c0-9.97 8.08-18.05 18.05-18.05h17.9c.6 0 1.2.03 1.78.09-9.13.89-16.26 8.59-16.26 17.96v178.68c-.001 9.37 7.13 17.07 16.26 17.96z" fill="#8b5e5e"/><ellipse cx="161.62" cy="303.964" fill="#f9f6f9" rx="100.113" ry="38.734"/><path d="m261.73 303.969c-12.3 22.35-52.46 38.73-100.11 38.73s-87.81-16.38-100.11-38.73c12.3 6.06 52.46 10.51 100.11 10.51s87.81-4.451 100.11-10.51z" fill="#dddaec"/><g><circle cx="390.252" cy="121.923" fill="#d3effb" r="114.248"/><path d="m410.215 234.515c-6.326 1.096-12.837 1.659-19.474 1.659-63.098 0-114.251-51.153-114.251-114.251s51.153-114.251 114.251-114.251c6.637 0 13.147.563 19.474 1.659-53.812 9.237-94.768 56.131-94.768 112.592s40.956 103.355 94.768 112.592z" fill="#9dc6fb"/><path d="m390.252 136.477h-53.079c-8.038 0-14.554-6.516-14.554-14.554s6.516-14.554 14.554-14.554h53.079c8.038 0 14.554 6.516 14.554 14.554s-6.516 14.554-14.554 14.554z" fill="#365e7d"/><path d="m390.252 136.477c-8.038 0-14.554-6.516-14.554-14.554v-37.163c0-8.038 6.516-14.554 14.554-14.554s14.554 6.516 14.554 14.554v37.163c.001 8.038-6.516 14.554-14.554 14.554z" fill="#2b4d66"/></g><path d="m450.49 307.597v62.46l-92.2 61.45-196.67-88.81c0-28.9 3.52-51.72 7.59-68.44 5.27-21.66 23.7-37.62 45.91-39.57 3.34-.29 6.89-.55 10.64-.75 5.68-.3 11.82-.48 18.35-.46 36.16.12 84.43 6.22 135.21 29.55 23.5 10.79 47.54 25.28 71.17 44.57z" fill="#9dc6fb"/><path d="m358.29 431.507-196.67-88.81c0-28.9 3.52-51.72 7.59-68.44 5.27-21.66 23.7-37.62 45.91-39.57 3.34-.29 6.89-.55 10.64-.75-10 39.3-10.78 124.66 132.53 197.57z" fill="#698ed5"/><path d="m379.32 263.027-75.81 53.94-59.4-83.49c36.16.12 84.43 6.22 135.21 29.55z" fill="#f9f6f9"/></g><g><path d="m486.451 282.044h-17.909c-9.441 0-17.696 5.151-22.118 12.786-6.578-5.028-13.325-9.829-20.162-14.326-3.461-2.277-8.112-1.317-10.388 2.144-2.276 3.46-1.316 8.111 2.144 10.387 8.524 5.607 16.91 11.699 24.973 18.138v54.872l-85.401 56.909-188.436-85.082c.311-22.296 2.777-43.079 7.344-61.84 4.522-18.593 20.308-32.205 39.278-33.871 6.91-.605 15.171-1.064 24.506-1.128l57.117 80.283c1.153 1.621 2.903 2.717 4.864 3.048.415.07.832.104 1.247.104 1.548 0 3.07-.479 4.348-1.389l72.237-51.398c4.269 2.029 8.552 4.176 12.845 6.466 3.655 1.95 8.199.567 10.147-3.087 1.95-3.654.567-8.198-3.087-10.147-75.582-40.325-148.684-40.927-185.536-37.694-1.598.14-3.178.344-4.739.609-10.519-9.894-24.51-15.508-39.045-15.508-29.417 0-53.698 22.41-56.679 51.057-18.479 4.632-33.922 11.822-44.994 20.768v-85.023c0-14.088-11.461-25.549-25.549-25.549h-17.909c-14.088 0-25.549 11.46-25.549 25.548v287.154c0 14.088 11.461 25.549 25.549 25.549h17.909c14.088 0 25.549-11.461 25.549-25.549v-18.986h18.933c4.142 0 7.5-3.358 7.5-7.5s-3.358-7.5-7.5-7.5h-18.93v-74.73h151.592l134.603 60.775c.985.445 2.037.665 3.085.665 1.458 0 2.908-.425 4.16-1.259l80.541-53.671v68.219h-322.551c-4.143 0-7.5 3.358-7.5 7.5s3.357 7.5 7.5 7.5h322.553v18.986c0 14.088 11.461 25.549 25.549 25.549h17.909c14.088 0 25.549-11.461 25.549-25.549v-178.681c0-14.088-11.461-25.549-25.549-25.549zm-181.178 24.464-46.29-65.063c29.53 1.496 66.329 7.367 105.132 23.197zm-134.593-79.189c7.799 0 15.383 2.199 21.925 6.203-10.506 5.39-19.236 13.838-24.981 24.296-1.993-.056-3.997-.089-6.003-.089-10.942 0-21.636.823-31.917 2.452 4.182-18.778 20.96-32.862 40.976-32.862zm-47.904 49.41c12.266-2.654 25.335-4 38.844-4 .082 0 .163.003.245.003-4.615 19.046-7.181 39.978-7.657 62.321-37.536-1.464-71.058-13.91-83.796-31.093 8.864-11.952 27.985-21.97 52.364-27.231zm-35.315 58.47h-18.454v-11.423c5.254 4.25 11.46 8.082 18.454 11.423zm-33.454 151.077c0 5.817-4.732 10.549-10.549 10.549h-17.909c-5.816 0-10.549-4.732-10.549-10.549v-287.155c0-5.816 4.732-10.549 10.549-10.549h17.909c5.816 0 10.549 4.732 10.549 10.549zm15.003-123.717v-12.36h90.996l27.374 12.36zm427.99 123.717c0 5.817-4.732 10.549-10.549 10.549h-17.909c-5.816 0-10.549-4.732-10.549-10.549v-178.683c0-5.817 4.732-10.549 10.549-10.549h17.909c5.816 0 10.549 4.732 10.549 10.549z"/><path d="m390.252 243.671c67.132 0 121.748-54.616 121.748-121.748s-54.616-121.748-121.748-121.748-121.747 54.616-121.747 121.748 54.615 121.748 121.747 121.748zm-59.72-210.186 3.332 5.772c1.389 2.406 3.91 3.751 6.502 3.751 1.272 0 2.562-.324 3.743-1.006 3.587-2.071 4.816-6.658 2.745-10.245l-3.342-5.789c11.999-5.868 25.252-9.549 39.24-10.525v16.398c0 4.142 3.357 7.5 7.5 7.5s7.5-3.358 7.5-7.5v-16.399c13.988.976 27.242 4.657 39.24 10.525l-3.343 5.789c-2.071 3.587-.842 8.174 2.745 10.245 1.181.682 2.471 1.006 3.743 1.006 2.592 0 5.112-1.345 6.502-3.751l3.333-5.772c11.301 7.656 21.063 17.418 28.718 28.718l-5.772 3.332c-3.587 2.071-4.816 6.658-2.745 10.245 1.39 2.406 3.91 3.751 6.502 3.751 1.272 0 2.562-.325 3.743-1.006l5.789-3.343c5.868 11.998 9.549 25.251 10.525 39.24h-16.398c-4.143 0-7.5 3.358-7.5 7.5s3.357 7.5 7.5 7.5h16.398c-.976 13.988-4.656 27.241-10.525 39.24l-5.789-3.343c-3.586-2.072-8.175-.843-10.245 2.745-2.071 3.587-.842 8.174 2.745 10.245l5.771 3.332c-7.655 11.301-17.417 21.063-28.718 28.719l-3.333-5.772c-2.071-3.588-6.66-4.815-10.245-2.745-3.587 2.071-4.816 6.658-2.745 10.245l3.343 5.789c-11.999 5.868-25.252 9.549-39.24 10.525v-16.398c0-4.142-3.357-7.5-7.5-7.5s-7.5 3.358-7.5 7.5v16.398c-13.988-.976-27.241-4.657-39.24-10.525l3.342-5.789c2.071-3.587.842-8.174-2.745-10.245-3.59-2.072-8.175-.842-10.245 2.745l-3.332 5.772c-11.3-7.656-21.062-17.418-28.718-28.718l5.772-3.332c3.587-2.071 4.816-6.658 2.745-10.245-2.072-3.588-6.659-4.815-10.245-2.745l-5.789 3.343c-5.868-11.999-9.549-25.252-10.525-39.24h16.398c4.143 0 7.5-3.358 7.5-7.5s-3.357-7.5-7.5-7.5h-16.398c.976-13.988 4.656-27.241 10.525-39.24l5.789 3.343c1.181.682 2.471 1.006 3.743 1.006 2.592 0 5.113-1.345 6.502-3.751 2.071-3.587.842-8.174-2.745-10.245l-5.772-3.332c7.657-11.301 17.419-21.063 28.719-28.718z"/><path d="m337.169 143.977h53.084.001c12.16-.001 22.053-9.894 22.053-22.055v-37.162c0-12.161-9.894-22.054-22.055-22.054-12.16 0-22.054 9.894-22.054 22.054v15.109h-31.029c-12.161 0-22.055 9.894-22.055 22.054 0 12.161 9.894 22.054 22.055 22.054zm46.029-59.217c0-3.89 3.164-7.054 7.054-7.054s7.055 3.165 7.055 7.054v37.163c0 3.89-3.165 7.055-7.055 7.055s-7.054-3.165-7.054-7.055zm-46.029 30.108h31.029v7.054c0 2.467.413 4.838 1.164 7.055h-32.193c-3.89 0-7.055-3.165-7.055-7.055 0-3.889 3.165-7.054 7.055-7.054z"/><path d="m183.528 134.915c0 4.142 3.357 7.5 7.5 7.5h14.684l-21.895 33.602c-1.502 2.305-1.621 5.249-.31 7.668s3.842 3.926 6.594 3.926h30.151c4.143 0 7.5-3.358 7.5-7.5s-3.357-7.5-7.5-7.5h-16.312l21.895-33.602c1.502-2.305 1.621-5.249.31-7.668s-3.842-3.926-6.594-3.926h-28.522c-4.143 0-7.501 3.358-7.501 7.5z"/><path d="m137.939 119.147h43.449c4.143 0 7.5-3.358 7.5-7.5s-3.357-7.5-7.5-7.5h-29.611l34.883-53.536c1.502-2.306 1.621-5.249.31-7.668s-3.842-3.926-6.594-3.926h-41.102c-4.143 0-7.5 3.358-7.5 7.5s3.357 7.5 7.5 7.5h27.264l-34.883 53.536c-1.502 2.306-1.621 5.249-.31 7.668s3.843 3.926 6.594 3.926z"/></g></g></svg>