<svg id="Layer_1" enable-background="new 0 0 512 512" height="512" viewBox="0 0 512 512" width="512" xmlns="http://www.w3.org/2000/svg"><g><g fill="#aac3d6"><path d="m439.679 185.63c8.348-4.82 11.209-15.495 6.389-23.843s-15.495-11.209-23.843-6.389l-21.752 12.472 14.115 32.247z"/><path d="m439.679 326.37-25.091-14.486-14.115 32.246 21.752 12.472c8.348 4.82 19.023 1.96 23.843-6.389 4.82-8.348 1.959-19.023-6.389-23.843z"/></g><path d="m378.464 136.41-.09 238.22-15.6 33.74c-10.94 23.68-20.04 48.18-27.21 73.26l-2.82 9.87c-2.11 7.36-8.83 12.43-16.48 12.43h-145.52c-7.65 0-14.38-5.07-16.48-12.43l-2.82-9.85c-7.17-25.08-16.27-49.58-27.21-73.26l-15.61-33.76c0-.07-.03-.13-.08-.18l.08-238.22 15.61-33.74c10.94-23.69 20.04-48.19 27.21-73.28l2.82-9.86c2.11-7.35 8.83-12.42 16.48-12.42h145.52c1.5 0 2.97.2 4.37.57 5.74 1.51 10.41 5.95 12.11 11.86l2.82 9.85c7.17 25.08 16.27 49.58 27.21 73.26l15.6 33.76c.01.07.04.13.09.18z" fill="#aac3d6"/><path d="m378.464 136.41-.09 238.22-15.6 33.74c-10.94 23.68-20.04 48.18-27.21 73.26l-2.82 9.87c-2.11 7.36-8.83 12.43-16.48 12.43h-41.59c5.75-1.51 10.42-5.95 12.11-11.86l2.82-9.87c7.17-25.08 16.27-49.58 27.21-73.26l15.61-33.74.08-238.22c-.04-.05-.08-.11-.08-.18l-15.61-33.76c-10.94-23.68-20.04-48.18-27.21-73.26l-2.82-9.85c-2.1-7.36-8.82-12.43-16.48-12.43h50.33c5.74 1.51 10.41 5.95 12.11 11.86l2.82 9.85c7.17 25.08 16.27 49.58 27.21 73.26l15.6 33.76c.01.07.04.13.09.18z" fill="#8aabbf"/><path d="m423.534 256c0 99.38-80.56 179.95-179.94 179.95-5.59 0-11.11-.25-16.57-.75-91.62-8.37-163.38-85.41-163.38-179.2s71.76-170.83 163.38-179.2c5.46-.5 10.98-.75 16.57-.75 99.38 0 179.94 80.57 179.94 179.95z" fill="#4f667a"/><path d="m423.534 256c0 99.38-80.56 179.95-179.94 179.95-5.59 0-11.11-.25-16.57-.75 91.61-8.37 163.37-85.41 163.37-179.2s-71.76-170.83-163.37-179.2c5.46-.5 10.98-.75 16.57-.75 99.38 0 179.94 80.57 179.94 179.95z" fill="#3a5366"/><path d="m390.394 256c0 81.08-65.73 146.8-146.8 146.8-6.68 0-13.26-.45-19.7-1.31-71.77-9.62-127.11-71.09-127.11-145.49 0-76.08 57.87-138.63 131.99-146.06 4.87-.49 9.82-.74 14.82-.74 81.07 0 146.8 65.72 146.8 146.8z" fill="#b9f6d3"/><path d="m390.394 256c0 81.08-65.73 146.8-146.8 146.8-6.68 0-13.26-.45-19.7-1.31 74.12-7.43 131.99-69.98 131.99-146.06 0-74.4-55.34-135.87-127.11-145.49 4.87-.49 9.82-.74 14.82-.74 81.07 0 146.8 65.72 146.8 146.8z" fill="#93d8e4"/><path d="m328.124 239.95c0 30.06-24.08 50.62-60.55 81.75l-20.51 17.67c-.96.84-2.19 1.31-3.47 1.31-1.29 0-2.52-.47-3.48-1.31l-11.25-9.69-9.26-7.98c-36.46-31.13-60.55-51.69-60.55-81.75 0-27.82 19.3-48.8 44.91-48.8 9.17 0 17.59 2.91 25 8.66 7.11 5.51 11.84 12.52 14.63 17.62 2.78-5.1 7.51-12.11 14.62-17.62 3.35-2.59 6.91-4.61 10.64-6.04 4.53-1.74 9.33-2.62 14.36-2.62 25.61 0 44.91 20.98 44.91 48.8z" fill="#ff6e6e"/><path d="m328.124 239.95c0 30.06-24.08 50.62-60.55 81.75l-20.51 17.67c-.96.84-2.19 1.31-3.47 1.31-1.29 0-2.52-.47-3.48-1.31l-11.25-9.69 9.26-7.98c36.46-31.13 60.55-51.69 60.55-81.75 0-22.01-12.09-39.74-29.82-46.18 4.53-1.74 9.33-2.62 14.36-2.62 25.61 0 44.91 20.98 44.91 48.8z" fill="#f44e92"/></g><g><path d="m350.554 356.827c3.156 2.687 7.889 2.306 10.573-.849 23.709-27.847 36.767-63.354 36.767-99.979 0-85.083-69.221-154.304-154.304-154.304s-154.304 69.221-154.304 154.304 69.22 154.304 154.304 154.304c30.934 0 60.777-9.121 86.308-26.376 3.432-2.32 4.333-6.982 2.014-10.414s-6.982-4.334-10.414-2.014c-23.039 15.573-49.979 23.804-77.907 23.804-76.813 0-139.304-62.491-139.304-139.304s62.491-139.304 139.304-139.304 139.302 62.493 139.302 139.305c0 33.064-11.786 65.118-33.188 90.255-2.685 3.154-2.305 7.887.849 10.572z"/><path d="m131.098 268.603c0 4.142 3.358 7.5 7.5 7.5h24.568c11.146 16.794 29.511 32.47 51.544 51.278l20.451 17.622c2.33 2.048 5.323 3.176 8.428 3.176 3.107 0 6.101-1.128 8.372-3.127l20.481-17.647c22.05-18.822 40.422-34.504 51.57-51.301h23.731c4.143 0 7.5-3.358 7.5-7.5s-3.357-7.5-7.5-7.5h-15.941c2.488-6.65 3.825-13.627 3.825-21.154 0-32.095-22.531-56.298-52.41-56.298-10.881 0-20.839 3.442-29.593 10.228-3.999 3.097-7.324 6.589-10.035 10.004-2.711-3.415-6.036-6.906-10.033-10.002-8.757-6.788-18.715-10.23-29.596-10.23-29.879 0-52.41 24.203-52.41 56.298 0 7.527 1.337 14.504 3.824 21.154h-16.778c-4.141-.001-7.498 3.357-7.498 7.499zm131.581 47.415-19.088 16.448-19.115-16.471c-17.77-15.169-32.468-27.715-42.612-39.892h25.668c2.703 0 5.197-1.454 6.528-3.807l5.492-9.707 17.512 30.949c1.331 2.353 3.825 3.807 6.527 3.807s5.197-1.454 6.527-3.807l21.146-37.372 9.126 16.129c1.331 2.353 3.824 3.807 6.527 3.807h18.4c-10.148 12.181-24.853 24.734-42.638 39.916zm-96.128-76.069c0-23.543 16.083-41.298 37.41-41.298 7.475 0 14.341 2.384 20.409 7.087 6.148 4.762 10.265 10.94 12.636 15.285 1.314 2.409 3.839 3.907 6.583 3.907s5.269-1.499 6.583-3.907c2.372-4.345 6.49-10.524 12.64-15.287 6.065-4.702 12.931-7.085 20.406-7.085 21.327 0 37.41 17.754 37.41 41.298 0 7.472-1.818 14.397-5.207 21.154h-24.131l-13.5-23.859c-1.331-2.353-3.824-3.807-6.527-3.807s-5.196 1.454-6.527 3.807l-21.146 37.372-17.512-30.949c-1.331-2.353-3.825-3.807-6.527-3.807s-5.197 1.454-6.527 3.807l-9.866 17.437h-31.4c-3.389-6.757-5.207-13.682-5.207-21.155z"/><path d="m443.429 319.875-19.885-11.481c4.849-16.634 7.451-34.216 7.451-52.394s-2.601-35.761-7.451-52.394l19.885-11.481c11.916-6.879 16.015-22.171 9.135-34.089-6.88-11.915-22.172-16.012-34.069-9.145l-15.388 8.823c-5.379-8.7-11.449-16.93-18.134-24.612l-15.346-33.206c-10.751-23.269-19.771-47.552-26.813-72.181l-2.818-9.841c-3.005-10.523-12.745-17.874-23.688-17.874h-145.519c-10.934 0-20.675 7.34-23.69 17.855l-2.822 9.864c-7.044 24.649-16.065 48.939-26.81 72.193l-15.166 32.799c-12.466 14.274-22.888 30.579-30.71 48.554-1.653 3.798.086 8.217 3.884 9.87 3.8 1.654 8.217-.086 9.87-3.884 27.415-62.995 89.513-103.7 158.202-103.7 95.088 0 172.448 77.36 172.448 172.448s-77.359 172.448-172.448 172.448c-95.088 0-172.448-77.36-172.448-172.448 0-11.732 1.184-23.454 3.519-34.838.832-4.058-1.783-8.021-5.84-8.854-4.058-.833-8.022 1.782-8.854 5.84-2.538 12.374-3.825 25.109-3.825 37.852 0 46.975 17.369 89.969 46.022 122.898l15.346 33.206c10.75 23.266 19.771 47.55 26.812 72.182l2.819 9.84c3.004 10.524 12.746 17.875 23.691 17.875h145.519c10.943 0 20.684-7.351 23.687-17.872l2.82-9.863c7.039-24.624 16.06-48.909 26.811-72.179l15.347-33.189c6.684-7.682 12.755-15.912 18.134-24.612l15.369 8.812c3.92 2.263 8.204 3.338 12.435 3.338 8.631 0 17.038-4.477 21.654-12.473 6.878-11.916 2.78-27.208-9.136-34.087zm-17.454-157.982c4.752-2.743 10.854-1.11 13.599 3.643 2.744 4.754 1.109 10.854-3.645 13.599l-17.27 9.971c-2.406-6.277-5.14-12.393-8.181-18.327zm-41.198-29.015c-.387-.444-.777-.886-1.168-1.326l.036-.038c.434.409.814.868 1.132 1.364zm-253.555-26.973c11.008-23.863 20.252-48.78 27.478-74.062l2.82-9.858c1.179-4.112 4.991-6.985 9.27-6.985h145.519c4.279 0 8.089 2.875 9.266 6.998l2.819 9.844c7.241 25.332 16.519 50.313 27.574 74.252-31.341-23.564-70.279-37.543-112.42-37.543-41.375.001-80.549 13.587-112.326 37.354zm197.171 374.237-2.821 9.866c-1.175 4.117-4.984 6.992-9.264 6.992h-145.519c-4.281 0-8.092-2.875-9.269-7l-2.82-9.843c-7.242-25.334-16.519-50.316-27.573-74.253 31.341 23.564 70.279 37.543 112.42 37.543 42.135 0 81.067-13.975 112.406-37.532-11.051 23.934-20.323 48.907-27.56 74.227zm111.18-133.679c-2.744 4.753-8.843 6.389-13.618 3.633l-15.477-8.875c3.042-5.934 5.775-12.05 8.181-18.327l17.27 9.971c4.754 2.745 6.388 8.845 3.644 13.598z"/></g></svg>