<svg id="Capa_1" enable-background="new 0 0 512.24 512.24" height="512" viewBox="0 0 512.24 512.24" width="512" xmlns="http://www.w3.org/2000/svg"><g><g><path d="m253.744 275.804 22.072-22.072c2.166-2.166 2.166-5.678 0-7.844l-15.537-15.537c-1.853-1.853-2.142-4.742-.721-6.944 7.941-12.318 13.408-25.767 16.405-39.643.554-2.564 2.8-4.405 5.423-4.405h21.988c3.063 0 5.547-2.483 5.547-5.547v-31.214c0-3.063-2.483-5.547-5.547-5.547h-21.988c-2.623 0-4.869-1.841-5.423-4.405-2.998-13.876-8.464-27.325-16.405-39.643-1.42-2.203-1.132-5.091.722-6.944l15.537-15.537c2.166-2.166 2.166-5.678 0-7.844l-22.072-22.072c-2.166-2.166-5.678-2.166-7.844 0l-15.537 15.537c-1.853 1.853-4.742 2.142-6.944.722-12.318-7.942-25.767-13.408-39.643-16.405-2.564-.554-4.405-2.8-4.405-5.423v-21.988c0-3.063-2.483-5.547-5.547-5.547h-31.214c-3.063 0-5.547 2.483-5.547 5.547v21.988c0 2.623-1.841 4.869-4.405 5.423-13.876 2.998-27.325 8.464-39.643 16.405-2.203 1.42-5.091 1.132-6.944-.722l-15.54-15.539c-2.166-2.166-5.678-2.166-7.844 0l-22.072 22.072c-2.166 2.166-2.166 5.678 0 7.844l15.537 15.537c1.853 1.853 2.142 4.742.721 6.944-7.942 12.318-13.408 25.767-16.405 39.643-.554 2.564-2.8 4.405-5.423 4.405h-21.988c-3.063 0-5.547 2.483-5.547 5.547v31.214c0 3.063 2.483 5.547 5.547 5.547h21.988c2.623 0 4.869 1.841 5.423 4.405 2.998 13.876 8.464 27.325 16.405 39.643 1.42 2.203 1.132 5.091-.722 6.944l-15.537 15.537c-2.166 2.166-2.166 5.678 0 7.844l22.072 22.072c2.166 2.166 5.678 2.166 7.844 0l15.537-15.537c1.853-1.853 4.742-2.142 6.944-.721 12.318 7.941 25.767 13.408 39.643 16.405 2.564.554 4.405 2.8 4.405 5.423v21.988c0 3.063 2.483 5.547 5.547 5.547h31.214c3.063 0 5.547-2.483 5.547-5.547v-21.988c0-2.623 1.841-4.869 4.405-5.423 13.876-2.998 27.325-8.464 39.643-16.405 2.203-1.42 5.091-1.132 6.944.721l15.537 15.537c2.168 2.168 5.681 2.168 7.847.002z" fill="#596c76"/></g><g><path d="m207.561 259.924 5.057 5.806c-9.22 4.67-18.92 8.08-28.84 10.22-2.57.55-4.41 2.8-4.41 5.42v21.99c0 3.06-2.48 5.55-5.55 5.55h-18.4c.91-.99 1.46-2.31 1.46-3.76v-27.91c0-2.66 1.86-4.93 4.45-5.49 14.04-3.03 26.753-4.525 39.213-12.555 2.23-1.441 5.15-1.14 7.02.729z" fill="#465a61"/></g><g><path d="m280.298 136.941h-20.24c-2.66 0-4.93-1.86-5.49-4.45-3.03-14.04-8.56-27.64-16.59-40.1-1.44-2.22-1.15-5.15.73-7.02l15.71-15.71c2.19-2.2 2.19-5.75 0-7.94l-14.82-14.82 6.3-6.3c2.17-2.16 5.68-2.16 7.85 0l22.07 22.08c2.16 2.16 2.16 5.67 0 7.84l-15.54 15.54c-1.85 1.85-2.14 4.74-.72 6.94 7.94 12.32 13.41 25.77 16.4 39.64.48 2.2 2.2 3.869 4.34 4.3z" fill="#465a61"/></g><g><circle cx="158.216" cy="158.204" fill="#fdf6ec" r="49.345"/></g><g><path d="m193.108 193.101c-18.49 18.49-47.99 19.24-67.38 2.24 16.7 4.81 35.42.63 48.57-12.52 19.27-19.27 19.27-50.51 0-69.79-.78-.78-1.59-1.53-2.41-2.24 7.77 2.23 15.1 6.4 21.22 12.52 19.27 19.27 19.27 50.52 0 69.79z" fill="#fef1da"/></g><g><g><path d="m436.458 463.78 27.31-27.31c2.68-2.68 2.68-7.026 0-9.706l-19.224-19.224c-2.293-2.293-2.65-5.867-.893-8.592 9.826-15.241 16.59-31.882 20.299-49.052.685-3.172 3.464-5.45 6.71-5.45h27.206c3.79 0 6.863-3.073 6.863-6.863v-38.622c0-3.79-3.073-6.863-6.863-6.863h-27.206c-3.246 0-6.024-2.278-6.71-5.45-3.709-17.169-10.472-33.81-20.299-49.051-1.757-2.725-1.4-6.299.893-8.592l19.224-19.224c2.68-2.68 2.68-7.026 0-9.706l-27.31-27.31c-2.68-2.68-7.026-2.68-9.706 0l-19.224 19.224c-2.293 2.293-5.867 2.65-8.592.893-15.241-9.826-31.882-16.59-49.051-20.299-3.172-.685-5.45-3.464-5.451-6.71v-27.206c0-3.79-3.073-6.863-6.863-6.863h-38.622c-3.79 0-6.863 3.073-6.863 6.863v27.206c0 3.246-2.278 6.024-5.45 6.71-17.169 3.709-33.81 10.472-49.052 20.299-2.725 1.757-6.299 1.4-8.592-.893l-19.224-19.224c-2.68-2.68-7.026-2.68-9.706 0l-27.31 27.31c-2.68 2.68-2.68 7.026 0 9.706l19.224 19.224c2.293 2.293 2.65 5.867.893 8.592-9.826 15.241-16.59 31.882-20.299 49.052-.685 3.172-3.464 5.45-6.71 5.45h-27.206c-3.79 0-6.863 3.073-6.863 6.863v38.622c0 3.79 3.073 6.863 6.863 6.863h27.206c3.246 0 6.024 2.278 6.71 5.45 3.709 17.169 10.472 33.81 20.299 49.051 1.757 2.725 1.4 6.299-.893 8.592l-19.224 19.224c-2.68 2.68-2.68 7.026 0 9.706l27.31 27.31c2.68 2.68 7.026 2.68 9.706 0l19.224-19.224c2.293-2.293 5.867-2.65 8.592-.893 15.241 9.826 31.882 16.59 49.051 20.299 3.172.685 5.45 3.464 5.45 6.71v27.206c0 3.79 3.073 6.863 6.863 6.863h38.622c3.79 0 6.863-3.073 6.863-6.863v-27.206c0-3.246 2.278-6.024 5.45-6.71 17.169-3.709 33.81-10.472 49.052-20.299 2.725-1.757 6.299-1.4 8.592.893l19.224 19.224c2.682 2.68 7.027 2.68 9.707 0z" fill="#9facba"/></g><g><path d="m443.648 398.949c-1.75 2.72-1.4 6.3.9 8.59l19.22 19.22c2.68 2.68 2.68 7.03 0 9.71l-27.31 27.31c-2.68 2.68-7.03 2.68-9.71 0l-6.61-6.61 21.96-21.97c2.68-2.68 2.68-7.03 0-9.71l-19.22-19.22c-2.29-2.3-2.65-5.87-.89-8.6 9.82-15.24 16.59-28.67 20.29-45.84.69-3.17 3.47-5.45 6.71-5.45h16.91c-.96.93-1.65 2.14-1.95 3.52-3.71 17.171-10.47 33.811-20.3 49.05z" fill="#8d9ca8"/></g><g><path d="m466.698 290.82h-17.71c-3.24 0-6.02-2.27-6.71-5.45-3.7-17.17-10.47-33.81-20.29-49.05-1.76-2.72-1.4-6.3.89-8.59l19.22-19.23c2.68-2.68 2.68-7.02 0-9.7l-20.69-20.69 5.34-5.35c2.68-2.68 7.03-2.68 9.71 0l27.31 27.31c2.68 2.68 2.68 7.03 0 9.71l-19.22 19.22c-2.3 2.3-2.65 5.87-.9 8.6 9.83 15.24 16.59 31.88 20.3 49.05.38 1.739 1.38 3.199 2.75 4.17z" fill="#8d9ca8"/></g><g><path d="m504.728 298.96v38.62c0 3.79-3.07 6.87-6.86 6.87h-16.91c1.3-1.24 2.1-2.99 2.1-4.93v-41.83c0-2.3-1.14-4.35-2.88-5.59h17.69c3.79-.001 6.86 3.069 6.86 6.86z" fill="#8d9ca8"/></g><g><circle cx="318.26" cy="318.271" fill="#596c76" r="88.769"/></g><g><path d="m381.028 381.039c-27.21 27.21-67.69 33.07-100.61 17.56 28.48 6.13 59.39-1.87 81.52-24 34.67-34.67 34.67-90.87 0-125.54-7.46-7.46-15.91-13.32-24.94-17.56 16.14 3.46 31.49 11.46 44.03 24 34.67 34.67 34.67 90.87 0 125.54z" fill="#465a61"/></g><g><circle cx="318.26" cy="318.271" fill="#fdf6ec" r="50.977"/></g><g><path d="m354.308 354.32c-19.91 19.91-52.19 19.91-72.09 0-.63-.63-1.23-1.26-1.82-1.91 18.74 8.39 41.51 4.9 56.89-10.49 19.28-19.28 19.89-50.15 1.83-70.17 5.51 2.47 10.67 5.96 15.19 10.48 19.91 19.899 19.91 52.179 0 72.09z" fill="#fef1da"/></g><g><path d="m318.26 376.722c14.975 0 29.95-5.7 41.351-17.101 22.8-22.8 22.8-59.899 0-82.699-22.801-22.801-59.9-22.801-82.701 0-22.8 22.8-22.8 59.899 0 82.699 11.4 11.4 26.375 17.101 41.35 17.101zm-30.743-89.194c8.477-8.477 19.608-12.714 30.743-12.714 11.133 0 22.269 4.239 30.743 12.714 16.952 16.952 16.952 44.535 0 61.486-16.951 16.953-44.535 16.952-61.486 0-16.953-16.951-16.953-44.534 0-61.486z"/><path d="m250.187 250.199c-27.903 27.905-35.971 69.405-20.552 105.726 1.618 3.813 6.024 5.59 9.834 3.973 3.813-1.619 5.592-6.021 3.973-9.834-13.017-30.664-6.205-65.7 17.353-89.258 31.687-31.687 83.247-31.686 114.932 0 31.687 31.687 31.687 83.245 0 114.932-15.223 15.222-35.46 23.675-56.985 23.802-.164.001-.325.001-.489.001-21.325 0-41.453-8.185-56.721-23.076-2.966-2.893-7.714-2.833-10.605.132-2.892 2.965-2.833 7.714.133 10.606 18.088 17.643 41.929 27.338 67.19 27.337.193 0 .387 0 .58-.002 25.498-.149 49.472-10.163 67.505-28.195 37.534-37.535 37.534-98.609 0-136.145-37.539-37.534-98.611-37.534-136.148.001z"/><path d="m497.865 284.598h-26.687c-3.963-18.084-11.014-35.122-20.963-50.66l18.854-18.855c2.714-2.713 4.208-6.32 4.208-10.157s-1.494-7.444-4.207-10.156l-27.31-27.309c-2.713-2.713-6.319-4.208-10.156-4.208s-7.443 1.494-10.157 4.207l-18.855 18.856c-15.537-9.95-32.574-17-50.659-20.964v-26.687c0-7.919-6.443-14.363-14.363-14.363h-38.621c-4.462 0-8.455 2.046-11.091 5.248h-4.901c-3.195-13.983-8.66-27.189-16.263-39.302l14.425-14.425c5.086-5.087 5.086-13.363 0-18.451l-22.072-22.072c-2.465-2.464-5.741-3.821-9.226-3.821s-6.762 1.357-9.225 3.822l-14.426 14.424c-12.11-7.602-25.317-13.067-39.302-16.263v-20.415c.001-7.194-5.851-13.047-13.046-13.047h-31.214c-7.194 0-13.047 5.853-13.047 13.047v20.416c-13.984 3.196-27.192 8.662-39.302 16.263l-14.423-14.424c-2.464-2.465-5.74-3.822-9.226-3.822s-6.763 1.357-9.227 3.822l-22.07 22.071c-5.086 5.087-5.086 13.363 0 18.451l14.425 14.425c-7.602 12.11-13.067 25.318-16.263 39.302h-20.416c-7.194 0-13.047 5.853-13.047 13.047v31.214c0 7.194 5.853 13.047 13.047 13.047h20.416c3.196 13.985 8.661 27.193 16.263 39.302l-14.425 14.425c-5.087 5.087-5.087 13.364 0 18.451l22.071 22.072c5.087 5.086 13.363 5.088 18.452 0l14.425-14.425c12.109 7.602 25.315 13.067 39.301 16.263v4.908c-3.215 2.636-5.271 6.635-5.271 11.108v38.622c0 7.92 6.443 14.363 14.363 14.363h26.687c3.964 18.085 11.015 35.124 20.963 50.66l-18.854 18.855c-2.714 2.713-4.208 6.32-4.208 10.157s1.494 7.444 4.207 10.156l27.31 27.309c2.713 2.713 6.319 4.208 10.156 4.208s7.443-1.494 10.157-4.207l18.854-18.856c15.538 9.95 32.577 17.001 50.66 20.963v26.687c0 7.92 6.443 14.363 14.363 14.363h38.621c7.92 0 14.363-6.443 14.363-14.363v-26.69c18.085-3.963 35.123-11.014 50.66-20.963l18.855 18.856c2.713 2.712 6.319 4.207 10.156 4.207s7.443-1.494 10.156-4.207l27.309-27.309c2.714-2.713 4.208-6.32 4.208-10.157s-1.494-7.444-4.207-10.156l-18.855-18.856c9.948-15.535 16.999-32.575 20.963-50.66h26.687c7.92 0 14.363-6.443 14.363-14.363v-38.622c.001-7.919-6.443-14.362-14.363-14.362zm-363.624-15.979c-13.285-2.87-25.788-8.043-37.164-15.378-5.143-3.313-12.001-2.589-16.312 1.723l-14.155 14.156-19.31-19.31 14.156-14.157c4.311-4.312 5.035-11.171 1.722-16.312-7.335-11.375-12.509-23.879-15.379-37.165-1.293-5.979-6.656-10.319-12.753-10.319h-20.034v-27.307h20.035c6.096 0 11.46-4.34 12.754-10.322 2.869-13.284 8.043-25.787 15.378-37.163 3.313-5.139 2.589-11.999-1.722-16.311l-14.156-14.156 19.31-19.31 14.155 14.156c4.311 4.312 11.168 5.036 16.313 1.722 11.376-7.335 23.879-12.509 37.162-15.378 5.98-1.292 10.321-6.656 10.321-12.754v-20.034h27.308v20.035c0 6.098 4.341 11.462 10.321 12.754 13.283 2.869 25.786 8.043 37.163 15.377 5.14 3.313 12 2.591 16.313-1.722l14.155-14.156 19.31 19.31-14.155 14.155c-4.313 4.312-5.037 11.172-1.723 16.312 7.336 11.378 12.51 23.882 15.378 37.163 1.292 5.981 6.655 10.322 12.754 10.322h3.201v20.802c-18.084 3.963-35.122 11.014-50.659 20.964l-18.856-18.856c-.224-.224-.462-.426-.698-.633 2.631-17.277-2.684-35.541-15.961-48.818-15.707-15.708-39.307-20.832-60.122-13.056-3.88 1.45-5.851 5.771-4.4 9.651 1.449 3.88 5.77 5.85 9.65 4.401 15.324-5.727 32.701-1.955 44.266 9.61 9.705 9.705 13.615 23.027 11.774 35.666-1.783.713-3.422 1.781-4.821 3.179l-27.309 27.309c-1.402 1.401-2.471 3.044-3.184 4.83-1.987.289-4.005.451-6.05.451-11.178 0-21.686-4.353-29.589-12.256-13.208-13.208-16.055-33.792-6.924-50.057 2.027-3.612.743-8.184-2.869-10.211-3.61-2.027-8.183-.743-10.211 2.869-12.407 22.102-8.543 50.067 9.396 68.006 11.082 11.082 25.64 16.623 40.196 16.623 2.87 0 5.737-.227 8.58-.66.213.243.422.489.653.719l18.855 18.856c-9.948 15.536-17 32.576-20.963 50.66h-20.779v-3.225c0-6.098-4.34-11.462-10.321-12.755zm362.988 68.326h-26.569c-6.713 0-12.617 4.78-14.041 11.367-3.596 16.646-10.079 32.315-19.27 46.57-3.65 5.66-2.854 13.214 1.892 17.96l18.773 18.774-26.409 26.409-18.773-18.775c-4.745-4.745-12.299-5.542-17.959-1.893-14.257 9.192-29.926 15.675-46.572 19.271-6.586 1.423-11.366 7.328-11.366 14.041v26.569h-37.348v-26.569c0-6.712-4.78-12.617-11.367-14.041-16.645-3.595-32.313-10.079-46.571-19.271-5.658-3.648-13.212-2.853-17.96 1.893l-18.772 18.774-26.409-26.409 18.772-18.774c4.748-4.747 5.544-12.3 1.894-17.96-9.191-14.256-15.675-29.924-19.271-46.571-1.424-6.586-7.328-11.367-14.041-11.367h-26.569v-37.348h26.569c6.713 0 12.617-4.78 14.041-11.367 3.596-16.646 10.079-32.315 19.27-46.57 3.651-5.661 2.855-13.214-1.892-17.96l-18.773-18.774 26.409-26.409 18.772 18.774c4.746 4.746 12.299 5.542 17.96 1.894 14.258-9.192 29.927-15.676 46.571-19.271 6.587-1.423 11.367-7.328 11.367-14.041v-26.57h37.348v26.569c0 6.713 4.78 12.618 11.366 14.041 16.646 3.595 32.314 10.079 46.572 19.271 5.659 3.648 13.212 2.854 17.96-1.894l18.772-18.774 26.409 26.409-18.773 18.777c-4.748 4.747-5.544 12.3-1.894 17.959 9.191 14.256 15.675 29.925 19.271 46.572 1.424 6.586 7.328 11.367 14.041 11.367h26.569v37.347z"/></g></g></g></svg>