<?xml version="1.0" encoding="iso-8859-1"?>
<!-- Generator: Adobe Illustrator 19.0.0, SVG Export Plug-In . SVG Version: 6.00 Build 0)  -->
<svg version="1.1" id="Capa_1" xmlns="http://www.w3.org/2000/svg" xmlns:xlink="http://www.w3.org/1999/xlink" x="0px" y="0px"
	 viewBox="0 0 512 512" style="enable-background:new 0 0 512 512;" xml:space="preserve">
<path style="fill:#D9D9D9;" d="M42.667,247.467L76.8,162.133h256l68.267,85.333H42.667z"/>
<path style="fill:#F0F0F0;" d="M76.8,162.133l-34.133,85.333h332.8L307.2,162.133H76.8z"/>
<path style="fill:#D9D9D9;" d="M332.8,179.2v-17.067h-256L69.973,179.2H332.8z"/>
<path style="fill:#FBB540;" d="M136.533,247.467h315.733c28.279,0,51.2,22.921,51.2,51.2v17.067c0,28.279-22.921,51.2-51.2,51.2
	h-409.6c-18.85,0-34.133-15.283-34.133-34.133v-51.2c0-18.85,15.283-34.133,34.133-34.133H136.533z"/>
<circle style="fill:#6C7175;" cx="119.467" cy="366.933" r="51.2"/>
<circle style="fill:#D9D9D9;" cx="119.467" cy="366.933" r="17.067"/>
<circle style="fill:#6C7175;" cx="384" cy="366.933" r="51.2"/>
<path style="fill:#FBB540;" d="M110.933,153.6h179.2V256h-179.2V153.6z"/>
<circle style="fill:#D9D9D9;" cx="384" cy="366.933" r="17.067"/>
<g>
	<path style="fill:#6C7175;" d="M145.067,273.067h17.067v17.067h-17.067V273.067z"/>
	<path style="fill:#6C7175;" d="M162.133,290.133H179.2V307.2h-17.067V290.133z"/>
	<path style="fill:#6C7175;" d="M196.267,290.133h17.067V307.2h-17.067V290.133z"/>
	<path style="fill:#6C7175;" d="M179.2,273.067h17.067v17.067H179.2V273.067z"/>
	<path style="fill:#6C7175;" d="M281.6,273.067h17.067v17.067H281.6V273.067z"/>
	<path style="fill:#6C7175;" d="M298.667,290.133h17.067V307.2h-17.067V290.133z"/>
	<path style="fill:#6C7175;" d="M332.8,290.133h17.067V307.2H332.8V290.133z"/>
	<path style="fill:#6C7175;" d="M264.533,290.133H281.6V307.2h-17.067V290.133z"/>
	<path style="fill:#6C7175;" d="M315.733,273.067H332.8v17.067h-17.067V273.067z"/>
	<path style="fill:#6C7175;" d="M213.333,273.067H230.4v17.067h-17.067V273.067z"/>
	<path style="fill:#6C7175;" d="M230.4,290.133h17.067V307.2H230.4V290.133z"/>
	<path style="fill:#6C7175;" d="M247.467,273.067h17.067v17.067h-17.067V273.067z"/>
</g>
<path style="fill:#EA9D2D;" d="M187.733,93.867h34.133V128h-34.133V93.867z"/>
<path style="fill:#FBB540;" d="M187.733,110.933H204.8v25.6h-17.067V110.933z"/>
<g>
	<path style="fill:#EA9D2D;" d="M196.267,324.267H307.2v17.067H196.267V324.267z"/>
	<path style="fill:#EA9D2D;" d="M452.267,273.067h17.067v17.067h-17.067V273.067z"/>
	<path style="fill:#EA9D2D;" d="M452.267,324.267h17.067v17.067h-17.067V324.267z"/>
	<path style="fill:#EA9D2D;" d="M34.133,273.067H51.2v17.067H34.133V273.067z"/>
	<path style="fill:#EA9D2D;" d="M34.133,324.267H51.2v17.067H34.133V324.267z"/>
</g>
<path style="fill:#FBB540;" d="M332.8,162.133h-256l1.459-21.205c1.562-7.415,8.03-12.774,15.607-12.928h223.326
	c7.578,0.162,14.037,5.513,15.607,12.928L332.8,162.133z"/>
<g>
	<path style="fill:#D9D9D9;" d="M93.867,162.133h17.067v85.333H93.867V162.133z"/>
	<path style="fill:#D9D9D9;" d="M145.067,162.133H256v85.333H145.067V162.133z"/>
</g>
<g>
	<path style="fill:#F0F0F0;" d="M145.067,179.2h93.867v68.267h-93.867V179.2z"/>
	<path style="fill:#F0F0F0;" d="M290.133,179.2v68.267h85.333L320.853,179.2H290.133z"/>
</g>
<path d="M452.267,375.467h-8.533c-4.719,0-8.533-3.814-8.533-8.533c0-4.719,3.814-8.533,8.533-8.533h8.533
	c23.526,0,42.667-19.14,42.667-42.667v-17.067c0-23.526-19.14-42.667-42.667-42.667h-409.6c-14.114,0-25.6,11.486-25.6,25.6v51.2
	c0,14.114,11.486,25.6,25.6,25.6h17.067c4.71,0,8.533,3.814,8.533,8.533c0,4.719-3.823,8.533-8.533,8.533H42.667
	C19.14,375.467,0,356.326,0,332.8v-51.2c0-23.526,19.14-42.667,42.667-42.667h409.6c32.93,0,59.733,26.803,59.733,59.733v17.067
	C512,348.663,485.197,375.467,452.267,375.467z"/>
<path d="M324.267,375.467h-153.6c-4.71,0-8.533-3.814-8.533-8.533c0-4.719,3.823-8.533,8.533-8.533h153.6
	c4.719,0,8.533,3.814,8.533,8.533C332.8,371.652,328.986,375.467,324.267,375.467z"/>
<path d="M119.467,426.667c-32.939,0-59.733-26.803-59.733-59.733S86.528,307.2,119.467,307.2s59.733,26.803,59.733,59.733
	S152.405,426.667,119.467,426.667z M119.467,324.267c-23.526,0-42.667,19.14-42.667,42.667S95.94,409.6,119.467,409.6
	s42.667-19.14,42.667-42.667S142.993,324.267,119.467,324.267z"/>
<path d="M119.467,392.533c-14.114,0-25.6-11.486-25.6-25.6s11.486-25.6,25.6-25.6s25.6,11.486,25.6,25.6
	S133.581,392.533,119.467,392.533z M119.467,358.4c-4.702,0-8.533,3.823-8.533,8.533s3.831,8.533,8.533,8.533
	c4.702,0,8.533-3.823,8.533-8.533S124.169,358.4,119.467,358.4z"/>
<path d="M384,426.667c-32.93,0-59.733-26.803-59.733-59.733S351.07,307.2,384,307.2s59.733,26.803,59.733,59.733
	S416.93,426.667,384,426.667z M384,324.267c-23.526,0-42.667,19.14-42.667,42.667S360.474,409.6,384,409.6
	s42.667-19.14,42.667-42.667S407.526,324.267,384,324.267z"/>
<path d="M384,392.533c-14.114,0-25.6-11.486-25.6-25.6s11.486-25.6,25.6-25.6c14.114,0,25.6,11.486,25.6,25.6
	S398.114,392.533,384,392.533z M384,358.4c-4.71,0-8.533,3.823-8.533,8.533s3.823,8.533,8.533,8.533s8.533-3.823,8.533-8.533
	S388.71,358.4,384,358.4z"/>
<path d="M290.133,256H256c-4.71,0-8.533-3.823-8.533-8.533v-85.333c0-4.71,3.823-8.533,8.533-8.533h34.133
	c4.719,0,8.533,3.823,8.533,8.533v85.333C298.667,252.177,294.852,256,290.133,256z M264.533,238.933H281.6v-68.267h-17.067V238.933
	z"/>
<path d="M145.067,256h-34.133c-4.71,0-8.533-3.823-8.533-8.533v-85.333c0-4.71,3.823-8.533,8.533-8.533h34.133
	c4.71,0,8.533,3.823,8.533,8.533v85.333C153.6,252.177,149.777,256,145.067,256z M119.467,238.933h17.067v-68.267h-17.067V238.933z"
	/>
<rect x="145.067" y="273.067" width="17.067" height="17.067"/>
<rect x="162.133" y="290.133" width="17.067" height="17.067"/>
<rect x="196.267" y="290.133" width="17.067" height="17.067"/>
<rect x="179.2" y="273.067" width="17.067" height="17.067"/>
<rect x="281.6" y="273.067" width="17.067" height="17.067"/>
<rect x="298.667" y="290.133" width="17.067" height="17.067"/>
<rect x="332.8" y="290.133" width="17.067" height="17.067"/>
<rect x="264.533" y="290.133" width="17.067" height="17.067"/>
<rect x="315.733" y="273.067" width="17.067" height="17.067"/>
<rect x="213.333" y="273.067" width="17.067" height="17.067"/>
<rect x="230.4" y="290.133" width="17.067" height="17.067"/>
<rect x="247.467" y="273.067" width="17.067" height="17.067"/>
<path d="M221.867,136.533h-34.133c-4.71,0-8.533-3.823-8.533-8.533V93.867c0-4.71,3.823-8.533,8.533-8.533h34.133
	c4.71,0,8.533,3.823,8.533,8.533V128C230.4,132.71,226.577,136.533,221.867,136.533z M196.267,119.467h17.067V102.4h-17.067V119.467
	z"/>
<rect x="196.267" y="324.267" width="110.933" height="17.067"/>
<rect x="452.267" y="273.067" width="17.067" height="17.067"/>
<rect x="452.267" y="324.267" width="17.067" height="17.067"/>
<rect x="34.133" y="273.067" width="17.067" height="17.067"/>
<rect x="34.133" y="324.267" width="17.067" height="17.067"/>
<path d="M401.067,256h-358.4c-2.833,0-5.478-1.408-7.066-3.746c-1.587-2.338-1.911-5.325-0.862-7.953l34.133-85.333
	c1.306-3.243,4.437-5.367,7.927-5.367h256c2.594,0,5.043,1.178,6.665,3.2l68.267,85.333c2.048,2.56,2.441,6.067,1.024,9.028
	C407.33,254.123,404.352,256,401.067,256z M55.27,238.933h328.038l-54.605-68.267H82.577L55.27,238.933z"/>
<path d="M332.8,170.667h-256c-2.364,0-4.625-0.981-6.238-2.705c-1.613-1.732-2.441-4.053-2.278-6.409l1.459-21.205
	c0.026-0.393,0.085-0.785,0.162-1.178c2.398-11.358,12.177-19.456,23.782-19.703h223.505c11.785,0.247,21.555,8.354,23.962,19.703
	c0.12,0.572,0.179,1.169,0.179,1.758v21.205C341.333,166.844,337.519,170.667,332.8,170.667z M85.939,153.6h238.327v-11.614
	c-0.981-3.174-3.874-5.376-7.262-5.453H93.867c-3.294,0.068-6.229,2.381-7.142,5.683L85.939,153.6z"/>
<g>
</g>
<g>
</g>
<g>
</g>
<g>
</g>
<g>
</g>
<g>
</g>
<g>
</g>
<g>
</g>
<g>
</g>
<g>
</g>
<g>
</g>
<g>
</g>
<g>
</g>
<g>
</g>
<g>
</g>
</svg>
